SplineFontDB: 3.2
FontName: Estedad-Thin
FullName: Estedad Thin
FamilyName: Estedad Thin
Weight: Thin
Copyright: Copyright 2022 The Estedad Project Authors (https://github.com/aminabedi68/Estedad)
Version: 6.0
ItalicAngle: 0
UnderlinePosition: -750
UnderlineWidth: 150
Ascent: 1638
Descent: 410
InvalidEm: 0
sfntRevision: 0x00060000
LayerCount: 2
Layer: 0 0 "Back" 1
Layer: 1 0 "Fore" 0
StyleMap: 0x0040
FSType: 0
OS2Version: 4
OS2_WeightWidthSlopeOnly: 0
OS2_UseTypoMetrics: 1
CreationTime: 1595063989
ModificationTime: 1650825889
PfmFamily: 17
TTFWeight: 100
TTFWidth: 5
LineGap: 0
VLineGap: 0
Panose: 2 0 2 3 0 0 0 0 0 0
OS2TypoAscent: 2400
OS2TypoAOffset: 0
OS2TypoDescent: -1200
OS2TypoDOffset: 0
OS2TypoLinegap: 0
OS2WinAscent: 2616
OS2WinAOffset: 0
OS2WinDescent: 1309
OS2WinDOffset: 0
HheadAscent: 2400
HheadAOffset: 0
HheadDescent: -1200
HheadDOffset: 0
OS2SubXSize: 1331
OS2SubYSize: 1433
OS2SubXOff: 0
OS2SubYOff: 286
OS2SupXSize: 1331
OS2SupYSize: 1433
OS2SupXOff: 0
OS2SupYOff: 983
OS2StrikeYSize: 102
OS2StrikeYPos: 530
OS2CapHeight: 1500
OS2XHeight: 1090
OS2Vendor: 'amin'
OS2CodePages: 000000d3.00000000
OS2UnicodeRanges: a000207f.9000207b.00000008.00000000
Lookup: 6 9 0 "'ccmp' Glyph Composition/Decomposition in Arabic lookup 73" { "'ccmp' Glyph Composition/Decomposition in Arabic lookup 73 contextual 0"  "'ccmp' Glyph Composition/Decomposition in Arabic lookup 73 contextual 1"  "'ccmp' Glyph Composition/Decomposition in Arabic lookup 73 contextual 2"  "'ccmp' Glyph Composition/Decomposition in Arabic lookup 73 contextual 3"  } ['ccmp' ('arab' <'FAR ' 'MLY ' 'SND ' 'URD ' 'dflt' > ) ]

StartChar: exclam
Encoding: 33 33 1
Width: 642
GlyphClass: 2
Flags: HMW
LayerCount: 2
Fore
SplineSet
352 378 m 257
 290 378 l 257
 290 1331 l 257
 352 1331 l 257
 352 378 l 257
EndSplineSet
Refer: 14 46 N 1 0 0 1 33 0 2
EndChar

StartChar: numbersign
Encoding: 35 35 3
Width: 1630
GlyphClass: 2
Flags: HMW
LayerCount: 2
Fore
SplineSet
1100 902 m 257
 670 902 l 257
 546 450 l 257
 975 450 l 257
 1100 902 l 257
418 -16 m 257
 358 -16 l 257
 472 395 l 257
 167 395 l 257
 167 450 l 257
 487 450 l 257
 611 902 l 257
 286 902 l 257
 286 955 l 257
 626 955 l 257
 734 1347 l 257
 794 1347 l 257
 687 955 l 257
 1114 955 l 257
 1223 1347 l 257
 1281 1347 l 257
 1174 955 l 257
 1465 955 l 257
 1465 902 l 257
 1158 902 l 257
 1035 450 l 257
 1345 450 l 257
 1345 395 l 257
 1020 395 l 257
 907 -16 l 257
 845 -16 l 257
 958 395 l 257
 531 395 l 257
 418 -16 l 257
EndSplineSet
EndChar

StartChar: ampersand
Encoding: 38 38 6
Width: 1291
GlyphClass: 2
Flags: HMW
LayerCount: 2
Fore
SplineSet
218 1050 m 256
 218 1193 323 1342 534 1342 c 256
 722 1342 845 1217 845 1060 c 256
 845 855 665 756 490 660 c 256
 326 570 167 470 167 312 c 256
 167 129 333 51 521 51 c 256
 837 51 1060 298 1060 541 c 257
 1117 541 l 257
 1117 285 891 -9 522 -9 c 256
 293 -9 107 96 107 304 c 256
 107 496 281 611 455 704 c 256
 624 794 783 879 783 1054 c 256
 783 1194 684 1289 533 1289 c 256
 367 1289 279 1174 279 1060 c 256
 279 954 333 878 407 804 c 258
 1192 30 l 257
 1151 -11 l 257
 360 769 l 258
 278 851 218 940 218 1050 c 256
EndSplineSet
EndChar

StartChar: quotesingle
Encoding: 39 39 7
Width: 444
GlyphClass: 2
Flags: HMW
LayerCount: 2
Fore
SplineSet
180 1331 m 257
 264 1331 l 257
 254 920 l 257
 190 920 l 257
 180 1331 l 257
EndSplineSet
EndChar

StartChar: parenleft
Encoding: 40 40 8
Width: 656
GlyphClass: 2
Flags: HMW
LayerCount: 2
Fore
SplineSet
476 1442 m 257
 526 1411 l 257
 333 1149 239 833 239 444 c 256
 239 56 332 -257 526 -520 c 257
 476 -552 l 257
 275 -280 180 41 180 444 c 256
 180 847 276 1171 476 1442 c 257
EndSplineSet
Position2: "SinglePositioning1 subtable" dx=0 dy=0 dh=200 dv=0
EndChar

StartChar: parenright
Encoding: 41 41 9
Width: 656
GlyphClass: 2
Flags: HMW
LayerCount: 2
Fore
SplineSet
180 -552 m 257
 130 -521 l 257
 323 -259 417 57 417 446 c 256
 417 834 324 1147 130 1410 c 257
 180 1442 l 257
 381 1170 476 849 476 446 c 256
 476 43 380 -281 180 -552 c 257
EndSplineSet
Position2: "SinglePositioning1 subtable" dx=0 dy=0 dh=200 dv=0
EndChar

StartChar: asterisk
Encoding: 42 42 10
Width: 1262
GlyphClass: 2
Flags: HMW
LayerCount: 2
Fore
SplineSet
225 1018 m 257
 240 1064 l 257
 607 945 l 257
 607 1331 l 257
 656 1331 l 257
 656 945 l 257
 1023 1064 l 257
 1038 1018 l 257
 671 898 l 257
 898 586 l 257
 858 557 l 257
 632 870 l 257
 405 557 l 257
 365 586 l 257
 592 898 l 257
 225 1018 l 257
EndSplineSet
EndChar

StartChar: plus
Encoding: 43 43 11
Width: 1182
GlyphClass: 2
Flags: HMW
LayerCount: 2
Fore
SplineSet
1002 616 m 257
 1002 556 l 257
 621 556 l 257
 621 175 l 257
 561 175 l 257
 561 556 l 257
 180 556 l 257
 180 616 l 257
 561 616 l 257
 561 998 l 257
 621 998 l 257
 621 616 l 257
 1002 616 l 257
EndSplineSet
Substitution2: "'tnum' Tabular Numbers lookup 22 subtable" plus.tnum
EndChar

StartChar: comma
Encoding: 44 44 12
Width: 522
GlyphClass: 2
Flags: HMW
LayerCount: 2
Fore
SplineSet
214 193 m 257
 297 193 l 257
 169 -220 l 257
 123 -204 l 257
 214 193 l 257
EndSplineSet
EndChar

StartChar: hyphen
Encoding: 45 45 13
Width: 1182
GlyphClass: 2
Flags: HMW
LayerCount: 2
Fore
SplineSet
1002 616 m 257
 1002 556 l 257
 180 556 l 257
 180 616 l 257
 1002 616 l 257
EndSplineSet
Substitution2: "'tnum' Tabular Numbers lookup 22 subtable" hyphen.tnum
EndChar

StartChar: period
Encoding: 46 46 14
Width: 576
GlyphClass: 2
Flags: MW
LayerCount: 2
Fore
SplineSet
200 78 m 256
 200 127 235 165 288 165 c 256
 341 165 376 127 376 78 c 256
 376 29 341 -11 288 -11 c 256
 235 -11 200 29 200 78 c 256
EndSplineSet
EndChar

StartChar: slash
Encoding: 47 47 15
Width: 1181
GlyphClass: 2
Flags: HMW
LayerCount: 2
Fore
SplineSet
914 1331 m 257
 970 1331 l 257
 270 0 l 257
 212 0 l 257
 914 1331 l 257
EndSplineSet
Substitution2: "'tnum' Tabular Numbers lookup 22 subtable" slash.tnum
Substitution2: "'smcp' Lowercase to Small Capitals in Latin lookup 0 subtable" slash.sc
EndChar

StartChar: zero
Encoding: 48 48 16
Width: 1044
GlyphClass: 2
Flags: HMW
LayerCount: 2
Fore
SplineSet
521 1342 m 256
 821 1342 934 1044 934 665 c 256
 934 286 822 -11 522 -11 c 256
 222 -11 111 286 111 665 c 256
 111 1044 221 1342 521 1342 c 256
521 1289 m 256
 227 1289 172 964 172 665 c 256
 172 366 228 42 522 42 c 256
 816 42 873 366 873 665 c 256
 873 964 815 1289 521 1289 c 256
EndSplineSet
Substitution2: "'onum' Oldstyle Figures lookup 23 subtable" zero.onum
Substitution2: "'tnum' Tabular Numbers lookup 22 subtable" zero.tnum
Substitution2: "'zero' Slashed Zero lookup 19 subtable" zero.slashed
Substitution2: "'sups' Superscript lookup 0 subtable" uni2070
Substitution2: "'subs' Subscript lookup 0 subtable" uni2080
Substitution2: "'sinf' Scientific Inferiors lookup 20 subtable" uni2080
Substitution2: "'smcp' Lowercase to Small Capitals in Latin lookup 0 subtable" zero.SC
Substitution2: "Single Substitution lookup 178 subtable" uni0660.EoA
EndChar

StartChar: one
Encoding: 49 49 17
Width: 651
GlyphClass: 2
Flags: MW
LayerCount: 2
Fore
SplineSet
412 1128 m 257
 353 1033 252 999 50 999 c 257
 50 1053 l 257
 313 1053 412 1097 412 1331 c 257
 471 1331 l 257
 471 0 l 257
 412 0 l 257
 412 1128 l 257
EndSplineSet
Substitution2: "'onum' Oldstyle Figures lookup 23 subtable" one.onum
Substitution2: "'tnum' Tabular Numbers lookup 22 subtable" one.tnum
Substitution2: "'sups' Superscript lookup 0 subtable" uni00B9
Substitution2: "'subs' Subscript lookup 0 subtable" uni2081
Substitution2: "'sinf' Scientific Inferiors lookup 20 subtable" uni2081
Substitution2: "'smcp' Lowercase to Small Capitals in Latin lookup 0 subtable" one.SC
Substitution2: "Single Substitution lookup 178 subtable" uni0661.EoA
EndChar

StartChar: two
Encoding: 50 50 18
Width: 1054
GlyphClass: 2
Flags: HMW
LayerCount: 2
Fore
SplineSet
149 974 m 257
 149 1217 325 1342 545 1342 c 256
 772 1342 949 1200 949 949 c 256
 949 744 815 641 593 503 c 256
 391 377 173 208 172 53 c 257
 969 53 l 257
 969 0 l 257
 117 0 l 257
 116 10 116 19 116 28 c 256
 116 265 412 450 571 549 c 256
 784 681 899 773 899 956 c 256
 899 1167 746 1289 543 1289 c 256
 356 1289 199 1187 199 974 c 257
 149 974 l 257
EndSplineSet
Substitution2: "'onum' Oldstyle Figures lookup 23 subtable" two.onum
Substitution2: "'tnum' Tabular Numbers lookup 22 subtable" two.tnum
Substitution2: "'sups' Superscript lookup 0 subtable" uni00B2
Substitution2: "'subs' Subscript lookup 0 subtable" uni2082
Substitution2: "'sinf' Scientific Inferiors lookup 20 subtable" uni2082
Substitution2: "'smcp' Lowercase to Small Capitals in Latin lookup 0 subtable" two.SC
Substitution2: "Single Substitution lookup 178 subtable" uni0662.EoA
EndChar

StartChar: three
Encoding: 51 51 19
Width: 1120
GlyphClass: 2
Flags: HMW
LayerCount: 2
Fore
SplineSet
122 357 m 257
 182 357 l 257
 182 163 330 42 568 42 c 256
 803 42 935 160 935 369 c 256
 935 578 803 685 548 685 c 258
 484 685 l 257
 484 741 l 257
 548 741 l 258
 775 741 892 830 892 1004 c 256
 892 1182 770 1289 567 1289 c 256
 369 1289 247 1187 247 1020 c 257
 186 1020 l 257
 186 1216 335 1342 564 1342 c 256
 800 1342 955 1208 955 1006 c 256
 955 869 884 772 743 713 c 257
 918 642 998 532 998 366 c 256
 998 131 837 -11 570 -11 c 256
 299 -11 122 135 122 357 c 257
EndSplineSet
Substitution2: "'onum' Oldstyle Figures lookup 23 subtable" three.onum
Substitution2: "'tnum' Tabular Numbers lookup 22 subtable" three.tnum
Substitution2: "'sups' Superscript lookup 0 subtable" uni00B3
Substitution2: "'subs' Subscript lookup 0 subtable" uni2083
Substitution2: "'sinf' Scientific Inferiors lookup 20 subtable" uni2083
Substitution2: "'smcp' Lowercase to Small Capitals in Latin lookup 0 subtable" three.SC
Substitution2: "Single Substitution lookup 178 subtable" uni0663.EoA
EndChar

StartChar: four
Encoding: 52 52 20
Width: 1135
GlyphClass: 2
Flags: MW
LayerCount: 2
Fore
SplineSet
778 374 m 257
 778 1257 l 257
 165 374 l 257
 778 374 l 257
778 318 m 257
 106 318 l 257
 106 376 l 257
 770 1331 l 257
 837 1331 l 257
 837 374 l 257
 1083 374 l 257
 1083 318 l 257
 837 318 l 257
 837 0 l 257
 778 0 l 257
 778 318 l 257
EndSplineSet
Substitution2: "'onum' Oldstyle Figures lookup 23 subtable" four.onum
Substitution2: "'tnum' Tabular Numbers lookup 22 subtable" four.tnum
Substitution2: "'sups' Superscript lookup 0 subtable" uni2074
Substitution2: "'subs' Subscript lookup 0 subtable" uni2084
Substitution2: "'sinf' Scientific Inferiors lookup 20 subtable" uni2084
Substitution2: "'smcp' Lowercase to Small Capitals in Latin lookup 0 subtable" four.SC
Substitution2: "Single Substitution lookup 178 subtable" uni0664.EoA
EndChar

StartChar: five
Encoding: 53 53 21
Width: 1017
GlyphClass: 2
Flags: HMW
LayerCount: 2
Fore
SplineSet
117 348 m 257
 178 348 l 257
 178 158 301 42 508 42 c 256
 708 42 841 167 841 427 c 256
 841 671 739 828 508 828 c 256
 386 828 297 794 206 702 c 257
 135 702 l 257
 187 1331 l 257
 912 1331 l 257
 912 1278 l 257
 243 1278 l 257
 201 763 l 257
 268 836 384 882 509 882 c 256
 773 882 901 701 901 427 c 256
 901 141 739 -11 504 -11 c 256
 277 -11 117 130 117 348 c 257
EndSplineSet
Substitution2: "'onum' Oldstyle Figures lookup 23 subtable" five.onum
Substitution2: "'tnum' Tabular Numbers lookup 22 subtable" five.tnum
Substitution2: "'sups' Superscript lookup 0 subtable" uni2075
Substitution2: "'subs' Subscript lookup 0 subtable" uni2085
Substitution2: "'sinf' Scientific Inferiors lookup 20 subtable" uni2085
Substitution2: "'smcp' Lowercase to Small Capitals in Latin lookup 0 subtable" five.SC
Substitution2: "Single Substitution lookup 178 subtable" uni0665.EoA
EndChar

StartChar: six
Encoding: 54 54 22
Width: 1057
GlyphClass: 2
Flags: HMW
LayerCount: 2
Fore
SplineSet
553 792 m 256
 378 792 241 678 185 502 c 257
 194 229 292 42 547 42 c 256
 762 42 871 175 871 415 c 256
 871 636 763 792 553 792 c 256
560 1342 m 256
 780 1342 903 1186 903 1034 c 257
 848 1034 l 257
 848 1148 767 1289 559 1289 c 256
 252 1289 170 935 180 587 c 257
 237 743 380 845 555 845 c 256
 801 845 931 663 931 423 c 256
 931 147 795 -11 550 -11 c 256
 284 -11 127 161 127 602 c 256
 127 1051 243 1342 560 1342 c 256
EndSplineSet
Substitution2: "'onum' Oldstyle Figures lookup 23 subtable" six.onum
Substitution2: "'tnum' Tabular Numbers lookup 22 subtable" six.tnum
Substitution2: "'sups' Superscript lookup 0 subtable" uni2076
Substitution2: "'subs' Subscript lookup 0 subtable" uni2086
Substitution2: "'sinf' Scientific Inferiors lookup 20 subtable" uni2086
Substitution2: "'smcp' Lowercase to Small Capitals in Latin lookup 0 subtable" six.SC
Substitution2: "Single Substitution lookup 178 subtable" uni0666.EoA
EndChar

StartChar: seven
Encoding: 55 55 23
Width: 1124
GlyphClass: 2
Flags: MW
LayerCount: 2
Fore
SplineSet
1019 1281 m 257
 782 973 541 491 541 0 c 257
 480 0 l 257
 480 486 730 1001 957 1278 c 257
 122 1278 l 257
 122 1331 l 257
 1004 1331 l 257
 1019 1281 l 257
EndSplineSet
Substitution2: "'onum' Oldstyle Figures lookup 23 subtable" seven.onum
Substitution2: "'tnum' Tabular Numbers lookup 22 subtable" seven.tnum
Substitution2: "'sups' Superscript lookup 0 subtable" uni2077
Substitution2: "'subs' Subscript lookup 0 subtable" uni2087
Substitution2: "'sinf' Scientific Inferiors lookup 20 subtable" uni2087
Substitution2: "'smcp' Lowercase to Small Capitals in Latin lookup 0 subtable" seven.SC
Substitution2: "Single Substitution lookup 178 subtable" uni0667.EoA
EndChar

StartChar: eight
Encoding: 56 56 24
Width: 1051
GlyphClass: 2
Flags: MW
LayerCount: 2
Fore
SplineSet
527 1342 m 256
 735 1342 875 1208 875 1012 c 256
 875 870 802 747 683 692 c 257
 844 621 940 485 940 331 c 256
 940 126 773 -12 527 -12 c 256
 280 -12 111 128 111 335 c 256
 111 490 207 626 366 693 c 257
 248 748 175 870 175 1011 c 256
 175 1207 318 1342 527 1342 c 256
527 1289 m 256
 351 1289 235 1175 235 1003 c 256
 235 828 351 713 526 713 c 256
 701 713 815 828 815 1003 c 256
 815 1176 701 1289 527 1289 c 256
522 661 m 256
 319 661 173 521 173 329 c 256
 173 148 304 40 526 40 c 256
 748 40 880 148 880 327 c 256
 880 518 727 661 522 661 c 256
EndSplineSet
Substitution2: "'onum' Oldstyle Figures lookup 23 subtable" eight.onum
Substitution2: "'tnum' Tabular Numbers lookup 22 subtable" eight.tnum
Substitution2: "'sups' Superscript lookup 0 subtable" uni2078
Substitution2: "'subs' Subscript lookup 0 subtable" uni2088
Substitution2: "'sinf' Scientific Inferiors lookup 20 subtable" uni2088
Substitution2: "'smcp' Lowercase to Small Capitals in Latin lookup 0 subtable" eight.SC
Substitution2: "Single Substitution lookup 178 subtable" uni0668.EoA
EndChar

StartChar: nine
Encoding: 57 57 25
Width: 1057
GlyphClass: 2
Flags: HMW
LayerCount: 2
Fore
SplineSet
505 539 m 256
 680 539 817 653 873 829 c 257
 864 1102 766 1289 511 1289 c 256
 296 1289 187 1156 187 916 c 256
 187 695 295 539 505 539 c 256
498 -11 m 256
 278 -11 155 145 155 297 c 257
 210 297 l 257
 210 183 291 42 499 42 c 256
 806 42 888 396 878 744 c 257
 821 588 678 486 503 486 c 256
 257 486 127 668 127 908 c 256
 127 1184 263 1342 508 1342 c 256
 774 1342 931 1170 931 729 c 256
 931 280 815 -11 498 -11 c 256
EndSplineSet
Substitution2: "'onum' Oldstyle Figures lookup 23 subtable" nine.onum
Substitution2: "'tnum' Tabular Numbers lookup 22 subtable" nine.tnum
Substitution2: "'sups' Superscript lookup 0 subtable" uni2079
Substitution2: "'subs' Subscript lookup 0 subtable" uni2089
Substitution2: "'sinf' Scientific Inferiors lookup 20 subtable" uni2089
Substitution2: "'smcp' Lowercase to Small Capitals in Latin lookup 0 subtable" nine.SC
Substitution2: "Single Substitution lookup 178 subtable" uni0669.EoA
EndChar

StartChar: less
Encoding: 60 60 28
Width: 717
GlyphClass: 2
Flags: HMW
LayerCount: 2
Fore
SplineSet
577 1066 m 257
 617 1027 l 257
 172 622 l 257
 617 217 l 257
 577 178 l 257
 100 622 l 257
 577 1066 l 257
EndSplineSet
Position2: "SinglePositioning1 subtable" dx=0 dy=0 dh=200 dv=0
EndChar

StartChar: greater
Encoding: 62 62 30
Width: 717
GlyphClass: 2
Flags: HMW
LayerCount: 2
Fore
SplineSet
140 178 m 257
 100 217 l 257
 545 622 l 257
 100 1027 l 257
 140 1066 l 257
 617 622 l 257
 140 178 l 257
EndSplineSet
EndChar

StartChar: question
Encoding: 63 63 31
Width: 1055
GlyphClass: 2
Flags: HMW
LayerCount: 2
Fore
SplineSet
464 378 m 257
 464 556 562 644 655 725 c 256
 734 794 809 861 809 976 c 256
 809 1124 696 1244 515 1244 c 256
 362 1244 240 1158 240 1011 c 256
 240 1004 240 996 241 988 c 257
 180 988 l 257
 179 996 179 1004 179 1012 c 256
 179 1185 313 1299 512 1299 c 256
 749 1299 875 1138 875 977 c 256
 875 836 791 759 705 684 c 256
 617 607 529 528 529 378 c 257
 464 378 l 257
404 78 m 256
 404 127 439 165 492 165 c 256
 545 165 580 127 580 78 c 256
 580 29 545 -11 492 -11 c 256
 439 -11 404 29 404 78 c 256
EndSplineSet
EndChar

StartChar: at
Encoding: 64 64 32
Width: 1948
GlyphClass: 2
Flags: HMW
LayerCount: 2
Fore
SplineSet
972 866 m 256
 782 866 590 727 590 396 c 256
 590 118 759 54 895 54 c 256
 1031 54 1191 146 1216 420 c 258
 1249 778 l 257
 1183 829 1111 866 972 866 c 256
972 918 m 256
 1146 918 1230 864 1311 801 c 257
 1262 274 l 258
 1261 259 1260 245 1260 234 c 256
 1260 117 1328 51 1437 51 c 256
 1613 51 1709 241 1709 468 c 256
 1709 845 1402 1214 991 1214 c 256
 601 1214 240 903 240 438 c 256
 240 -12 536 -281 1025 -281 c 256
 1096 -281 1165 -269 1231 -251 c 257
 1252 -303 l 257
 1179 -322 1104 -334 1024 -334 c 256
 491 -334 180 -34 180 441 c 256
 180 926 552 1267 979 1267 c 256
 1451 1267 1768 866 1768 468 c 256
 1768 237 1660 -5 1440 -5 c 256
 1314 -5 1224 55 1213 204 c 257
 1157 56 1007 -5 895 -5 c 256
 713 -5 531 109 531 396 c 256
 531 738 733 918 972 918 c 256
EndSplineSet
EndChar

StartChar: A
Encoding: 65 65 33
Width: 1146
GlyphClass: 2
Flags: HMW
AnchorPoint: "down_II" 1092 0 basechar 0
AnchorPoint: "down_I" 573 0 basechar 0
AnchorPoint: "up_I" 573 1331 basechar 0
LayerCount: 2
Fore
SplineSet
241 411 m 257
 85 0 l 257
 22 0 l 257
 530 1331 l 257
 618 1331 l 257
 1124 0 l 257
 1061 0 l 257
 906 411 l 257
 241 411 l 257
261 466 m 257
 885 466 l 257
 574 1292 l 257
 261 466 l 257
EndSplineSet
Substitution2: "'c2sc' Capitals to Small Capitals in Latin lookup 0 subtable" uni1D00
EndChar

StartChar: B
Encoding: 66 66 34
Width: 1150
GlyphClass: 2
Flags: HMW
AnchorPoint: "down_I" 535 0 basechar 0
AnchorPoint: "up_I" 535 1331 basechar 0
LayerCount: 2
Fore
SplineSet
169 1331 m 257
 609 1331 l 258
 829 1331 984 1204 984 989 c 256
 984 841 911 734 794 681 c 257
 947 640 1046 518 1046 346 c 256
 1046 131 891 0 671 0 c 258
 169 0 l 257
 169 1331 l 257
229 1278 m 257
 229 696 l 257
 609 696 l 258
 806 696 925 810 925 989 c 256
 925 1168 806 1278 609 1278 c 258
 229 1278 l 257
229 644 m 257
 229 52 l 257
 671 52 l 258
 868 52 987 167 987 346 c 256
 987 525 868 644 671 644 c 258
 229 644 l 257
EndSplineSet
Substitution2: "'c2sc' Capitals to Small Capitals in Latin lookup 0 subtable" uni0299
EndChar

StartChar: C
Encoding: 67 67 35
Width: 1307
GlyphClass: 2
Flags: HMW
AnchorPoint: "down_I" 696 -11 basechar 0
AnchorPoint: "up_I" 696 1342 basechar 0
LayerCount: 2
Fore
SplineSet
193 665 m 256
 193 300 355 42 694 42 c 256
 937 42 1071 201 1122 345 c 257
 1175 327 l 257
 1119 174 971 -11 696 -11 c 256
 336 -11 133 247 133 665 c 256
 133 1083 336 1342 696 1342 c 256
 971 1342 1119 1157 1175 1004 c 257
 1122 985 l 257
 1071 1129 937 1289 694 1289 c 256
 355 1289 193 1030 193 665 c 256
EndSplineSet
Substitution2: "'c2sc' Capitals to Small Capitals in Latin lookup 0 subtable" uni1D04
EndChar

StartChar: D
Encoding: 68 68 36
Width: 1332
GlyphClass: 2
Flags: HMW
AnchorPoint: "down_I" 594 0 basechar 0
AnchorPoint: "up_I" 594 1331 basechar 0
LayerCount: 2
Fore
SplineSet
1175 665 m 256
 1175 272 971 0 594 0 c 258
 228 0 l 257
 228 1331 l 257
 594 1331 l 258
 971 1331 1175 1058 1175 665 c 256
1114 665 m 256
 1114 1006 949 1278 594 1278 c 258
 287 1278 l 257
 287 52 l 257
 594 52 l 258
 949 52 1114 325 1114 665 c 256
EndSplineSet
Substitution2: "'c2sc' Capitals to Small Capitals in Latin lookup 0 subtable" uni1D05
EndChar

StartChar: E
Encoding: 69 69 37
Width: 1054
GlyphClass: 2
Flags: HMW
AnchorPoint: "down_II" 785 0 basechar 0
AnchorPoint: "down_I" 620 0 basechar 0
AnchorPoint: "up_I" 620 1331 basechar 0
LayerCount: 2
Fore
SplineSet
970 52 m 257
 970 0 l 257
 228 0 l 257
 228 1331 l 257
 970 1331 l 257
 970 1278 l 257
 287 1278 l 257
 287 693 l 257
 915 693 l 257
 915 637 l 257
 287 637 l 257
 287 52 l 257
 970 52 l 257
EndSplineSet
Substitution2: "'c2sc' Capitals to Small Capitals in Latin lookup 0 subtable" uni1D07
EndChar

StartChar: F
Encoding: 70 70 38
Width: 1043
GlyphClass: 2
Flags: MW
AnchorPoint: "down_I" 620 0 basechar 0
AnchorPoint: "up_I" 620 1331 basechar 0
LayerCount: 2
Fore
SplineSet
287 0 m 257
 228 0 l 257
 228 1331 l 257
 970 1331 l 257
 970 1278 l 257
 287 1278 l 257
 287 643 l 257
 932 643 l 257
 932 589 l 257
 287 589 l 257
 287 0 l 257
EndSplineSet
Substitution2: "'c2sc' Capitals to Small Capitals in Latin lookup 0 subtable" uniA730
EndChar

StartChar: G
Encoding: 71 71 39
Width: 1300
GlyphClass: 2
Flags: HMW
AnchorPoint: "down_I" 702 -11 basechar 0
AnchorPoint: "up_I" 676 1342 basechar 0
LayerCount: 2
Fore
SplineSet
677 643 m 257
 1189 643 l 257
 1189 166 l 257
 1100 57 887 -11 702 -11 c 256
 319 -11 111 225 111 659 c 256
 111 1086 323 1342 676 1342 c 256
 894 1342 1078 1212 1154 1004 c 257
 1102 985 l 257
 1036 1172 871 1289 673 1289 c 256
 358 1289 172 1055 172 659 c 256
 172 256 356 42 703 42 c 256
 852 42 1053 107 1130 180 c 257
 1130 589 l 257
 677 589 l 257
 677 643 l 257
EndSplineSet
Substitution2: "'c2sc' Capitals to Small Capitals in Latin lookup 0 subtable" uni0262
EndChar

StartChar: H
Encoding: 72 72 40
Width: 1382
GlyphClass: 2
Flags: HMW
AnchorPoint: "down_I" 691 0 basechar 0
AnchorPoint: "up_I" 691 1331 basechar 0
LayerCount: 2
Fore
SplineSet
1094 1331 m 257
 1154 1331 l 257
 1154 0 l 257
 1094 0 l 257
 1094 636 l 257
 288 636 l 257
 288 0 l 257
 228 0 l 257
 228 1331 l 257
 288 1331 l 257
 288 695 l 257
 1094 695 l 257
 1094 1331 l 257
EndSplineSet
Substitution2: "'c2sc' Capitals to Small Capitals in Latin lookup 0 subtable" uni029C
EndChar

StartChar: I
Encoding: 73 73 41
Width: 610
GlyphClass: 2
Flags: HMW
AnchorPoint: "down_II" 305 0 basechar 0
AnchorPoint: "down_I" 305 0 basechar 0
AnchorPoint: "up_I" 305 1331 basechar 0
LayerCount: 2
Fore
SplineSet
335 0 m 257
 275 0 l 257
 275 1331 l 257
 335 1331 l 257
 335 0 l 257
EndSplineSet
Substitution2: "'c2sc' Capitals to Small Capitals in Latin lookup 0 subtable" uni026A
EndChar

StartChar: J
Encoding: 74 74 42
Width: 692
GlyphClass: 2
Flags: MW
AnchorPoint: "down_I" 217 -11 basechar 0
AnchorPoint: "up_I" 436 1331 basechar 0
LayerCount: 2
Fore
SplineSet
95 5 m 257
 107 54 l 257
 131 49 175 42 218 42 c 256
 342 42 406 100 406 227 c 258
 406 1331 l 257
 465 1331 l 257
 465 222 l 258
 465 58 363 -11 217 -11 c 256
 175 -11 133 -5 95 5 c 257
EndSplineSet
Substitution2: "'c2sc' Capitals to Small Capitals in Latin lookup 0 subtable" uni1D0A
EndChar

StartChar: K
Encoding: 75 75 43
Width: 1145
GlyphClass: 2
Flags: HMW
AnchorPoint: "down_I" 630 0 basechar 0
AnchorPoint: "up_I" 630 1331 basechar 0
LayerCount: 2
Fore
SplineSet
1024 1331 m 257
 1104 1331 l 257
 520 666 l 257
 1104 0 l 257
 1024 0 l 257
 468 628 l 257
 287 628 l 257
 287 0 l 257
 228 0 l 257
 228 1331 l 257
 287 1331 l 257
 287 691 l 257
 464 691 l 257
 1024 1331 l 257
EndSplineSet
Substitution2: "'c2sc' Capitals to Small Capitals in Latin lookup 0 subtable" uni1D0B
EndChar

StartChar: L
Encoding: 76 76 44
Width: 1010
GlyphClass: 2
Flags: HMW
AnchorPoint: "up_II" 568 1331 basechar 0
AnchorPoint: "down_II" 909 0 basechar 0
AnchorPoint: "middle_dot_I" 650 744 basechar 0
AnchorPoint: "down_I" 650 0 basechar 0
AnchorPoint: "up_I" 650 1331 basechar 0
LayerCount: 2
Fore
SplineSet
947 52 m 257
 947 0 l 257
 228 0 l 257
 228 1331 l 257
 287 1331 l 257
 287 52 l 257
 947 52 l 257
EndSplineSet
Substitution2: "'c2sc' Capitals to Small Capitals in Latin lookup 0 subtable" uni029F
EndChar

StartChar: M
Encoding: 77 77 45
Width: 1817
GlyphClass: 2
Flags: HMW
AnchorPoint: "down_I" 876 0 basechar 0
AnchorPoint: "up_I" 876 1331 basechar 0
LayerCount: 2
Fore
SplineSet
287 0 m 257
 228 0 l 257
 228 1331 l 257
 341 1331 l 257
 876 30 l 257
 1478 1331 l 257
 1591 1331 l 257
 1591 0 l 257
 1531 0 l 257
 1531 1303 l 257
 930 0 l 257
 820 0 l 257
 287 1295 l 257
 287 0 l 257
EndSplineSet
Substitution2: "'c2sc' Capitals to Small Capitals in Latin lookup 0 subtable" uni1D0D
EndChar

StartChar: N
Encoding: 78 78 46
Width: 1397
GlyphClass: 2
Flags: HMW
AnchorPoint: "down_I" 670 0 basechar 0
AnchorPoint: "up_I" 740 1331 basechar 0
LayerCount: 2
Fore
SplineSet
1109 1331 m 257
 1169 1331 l 257
 1169 0 l 257
 1074 0 l 257
 287 1282 l 257
 287 0 l 257
 228 0 l 257
 228 1331 l 257
 323 1331 l 257
 1109 48 l 257
 1109 1331 l 257
EndSplineSet
Substitution2: "'c2sc' Capitals to Small Capitals in Latin lookup 0 subtable" uni0274
EndChar

StartChar: O
Encoding: 79 79 47
Width: 1522
GlyphClass: 2
Flags: HMW
AnchorPoint: "up_II" 989 1244 basechar 0
AnchorPoint: "down_II" 761 -11 basechar 0
AnchorPoint: "down_I" 761 -11 basechar 0
AnchorPoint: "up_I" 761 1342 basechar 0
LayerCount: 2
Fore
SplineSet
761 1342 m 256
 1143 1342 1337 1061 1337 665 c 256
 1337 269 1143 -11 761 -11 c 256
 379 -11 185 269 185 665 c 256
 185 1061 379 1342 761 1342 c 256
761 1289 m 256
 397 1289 244 1008 244 665 c 256
 244 321 397 41 761 41 c 256
 1125 41 1278 322 1278 665 c 256
 1278 1009 1125 1289 761 1289 c 256
EndSplineSet
Substitution2: "'c2sc' Capitals to Small Capitals in Latin lookup 0 subtable" uni1D0F
EndChar

StartChar: P
Encoding: 80 80 48
Width: 1099
GlyphClass: 2
Flags: HMW
AnchorPoint: "down_I" 560 0 basechar 0
AnchorPoint: "up_I" 560 1331 basechar 0
LayerCount: 2
Fore
SplineSet
229 0 m 257
 169 0 l 257
 169 1331 l 257
 629 1331 l 258
 849 1331 984 1184 984 969 c 256
 984 754 850 604 629 604 c 258
 229 604 l 257
 229 0 l 257
229 1278 m 257
 229 656 l 257
 629 656 l 258
 826 656 925 790 925 969 c 256
 925 1148 826 1278 629 1278 c 258
 229 1278 l 257
EndSplineSet
Substitution2: "'c2sc' Capitals to Small Capitals in Latin lookup 0 subtable" uni1D18
EndChar

StartChar: R
Encoding: 82 82 50
Width: 1102
GlyphClass: 2
Flags: HMW
AnchorPoint: "down_I" 560 0 basechar 0
AnchorPoint: "up_I" 560 1331 basechar 0
LayerCount: 2
Fore
SplineSet
704 640 m 257
 1060 0 l 257
 992 0 l 257
 645 640 l 257
 704 640 l 257
EndSplineSet
Refer: 48 80 N 1 0 0 1 0 0 2
Substitution2: "'c2sc' Capitals to Small Capitals in Latin lookup 0 subtable" uni0280
EndChar

StartChar: S
Encoding: 83 83 51
Width: 1140
GlyphClass: 2
Flags: HMW
AnchorPoint: "down_I" 583 -10 basechar 0
AnchorPoint: "up_I" 557 1341 basechar 0
LayerCount: 2
Fore
SplineSet
117 355 m 257
 178 355 l 257
 178 147 378 42 583 42 c 256
 784 42 963 133 963 329 c 256
 963 526 772 582 574 640 c 256
 363 702 146 767 146 1005 c 256
 146 1211 323 1341 557 1341 c 256
 786 1341 994 1198 994 977 c 257
 934 977 l 257
 934 1174 754 1291 557 1291 c 256
 360 1291 207 1189 207 1009 c 256
 207 817 399 757 598 695 c 256
 808 630 1024 561 1024 333 c 256
 1024 108 824 -10 583 -10 c 256
 347 -10 117 116 117 355 c 257
EndSplineSet
Substitution2: "'c2sc' Capitals to Small Capitals in Latin lookup 0 subtable" uniA731
EndChar

StartChar: T
Encoding: 84 84 52
Width: 1325
GlyphClass: 2
Flags: HMW
AnchorPoint: "down_I" 663 0 basechar 0
AnchorPoint: "up_I" 663 1331 basechar 0
LayerCount: 2
Fore
SplineSet
693 0 m 257
 633 0 l 257
 633 1278 l 257
 127 1278 l 257
 127 1331 l 257
 1199 1331 l 257
 1199 1278 l 257
 693 1278 l 257
 693 0 l 257
EndSplineSet
Substitution2: "'c2sc' Capitals to Small Capitals in Latin lookup 0 subtable" uni1D1B
EndChar

StartChar: U
Encoding: 85 85 53
Width: 1314
GlyphClass: 2
Flags: HMW
AnchorPoint: "up_II" 1103 1244 basechar 0
AnchorPoint: "down_II" 656 -11 basechar 0
AnchorPoint: "down_I" 656 -11 basechar 0
AnchorPoint: "up_I" 657 1331 basechar 0
LayerCount: 2
Fore
SplineSet
1078 1331 m 257
 1139 1331 l 257
 1139 458 l 258
 1139 161 946 -11 656 -11 c 256
 366 -11 175 161 175 458 c 258
 175 1331 l 257
 235 1331 l 257
 235 458 l 258
 235 190 405 39 656 39 c 256
 907 39 1078 190 1078 458 c 258
 1078 1331 l 257
EndSplineSet
Substitution2: "'c2sc' Capitals to Small Capitals in Latin lookup 0 subtable" uni1D1C
EndChar

StartChar: V
Encoding: 86 86 54
Width: 1146
GlyphClass: 2
Flags: HMW
AnchorPoint: "down_I" 572 0 basechar 0
AnchorPoint: "up_I" 573 1331 basechar 0
LayerCount: 2
Fore
SplineSet
572 39 m 257
 1061 1331 l 257
 1124 1331 l 257
 616 0 l 257
 528 0 l 257
 22 1331 l 257
 85 1331 l 257
 572 39 l 257
EndSplineSet
Substitution2: "'c2sc' Capitals to Small Capitals in Latin lookup 0 subtable" uni1D20
EndChar

StartChar: W
Encoding: 87 87 55
Width: 1808
GlyphClass: 2
Flags: HMW
AnchorPoint: "down_I" 904 0 basechar 0
AnchorPoint: "up_I" 904 1331 basechar 0
LayerCount: 2
Fore
SplineSet
1692 1331 m 257
 1755 1331 l 257
 1406 0 l 257
 1291 0 l 257
 904 1297 l 257
 510 0 l 257
 401 0 l 257
 53 1331 l 257
 115 1331 l 257
 461 27 l 257
 850 1331 l 257
 958 1331 l 257
 1347 27 l 257
 1692 1331 l 257
EndSplineSet
Substitution2: "'c2sc' Capitals to Small Capitals in Latin lookup 0 subtable" uni1D21
EndChar

StartChar: X
Encoding: 88 88 56
Width: 1190
GlyphClass: 2
Flags: HMW
AnchorPoint: "down_I" 595 0 basechar 0
AnchorPoint: "up_I" 595 1331 basechar 0
LayerCount: 2
Fore
SplineSet
1148 0 m 257
 1073 0 l 257
 595 617 l 257
 117 0 l 257
 42 0 l 257
 552 666 l 257
 42 1331 l 257
 117 1331 l 257
 595 713 l 257
 1073 1331 l 257
 1148 1331 l 257
 636 666 l 257
 1148 0 l 257
EndSplineSet
Substitution2: "'c2sc' Capitals to Small Capitals in Latin lookup 0 subtable" uniA7EF
EndChar

StartChar: Y
Encoding: 89 89 57
Width: 1090
GlyphClass: 2
Flags: HMW
AnchorPoint: "down_I" 544 0 basechar 0
AnchorPoint: "up_I" 544 1331 basechar 0
LayerCount: 2
Fore
SplineSet
1018 1331 m 257
 1085 1331 l 257
 574 572 l 257
 574 0 l 257
 514 0 l 257
 514 572 l 257
 5 1331 l 257
 73 1331 l 257
 544 629 l 257
 1018 1331 l 257
EndSplineSet
Substitution2: "'c2sc' Capitals to Small Capitals in Latin lookup 0 subtable" uni028F
EndChar

StartChar: Z
Encoding: 90 90 58
Width: 1206
GlyphClass: 2
Flags: HMW
AnchorPoint: "down_I" 603 0 basechar 0
AnchorPoint: "up_I" 603 1331 basechar 0
LayerCount: 2
Fore
SplineSet
105 1281 m 257
 105 1331 l 257
 1101 1331 l 257
 1101 1253 l 257
 156 52 l 257
 1101 52 l 257
 1101 0 l 257
 105 0 l 257
 105 80 l 257
 1050 1281 l 257
 105 1281 l 257
EndSplineSet
Substitution2: "'c2sc' Capitals to Small Capitals in Latin lookup 0 subtable" uni1D22
EndChar

StartChar: bracketleft
Encoding: 91 91 59
Width: 714
GlyphClass: 2
Flags: HMW
LayerCount: 2
Fore
SplineSet
537 -57 m 257
 537 -112 l 257
 212 -112 l 257
 212 1387 l 257
 537 1387 l 257
 537 1333 l 257
 272 1333 l 257
 272 -57 l 257
 537 -57 l 257
EndSplineSet
Position2: "SinglePositioning1 subtable" dx=0 dy=0 dh=200 dv=0
EndChar

StartChar: backslash
Encoding: 92 92 60
Width: 1158
GlyphClass: 2
Flags: MW
LayerCount: 2
Fore
SplineSet
934 0 m 257
 872 0 l 257
 214 1331 l 257
 277 1331 l 257
 934 0 l 257
EndSplineSet
EndChar

StartChar: bracketright
Encoding: 93 93 61
Width: 715
GlyphClass: 2
Flags: HMW
LayerCount: 2
Fore
SplineSet
177 1331 m 257
 177 1386 l 257
 504 1386 l 257
 504 -112 l 257
 177 -112 l 257
 177 -59 l 257
 444 -59 l 257
 444 1331 l 257
 177 1331 l 257
EndSplineSet
Position2: "SinglePositioning1 subtable" dx=0 dy=0 dh=200 dv=0
EndChar

StartChar: asciicircum
Encoding: 94 94 62
Width: 788
GlyphClass: 2
Flags: HMW
LayerCount: 2
Fore
SplineSet
638 1131 m 257
 565 1131 l 257
 394 1399 l 257
 222 1131 l 257
 150 1131 l 257
 358 1456 l 257
 430 1456 l 257
 638 1131 l 257
EndSplineSet
EndChar

StartChar: underscore
Encoding: 95 95 63
Width: 800
GlyphClass: 2
Flags: HMW
LayerCount: 2
Fore
SplineSet
700 0 m 257
 700 -59 l 257
 100 -59 l 257
 100 0 l 257
 700 0 l 257
EndSplineSet
Position2: "SinglePositioning1 subtable" dx=0 dy=0 dh=200 dv=0
EndChar

StartChar: grave
Encoding: 96 96 64
Width: 580
GlyphClass: 2
Flags: HMW
LayerCount: 2
Fore
SplineSet
430 1131 m 257
 357 1131 l 257
 150 1456 l 257
 233 1456 l 257
 430 1131 l 257
EndSplineSet
EndChar

StartChar: a
Encoding: 97 97 65
Width: 1027
GlyphClass: 2
Flags: HMW
AnchorPoint: "down_II" 965 0 basechar 0
AnchorPoint: "down_I" 411 -11 basechar 0
AnchorPoint: "up_I" 499 999 basechar 0
LayerCount: 2
Fore
SplineSet
499 999 m 256
 694 999 853 908 853 715 c 258
 853 217 l 258
 853 110 885 53 999 53 c 257
 1000 0 l 257
 864 0 793 69 793 213 c 258
 793 715 l 258
 793 875 661 947 499 947 c 256
 337 947 204 875 204 715 c 257
 145 715 l 257
 145 908 304 999 499 999 c 256
EndSplineSet
Refer: 1197 57355 N 1 0 0 1 0 0 2
Substitution2: "'smcp' Lowercase to Small Capitals in Latin lookup 0 subtable" uni1D00
EndChar

StartChar: b
Encoding: 98 98 66
Width: 1069
GlyphClass: 2
Flags: HMW
AnchorPoint: "down_I" 576 -10 basechar 0
AnchorPoint: "up_I" 576 1370 basechar 0
LayerCount: 2
Fore
SplineSet
235 0 m 257
 175 0 l 257
 175 1389 l 257
 235 1389 l 257
 235 0 l 257
EndSplineSet
Refer: 1201 57359 N 1 0 0 1 -40 0 2
Substitution2: "'smcp' Lowercase to Small Capitals in Latin lookup 0 subtable" uni0299
EndChar

StartChar: c
Encoding: 99 99 67
Width: 1083
GlyphClass: 2
Flags: HMW
AnchorPoint: "down_I" 564 -11 basechar 0
AnchorPoint: "up_I" 564 999 basechar 0
LayerCount: 2
Fore
SplineSet
564 999 m 256
 764 999 905 902 967 730 c 257
 914 709 l 257
 863 856 742 947 564 947 c 256
 339 947 182 804 182 495 c 256
 182 186 339 42 564 42 c 256
 742 42 863 135 914 282 c 257
 967 261 l 257
 905 84 764 -11 564 -11 c 256
 304 -11 122 157 122 495 c 256
 122 833 304 999 564 999 c 256
EndSplineSet
Substitution2: "'smcp' Lowercase to Small Capitals in Latin lookup 0 subtable" uni1D04
EndChar

StartChar: d
Encoding: 100 100 68
Width: 1070
GlyphClass: 2
Flags: HMW
AnchorPoint: "down_I" 495 -10 basechar 0
AnchorPoint: "up_II" 897 1331 basechar 0
AnchorPoint: "up_I" 495 1300 basechar 0
LayerCount: 2
Fore
SplineSet
897 0 m 257
 836 0 l 257
 836 1331 l 257
 897 1331 l 257
 897 0 l 257
EndSplineSet
Refer: 1213 57372 N 1 0 0 1 -148 0 2
Substitution2: "'smcp' Lowercase to Small Capitals in Latin lookup 0 subtable" uni1D05
EndChar

StartChar: e
Encoding: 101 101 69
Width: 1042
GlyphClass: 2
Flags: HMW
AnchorPoint: "down_II" 537 -11 basechar 0
AnchorPoint: "down_I" 537 -11 basechar 0
AnchorPoint: "up_I" 527 999 basechar 0
LayerCount: 2
Fore
SplineSet
151 490 m 257
 152 228 282 42 536 42 c 256
 716 42 829 138 873 247 c 257
 936 247 l 257
 874 83 734 -11 537 -11 c 256
 261 -11 95 175 95 495 c 256
 95 818 267 999 527 999 c 256
 840 999 964 784 958 490 c 257
 151 490 l 257
153 543 m 257
 898 543 l 257
 882 769 796 947 527 947 c 256
 298 947 167 780 153 543 c 257
EndSplineSet
Substitution2: "'smcp' Lowercase to Small Capitals in Latin lookup 0 subtable" uni1D07
EndChar

StartChar: f
Encoding: 102 102 70
Width: 718
GlyphClass: 2
Flags: HMW
AnchorPoint: "down_I" 315 0 basechar 0
AnchorPoint: "up_I" 542 1411 basechar 0
LayerCount: 2
Fore
SplineSet
708 1360 m 257
 678 1318 l 257
 655 1340 606 1357 542 1357 c 256
 418 1357 345 1300 345 1173 c 258
 345 0 l 257
 285 0 l 257
 285 1176 l 258
 285 1340 396 1411 542 1411 c 256
 616 1411 675 1389 708 1360 c 257
EndSplineSet
Refer: 1196 57354 N 1 0 0 1 -24 441 2
Substitution2: "'smcp' Lowercase to Small Capitals in Latin lookup 0 subtable" uniA730
EndChar

StartChar: g
Encoding: 103 103 71
Width: 1069
GlyphClass: 2
Flags: HMW
AnchorPoint: "down_I" 510 -487 basechar 0
AnchorPoint: "up_I" 495 1000 basechar 0
LayerCount: 2
Fore
SplineSet
510 -487 m 256
 297 -487 126 -386 126 -176 c 257
 186 -176 l 257
 186 -353 329 -435 510 -435 c 256
 691 -435 836 -353 836 -176 c 258
 836 990 l 257
 896 990 l 257
 896 -176 l 258
 896 -386 723 -487 510 -487 c 256
EndSplineSet
Refer: 1213 57372 N 1 0 0 1 -148 0 2
Substitution2: "'ss01' Style Set 1 in Latin lookup 24 subtable" g.alt
Substitution2: "'smcp' Lowercase to Small Capitals in Latin lookup 0 subtable" uni0262
Position2: "SinglePositioning1 subtable" dx=0 dy=0 dh=200 dv=0
EndChar

StartChar: h
Encoding: 104 104 72
Width: 1096
GlyphClass: 2
Flags: HMW
AnchorPoint: "down_I" 549 0 basechar 0
AnchorPoint: "up_I" 636 999 basechar 0
LayerCount: 2
Fore
SplineSet
235 0 m 257
 175 0 l 257
 175 1394 l 257
 235 1394 l 257
 235 0 l 257
EndSplineSet
Refer: 1199 57357 N 1 0 0 1 -19 0 2
Substitution2: "'smcp' Lowercase to Small Capitals in Latin lookup 0 subtable" uni029C
EndChar

StartChar: k
Encoding: 107 107 75
Width: 947
GlyphClass: 2
Flags: HMW
AnchorPoint: "down_I" 536 0 basechar 0
AnchorPoint: "up_I" 536 1394 basechar 0
LayerCount: 2
Fore
SplineSet
792 990 m 257
 873 990 l 257
 461 510 l 257
 916 0 l 257
 837 0 l 257
 409 472 l 257
 235 472 l 257
 235 0 l 257
 175 0 l 257
 175 1394 l 257
 235 1394 l 257
 235 535 l 257
 405 535 l 257
 792 990 l 257
EndSplineSet
Substitution2: "'smcp' Lowercase to Small Capitals in Latin lookup 0 subtable" uni1D0B
EndChar

StartChar: l
Encoding: 108 108 76
Width: 410
GlyphClass: 2
Flags: HMW
AnchorPoint: "middle_dot_I" 380 744 basechar 0
AnchorPoint: "down_I" 205 0 basechar 0
AnchorPoint: "up_II" 235 1394 basechar 0
AnchorPoint: "up_I" 205 1394 basechar 0
LayerCount: 2
Fore
SplineSet
235 0 m 257
 175 0 l 257
 175 1394 l 257
 235 1394 l 257
 235 0 l 257
EndSplineSet
Substitution2: "'smcp' Lowercase to Small Capitals in Latin lookup 0 subtable" uni029F
EndChar

StartChar: m
Encoding: 109 109 77
Width: 1611
GlyphClass: 2
Flags: HMW
AnchorPoint: "down_I" 816 0 basechar 0
AnchorPoint: "up_I" 816 999 basechar 0
LayerCount: 2
Fore
SplineSet
149 990 m 257
 208 990 l 257
 208 680 l 257
 208 0 l 257
 149 0 l 257
 149 990 l 257
EndSplineSet
Refer: 1198 57356 N 1 0 0 1 -687 0 2
Refer: 1198 57356 N 1 0 0 1 -49 0 2
Substitution2: "'smcp' Lowercase to Small Capitals in Latin lookup 0 subtable" uni1D0D
EndChar

StartChar: n
Encoding: 110 110 78
Width: 1096
GlyphClass: 2
Flags: HMW
AnchorPoint: "down_I" 546 0 basechar 0
AnchorPoint: "up_I" 636 999 basechar 0
LayerCount: 2
Fore
SplineSet
234 0 m 257
 175 0 l 257
 175 990 l 257
 234 990 l 257
 234 680 l 257
 234 0 l 257
EndSplineSet
Refer: 1199 57357 N 1 0 0 1 -19 0 2
Substitution2: "'smcp' Lowercase to Small Capitals in Latin lookup 0 subtable" uni0274
EndChar

StartChar: o
Encoding: 111 111 79
Width: 1074
GlyphClass: 2
Flags: HMW
AnchorPoint: "up_II" 715 910 basechar 0
AnchorPoint: "down_II" 537 -11 basechar 0
AnchorPoint: "down_I" 537 -11 basechar 0
AnchorPoint: "up_I" 537 999 basechar 0
LayerCount: 2
Fore
SplineSet
537 947 m 256
 312 947 155 804 155 495 c 256
 155 186 312 42 537 42 c 256
 762 42 919 186 919 495 c 256
 919 804 762 947 537 947 c 256
537 999 m 256
 797 999 979 833 979 495 c 256
 979 156 797 -11 537 -11 c 256
 277 -11 95 156 95 495 c 256
 95 833 277 999 537 999 c 256
EndSplineSet
Substitution2: "'smcp' Lowercase to Small Capitals in Latin lookup 0 subtable" uni1D0F
EndChar

StartChar: p
Encoding: 112 112 80
Width: 1069
GlyphClass: 2
Flags: HMW
AnchorPoint: "down_I" 576 -10 basechar 0
AnchorPoint: "up_I" 576 1000 basechar 0
LayerCount: 2
Fore
SplineSet
175 990 m 257
 235 990 l 257
 235 -477 l 257
 175 -477 l 257
 175 990 l 257
EndSplineSet
Refer: 1201 57359 N 1 0 0 1 -40 0 2
Substitution2: "'smcp' Lowercase to Small Capitals in Latin lookup 0 subtable" uni1D18
EndChar

StartChar: q
Encoding: 113 113 81
Width: 1070
GlyphClass: 2
Flags: HMW
AnchorPoint: "down_I" 495 -10 basechar 0
AnchorPoint: "up_I" 495 1000 basechar 0
LayerCount: 2
Fore
SplineSet
836 990 m 257
 897 990 l 257
 897 -477 l 257
 836 -477 l 257
 836 990 l 257
EndSplineSet
Refer: 1213 57372 N 1 0 0 1 -148 0 2
Substitution2: "'smcp' Lowercase to Small Capitals in Latin lookup 0 subtable" uniA7EE
Position2: "SinglePositioning1 subtable" dx=0 dy=0 dh=200 dv=0
EndChar

StartChar: r
Encoding: 114 114 82
Width: 755
GlyphClass: 2
Flags: HMW
AnchorPoint: "down_I" 205 0 basechar 0
AnchorPoint: "up_I" 447 999 basechar 0
LayerCount: 2
Fore
SplineSet
175 990 m 257
 235 990 l 257
 235 540 l 257
 235 0 l 257
 175 0 l 257
 175 990 l 257
EndSplineSet
Refer: 1200 57358 N 1 0 0 1 0 0 2
Substitution2: "'smcp' Lowercase to Small Capitals in Latin lookup 0 subtable" uni0280
EndChar

StartChar: s
Encoding: 115 115 83
Width: 932
GlyphClass: 2
Flags: HMW
AnchorPoint: "down_I" 476 -10 basechar 0
AnchorPoint: "up_I" 480 999 basechar 0
LayerCount: 2
Fore
SplineSet
480 999 m 256
 693 999 824 891 824 715 c 257
 764 715 l 257
 764 860 658 947 481 947 c 256
 310 947 203 865 203 732 c 256
 203 625 272 574 482 523 c 256
 733 462 826 391 826 257 c 256
 826 94 690 -10 476 -10 c 256
 256 -10 118 100 118 274 c 257
 178 274 l 257
 178 131 293 42 477 42 c 256
 656 42 769 125 769 258 c 256
 769 361 701 411 493 460 c 256
 238 520 146 593 146 733 c 256
 146 897 274 999 480 999 c 256
EndSplineSet
Substitution2: "'smcp' Lowercase to Small Capitals in Latin lookup 0 subtable" uniA731
EndChar

StartChar: t
Encoding: 116 116 84
Width: 742
GlyphClass: 2
Flags: HMW
AnchorPoint: "down_I" 526 -10 basechar 0
AnchorPoint: "up_II" 613 1278 basechar 0
AnchorPoint: "up_I" 299 1278 basechar 0
LayerCount: 2
Fore
SplineSet
637 55 m 257
 648 6 l 257
 610 -4 568 -10 526 -10 c 256
 380 -10 269 59 269 223 c 258
 269 1278 l 257
 329 1278 l 257
 329 227 l 258
 329 100 401 43 525 43 c 256
 568 43 613 50 637 55 c 257
EndSplineSet
Refer: 1196 57354 N 1 0 0 1 -24 441 2
Substitution2: "'smcp' Lowercase to Small Capitals in Latin lookup 0 subtable" uni1D1B
EndChar

StartChar: u
Encoding: 117 117 85
Width: 1096
GlyphClass: 2
Flags: HMW
AnchorPoint: "up_II" 888 910 basechar 0
AnchorPoint: "down_II" 892 0 basechar 0
AnchorPoint: "down_I" 460 -9 basechar 0
AnchorPoint: "up_I" 549 990 basechar 0
LayerCount: 2
Fore
SplineSet
862 990 m 257
 921 990 l 257
 921 0 l 257
 862 0 l 257
 862 310 l 257
 862 990 l 257
EndSplineSet
Refer: 1199 57357 N -1 0 0 -1 1115 990 2
Substitution2: "'smcp' Lowercase to Small Capitals in Latin lookup 0 subtable" uni1D1C
EndChar

StartChar: v
Encoding: 118 118 86
Width: 889
GlyphClass: 2
Flags: HMW
AnchorPoint: "down_I" 451 0 basechar 0
AnchorPoint: "up_I" 451 990 basechar 0
LayerCount: 2
Fore
SplineSet
813 990 m 257
 873 990 l 257
 498 0 l 257
 402 0 l 257
 16 990 l 257
 78 990 l 257
 451 42 l 257
 813 990 l 257
EndSplineSet
Substitution2: "'smcp' Lowercase to Small Capitals in Latin lookup 0 subtable" uni1D20
EndChar

StartChar: w
Encoding: 119 119 87
Width: 1488
GlyphClass: 2
Flags: HMW
AnchorPoint: "down_I" 744 0 basechar 0
AnchorPoint: "up_I" 744 968 basechar 0
LayerCount: 2
Fore
SplineSet
90 990 m 257
 147 990 l 257
 421 60 l 257
 707 968 l 257
 783 968 l 257
 1069 60 l 257
 1343 990 l 257
 1398 990 l 257
 1108 0 l 257
 1034 0 l 257
 744 923 l 257
 456 0 l 257
 381 0 l 257
 90 990 l 257
EndSplineSet
Substitution2: "'smcp' Lowercase to Small Capitals in Latin lookup 0 subtable" uni1D21
EndChar

StartChar: x
Encoding: 120 120 88
Width: 980
GlyphClass: 2
Flags: HMW
AnchorPoint: "down_I" 488 0 basechar 0
AnchorPoint: "up_I" 488 990 basechar 0
LayerCount: 2
Fore
SplineSet
868 990 m 257
 938 990 l 257
 523 500 l 257
 938 0 l 257
 867 0 l 257
 488 457 l 257
 112 0 l 257
 42 0 l 257
 454 500 l 257
 42 990 l 257
 111 990 l 257
 488 540 l 257
 868 990 l 257
EndSplineSet
Substitution2: "'smcp' Lowercase to Small Capitals in Latin lookup 0 subtable" uniA7EF
EndChar

StartChar: y
Encoding: 121 121 89
Width: 889
GlyphClass: 2
Flags: HMW
AnchorPoint: "down_I" 447 -477 basechar 0
AnchorPoint: "up_I" 451 990 basechar 0
LayerCount: 2
Fore
SplineSet
813 990 m 257
 873 990 l 257
 317 -477 l 257
 257 -477 l 257
 419 -44 l 257
 16 990 l 257
 78 990 l 257
 451 32 l 257
 813 990 l 257
EndSplineSet
Substitution2: "'smcp' Lowercase to Small Capitals in Latin lookup 0 subtable" uni028F
EndChar

StartChar: z
Encoding: 122 122 90
Width: 868
GlyphClass: 2
Flags: HMW
AnchorPoint: "down_I" 434 0 basechar 0
AnchorPoint: "up_I" 434 990 basechar 0
LayerCount: 2
Fore
SplineSet
53 936 m 257
 53 990 l 257
 816 990 l 257
 816 917 l 257
 100 53 l 257
 816 53 l 257
 816 0 l 257
 53 0 l 257
 53 74 l 257
 767 936 l 257
 53 936 l 257
EndSplineSet
Substitution2: "'smcp' Lowercase to Small Capitals in Latin lookup 0 subtable" uni1D22
EndChar

StartChar: braceleft
Encoding: 123 123 91
Width: 792
GlyphClass: 2
Flags: HMW
LayerCount: 2
Fore
SplineSet
147 638 m 257
 311 561 371 461 371 318 c 258
 371 87 l 258
 371 10 424 -57 509 -57 c 258
 686 -57 l 257
 686 -112 l 257
 521 -112 l 258
 391 -112 311 -25 311 87 c 258
 311 318 l 258
 311 468 209 572 88 608 c 257
 64 614 l 257
 64 663 l 257
 88 671 l 257
 209 707 311 810 311 960 c 258
 311 1188 l 258
 311 1300 391 1386 521 1386 c 258
 686 1386 l 257
 686 1333 l 257
 509 1333 l 258
 424 1333 371 1265 371 1188 c 258
 371 960 l 258
 371 816 309 714 147 638 c 257
EndSplineSet
Position2: "SinglePositioning1 subtable" dx=0 dy=0 dh=200 dv=0
EndChar

StartChar: bar
Encoding: 124 124 92
Width: 488
GlyphClass: 2
Flags: HMW
LayerCount: 2
Fore
SplineSet
215 1331 m 257
 274 1331 l 257
 274 -435 l 257
 215 -435 l 257
 215 1331 l 257
EndSplineSet
EndChar

StartChar: braceright
Encoding: 125 125 93
Width: 792
GlyphClass: 2
Flags: HMW
LayerCount: 2
Fore
SplineSet
645 636 m 257
 481 713 421 813 421 956 c 258
 421 1187 l 258
 421 1264 368 1331 283 1331 c 258
 106 1331 l 257
 106 1386 l 257
 271 1386 l 258
 401 1386 481 1299 481 1187 c 258
 481 956 l 258
 481 806 583 702 704 666 c 257
 728 660 l 257
 728 611 l 257
 704 603 l 257
 583 567 481 464 481 314 c 258
 481 86 l 258
 481 -26 401 -112 271 -112 c 258
 106 -112 l 257
 106 -59 l 257
 283 -59 l 258
 368 -59 421 9 421 86 c 258
 421 314 l 258
 421 458 483 560 645 636 c 257
EndSplineSet
EndChar

StartChar: asciitilde
Encoding: 126 126 94
Width: 1035
GlyphClass: 2
Flags: HMW
LayerCount: 2
Fore
SplineSet
150 1153 m 257
 203 1259 271 1312 351 1312 c 256
 397 1312 446 1295 533 1246 c 256
 609 1204 648 1188 683 1188 c 256
 740 1188 788 1229 833 1315 c 257
 885 1291 l 257
 832 1185 767 1132 688 1132 c 256
 640 1132 586 1151 504 1198 c 256
 433 1239 389 1256 352 1256 c 256
 294 1256 247 1216 202 1129 c 257
 150 1153 l 257
EndSplineSet
EndChar

StartChar: sterling
Encoding: 163 163 98
Width: 1226
GlyphClass: 2
Flags: HMW
LayerCount: 2
Fore
SplineSet
647 1289 m 256
 524 1289 419 1232 419 1049 c 258
 419 271 l 258
 419 188 396 110 340 53 c 257
 1089 53 l 257
 1089 0 l 257
 139 0 l 257
 139 52 l 257
 284 52 358 122 358 271 c 258
 358 1054 l 258
 358 1249 478 1342 647 1342 c 256
 853 1342 931 1203 931 1085 c 257
 873 1085 l 257
 873 1188 803 1289 647 1289 c 256
EndSplineSet
Refer: 1196 57354 N 1 0 0 1 19 8 2
EndChar

StartChar: currency
Encoding: 164 164 99
Width: 1296
GlyphClass: 2
Flags: HMW
LayerCount: 2
Fore
SplineSet
895 100 m 257
 946 140 l 257
 1191 -142 l 257
 1141 -181 l 257
 895 100 l 257
352 140 m 257
 402 100 l 257
 157 -181 l 257
 106 -142 l 257
 352 140 l 257
946 850 m 257
 895 889 l 257
 1141 1172 l 257
 1191 1132 l 257
 946 850 l 257
402 889 m 257
 352 850 l 257
 106 1132 l 257
 157 1172 l 257
 402 889 l 257
EndSplineSet
Refer: 79 111 N 1 0 0 1 120 0 2
EndChar

StartChar: brokenbar
Encoding: 166 166 101
Width: 484
GlyphClass: 2
Flags: HMW
LayerCount: 2
Fore
SplineSet
272 863 m 257
 212 863 l 257
 212 1331 l 257
 272 1331 l 257
 272 863 l 257
272 0 m 257
 212 0 l 257
 212 467 l 257
 272 467 l 257
 272 0 l 257
EndSplineSet
EndChar

StartChar: section
Encoding: 167 167 102
Width: 922
GlyphClass: 2
Flags: HMW
LayerCount: 2
Fore
SplineSet
785 195 m 256
 785 6 626 -74 444 -74 c 256
 319 -74 198 -34 122 14 c 257
 150 63 l 257
 216 22 329 -22 444 -22 c 256
 592 -22 726 43 726 194 c 256
 726 331 600 365 460 402 c 256
 288 447 152 494 152 659 c 256
 152 795 242 880 350 916 c 257
 243 956 169 1013 169 1135 c 256
 169 1320 337 1413 488 1413 c 256
 608 1413 712 1368 785 1306 c 257
 749 1263 l 257
 684 1318 608 1359 487 1359 c 256
 361 1359 228 1287 228 1139 c 256
 228 1014 331 974 491 935 c 256
 646 897 802 857 802 671 c 256
 802 535 718 455 605 422 c 257
 705 386 785 327 785 195 c 256
488 455 m 257
 624 463 744 529 744 670 c 256
 744 807 615 844 458 883 c 257
 335 879 211 807 211 663 c 256
 211 532 324 495 488 455 c 257
EndSplineSet
EndChar

StartChar: dieresis
Encoding: 168 168 103
Width: 770
GlyphClass: 2
Flags: HMW
LayerCount: 2
Fore
SplineSet
150 1202 m 256
 150 1241 178 1272 220 1272 c 256
 262 1272 291 1241 291 1202 c 256
 291 1163 262 1131 220 1131 c 256
 178 1131 150 1163 150 1202 c 256
479 1202 m 256
 479 1241 507 1272 549 1272 c 256
 591 1272 620 1241 620 1202 c 256
 620 1163 591 1131 549 1131 c 256
 507 1131 479 1163 479 1202 c 256
EndSplineSet
EndChar

StartChar: copyright
Encoding: 169 169 104
Width: 1967
GlyphClass: 2
Flags: HMW
LayerCount: 2
Fore
SplineSet
218 775 m 256
 218 350 525 13 984 13 c 256
 1443 13 1750 350 1750 775 c 256
 1750 1200 1443 1538 984 1538 c 256
 525 1538 218 1200 218 775 c 256
159 775 m 256
 159 1221 472 1591 984 1591 c 256
 1496 1591 1809 1221 1809 775 c 256
 1809 328 1496 -40 984 -40 c 256
 472 -40 159 328 159 775 c 256
1269 1013 m 257
 1228 979 l 257
 1155 1052 1088 1090 980 1090 c 256
 798 1090 687 937 687 779 c 256
 687 621 798 470 980 470 c 256
 1088 470 1155 507 1228 580 c 257
 1269 544 l 257
 1183 458 1105 414 978 414 c 256
 764 414 633 593 633 779 c 256
 633 965 764 1145 978 1145 c 256
 1105 1145 1183 1099 1269 1013 c 257
EndSplineSet
EndChar

StartChar: ordfeminine
Encoding: 170 170 105
Width: 894
GlyphClass: 2
Flags: HMW
LayerCount: 2
Fore
SplineSet
592 1496 m 257
 592 1590 l 258
 592 1687 509 1732 406 1732 c 256
 298 1732 224 1691 224 1588 c 257
 168 1588 l 257
 168 1725 273 1782 406 1782 c 256
 534 1782 648 1722 648 1590 c 258
 648 1277 l 258
 648 1206 669 1183 744 1183 c 257
 744 1131 l 257
 661 1131 613 1160 598 1228 c 257
 552 1176 470 1121 349 1121 c 256
 228 1121 150 1185 150 1301 c 256
 150 1438 257 1496 409 1496 c 258
 592 1496 l 257
592 1444 m 257
 409 1444 l 258
 277 1444 206 1394 206 1303 c 256
 206 1209 260 1173 360 1173 c 256
 487 1173 561 1253 592 1298 c 257
 592 1444 l 257
EndSplineSet
EndChar

StartChar: guillemotleft
Encoding: 171 171 106
Width: 850
GlyphClass: 2
Flags: HMW
LayerCount: 2
Fore
SplineSet
410 623 m 256
 410 772 545 925 721 1050 c 257
 750 1009 l 257
 611 914 466 772 466 623 c 256
 466 474 611 330 750 235 c 257
 721 195 l 257
 545 320 410 474 410 623 c 256
100 623 m 256
 100 784 185 925 365 1102 c 257
 399 1065 l 257
 250 914 155 784 155 623 c 256
 155 462 250 330 399 179 c 257
 365 144 l 257
 185 321 100 462 100 623 c 256
EndSplineSet
Substitution2: "'locl' Localized Forms in Latin lookup 6 subtable" guillemotleft.alt
Position2: "SinglePositioning1 subtable" dx=0 dy=0 dh=200 dv=0
EndChar

StartChar: logicalnot
Encoding: 172 172 107
Width: 1204
GlyphClass: 2
Flags: HMW
LayerCount: 2
Fore
SplineSet
122 528 m 257
 122 587 l 257
 1013 587 l 257
 1013 274 l 257
 954 274 l 257
 954 528 l 257
 122 528 l 257
EndSplineSet
EndChar

StartChar: uni00AD
Encoding: 173 173 108
Width: 1183
GlyphClass: 2
Flags: HMW
LayerCount: 2
Fore
SplineSet
1003 587 m 257
 1003 528 l 257
 180 528 l 257
 180 587 l 257
 1003 587 l 257
EndSplineSet
EndChar

StartChar: registered
Encoding: 174 174 109
Width: 1967
GlyphClass: 2
Flags: HMW
LayerCount: 2
Fore
SplineSet
218 775 m 256
 218 350 525 13 984 13 c 256
 1443 13 1750 350 1750 775 c 256
 1750 1200 1443 1538 984 1538 c 256
 525 1538 218 1200 218 775 c 256
159 775 m 256
 159 1221 472 1591 984 1591 c 256
 1496 1591 1809 1221 1809 775 c 256
 1809 328 1496 -40 984 -40 c 256
 472 -40 159 328 159 775 c 256
1291 419 m 257
 1230 419 l 257
 1061 628 l 257
 1043 626 1025 625 1006 625 c 258
 811 625 l 257
 811 417 l 257
 756 417 l 257
 756 1127 l 257
 1006 1127 l 258
 1170 1127 1279 1020 1279 875 c 256
 1279 765 1215 677 1111 641 c 257
 1291 419 l 257
811 675 m 257
 1006 675 l 258
 1129 675 1227 755 1227 875 c 256
 1227 996 1130 1079 1006 1079 c 258
 811 1079 l 257
 811 675 l 257
EndSplineSet
EndChar

StartChar: macron
Encoding: 175 175 110
Width: 1000
GlyphClass: 2
Flags: HMW
LayerCount: 2
Fore
SplineSet
850 1191 m 257
 850 1131 l 257
 150 1131 l 257
 150 1191 l 257
 850 1191 l 257
EndSplineSet
EndChar

StartChar: degree
Encoding: 176 176 111
Width: 729
GlyphClass: 2
Flags: HMW
LayerCount: 2
Fore
SplineSet
526 1345 m 256
 526 1436 455 1509 364 1509 c 256
 273 1509 202 1436 202 1345 c 256
 202 1254 273 1183 364 1183 c 256
 455 1183 526 1254 526 1345 c 256
579 1345 m 256
 579 1226 483 1131 364 1131 c 256
 245 1131 150 1226 150 1345 c 256
 150 1464 245 1560 364 1560 c 256
 483 1560 579 1464 579 1345 c 256
EndSplineSet
EndChar

StartChar: uni00B2
Encoding: 178 178 113
Width: 571
GlyphClass: 2
Flags: HMW
LayerCount: 2
Fore
SplineSet
87 1131 m 257
 87 1184 l 257
 388 1468 l 258
 422 1500 441 1526 441 1588 c 256
 441 1685 369 1731 290 1731 c 256
 213 1731 139 1685 139 1590 c 257
 87 1590 l 257
 87 1720 192 1782 290 1782 c 256
 389 1782 493 1720 493 1588 c 256
 493 1510 462 1467 424 1432 c 258
 157 1183 l 257
 507 1183 l 257
 507 1131 l 257
 87 1131 l 257
EndSplineSet
EndChar

StartChar: uni00B3
Encoding: 179 179 114
Width: 618
GlyphClass: 2
Flags: HMW
LayerCount: 2
Fore
SplineSet
176 1619 m 257
 121 1619 l 257
 121 1722 203 1782 312 1782 c 256
 425 1782 507 1712 507 1610 c 256
 507 1551 462 1488 394 1466 c 257
 461 1446 526 1383 526 1301 c 256
 526 1181 438 1121 313 1121 c 256
 182 1121 92 1194 92 1306 c 257
 146 1306 l 257
 146 1216 217 1172 313 1172 c 256
 410 1172 471 1210 471 1303 c 256
 471 1402 396 1440 293 1440 c 258
 250 1440 l 257
 250 1492 l 257
 293 1492 l 258
 381 1492 452 1527 452 1609 c 256
 452 1688 395 1731 312 1731 c 256
 232 1731 176 1695 176 1619 c 257
EndSplineSet
EndChar

StartChar: acute
Encoding: 180 180 115
Width: 580
GlyphClass: 2
Flags: HMW
LayerCount: 2
Fore
SplineSet
347 1456 m 257
 430 1456 l 257
 223 1131 l 257
 150 1131 l 257
 347 1456 l 257
EndSplineSet
EndChar

StartChar: mu
Encoding: 181 181 116
Width: 1096
GlyphClass: 2
Flags: HMW
LayerCount: 2
Fore
SplineSet
159 990 m 257
 219 990 l 257
 219 -435 l 257
 159 -435 l 257
 159 990 l 257
EndSplineSet
Refer: 85 117 N 1 0 0 1 0 0 2
EndChar

StartChar: paragraph
Encoding: 182 182 117
Width: 1322
GlyphClass: 2
Flags: HMW
LayerCount: 2
Fore
SplineSet
1111 -477 m 257
 1050 -477 l 257
 1050 1278 l 257
 844 1278 l 257
 844 -477 l 257
 784 -477 l 257
 784 406 l 257
 544 406 l 258
 297 406 106 587 106 869 c 256
 106 1151 297 1331 544 1331 c 258
 1111 1331 l 257
 1111 -477 l 257
EndSplineSet
EndChar

StartChar: periodcentered
Encoding: 183 183 118
Width: 500
GlyphClass: 2
Flags: HMW
LayerCount: 2
Fore
SplineSet
163 666 m 256
 163 715 198 753 251 753 c 256
 304 753 339 715 339 666 c 256
 339 617 304 577 251 577 c 256
 198 577 163 617 163 666 c 256
EndSplineSet
EndChar

StartChar: cedilla
Encoding: 184 184 119
Width: 673
GlyphClass: 2
Flags: HMW
LayerCount: 2
Fore
SplineSet
523 -279 m 256
 523 -378 446 -439 322 -439 c 256
 263 -439 204 -425 150 -398 c 257
 170 -353 l 257
 209 -375 267 -388 324 -388 c 256
 418 -388 470 -351 470 -284 c 256
 470 -208 404 -161 303 -161 c 256
 292 -161 280 -162 268 -163 c 257
 268 1 l 257
 328 1 l 257
 328 -117 l 257
 450 -117 523 -179 523 -279 c 256
EndSplineSet
EndChar

StartChar: uni00B9
Encoding: 185 185 120
Width: 459
GlyphClass: 2
Flags: MW
LayerCount: 2
Fore
SplineSet
56 1555 m 257
 56 1606 l 257
 272 1606 l 257
 272 1772 l 257
 324 1772 l 257
 324 1131 l 257
 272 1131 l 257
 272 1555 l 257
 56 1555 l 257
EndSplineSet
EndChar

StartChar: guillemotright
Encoding: 187 187 122
Width: 850
GlyphClass: 2
Flags: HMW
LayerCount: 2
Fore
SplineSet
440 623 m 256
 440 474 305 320 129 195 c 257
 100 235 l 257
 239 330 385 474 385 623 c 256
 385 772 239 914 100 1009 c 257
 129 1050 l 257
 305 925 440 772 440 623 c 256
750 623 m 256
 750 462 665 321 485 144 c 257
 451 179 l 257
 600 330 695 462 695 623 c 256
 695 784 600 914 451 1065 c 257
 485 1102 l 257
 665 925 750 784 750 623 c 256
EndSplineSet
Substitution2: "'locl' Localized Forms in Latin lookup 6 subtable" guillemotright.alt
EndChar

StartChar: AE
Encoding: 198 198 133
Width: 1377
GlyphClass: 2
Flags: HMW
AnchorPoint: "down_I" 685 0 basechar 0
AnchorPoint: "up_I" 890 1331 basechar 0
LayerCount: 2
Fore
SplineSet
655 1278 m 257
 583 1278 l 257
 267 466 l 257
 655 466 l 257
 655 1278 l 257
545 1331 m 257
 1293 1331 l 257
 1293 1278 l 257
 715 1278 l 257
 715 693 l 257
 1236 693 l 257
 1236 637 l 257
 715 637 l 257
 715 52 l 257
 1293 52 l 257
 1293 0 l 257
 655 0 l 257
 655 411 l 257
 245 411 l 257
 84 0 l 257
 22 0 l 257
 545 1331 l 257
EndSplineSet
EndChar

StartChar: multiply
Encoding: 215 215 150
Width: 936
GlyphClass: 2
Flags: HMW
LayerCount: 2
Fore
SplineSet
762 921 m 257
 804 879 l 257
 511 586 l 257
 804 293 l 257
 761 251 l 257
 469 543 l 257
 175 249 l 257
 132 292 l 257
 426 586 l 257
 132 882 l 257
 173 924 l 257
 469 628 l 257
 762 921 l 257
EndSplineSet
Substitution2: "'tnum' Tabular Numbers lookup 22 subtable" multiply.tnum
EndChar

StartChar: Thorn
Encoding: 222 222 157
Width: 1099
GlyphClass: 2
Flags: HMW
LayerCount: 2
Fore
SplineSet
232 332 m 257
 632 332 l 258
 829 332 928 466 928 645 c 256
 928 824 829 954 632 954 c 258
 232 954 l 257
 232 332 l 257
232 0 m 257
 173 0 l 257
 173 1331 l 257
 232 1331 l 257
 232 1007 l 257
 632 1007 l 258
 852 1007 988 860 988 645 c 256
 988 430 853 281 632 281 c 258
 232 281 l 257
 232 0 l 257
EndSplineSet
EndChar

StartChar: germandbls
Encoding: 223 223 158
Width: 1217
GlyphClass: 2
Flags: HMW
LayerCount: 2
Fore
SplineSet
474 0 m 257
 482 52 l 257
 538 46 597 42 651 42 c 256
 877 42 1029 124 1029 248 c 256
 1029 369 948 434 860 492 c 256
 769 552 672 634 672 751 c 256
 672 836 715 902 768 962 c 256
 831 1033 869 1108 869 1230 c 256
 869 1384 780 1524 568 1524 c 256
 352 1524 262 1387 262 1190 c 258
 262 0 l 257
 203 0 l 257
 203 1190 l 258
 203 1396 298 1578 568 1578 c 256
 831 1578 934 1398 934 1235 c 256
 934 1112 897 1027 829 950 c 256
 764 879 724 831 724 757 c 256
 724 653 810 592 904 530 c 256
 995 471 1089 387 1089 248 c 256
 1089 71 871 -11 628 -11 c 256
 577 -11 525 -8 474 0 c 257
EndSplineSet
EndChar

StartChar: ae
Encoding: 230 230 165
Width: 1744
GlyphClass: 2
Flags: HMW
AnchorPoint: "down_I" 813 -11 basechar 0
AnchorPoint: "up_I" 853 1000 basechar 0
LayerCount: 2
Fore
SplineSet
793 249 m 257
 793 715 l 258
 793 875 661 947 499 947 c 256
 337 947 204 875 204 715 c 257
 145 715 l 257
 145 908 304 999 499 999 c 256
 694 999 853 908 853 715 c 258
 853 249 l 257
 793 249 l 257
117 258 m 256
 117 468 272 543 482 543 c 258
 852 543 l 257
 852 490 l 257
 482 490 l 258
 302 490 178 425 178 262 c 256
 178 126 244 42 422 42 c 256
 630 42 775 217 807 272 c 257
 840 251 l 257
 805 177 638 -11 405 -11 c 256
 232 -11 117 82 117 258 c 256
EndSplineSet
Refer: 69 101 N 1 0 0 1 702 0 2
Substitution2: "'c2sc' Capitals to Small Capitals in Latin lookup 0 subtable" uni1D01
Substitution2: "'smcp' Lowercase to Small Capitals in Latin lookup 0 subtable" uni1D01
EndChar

StartChar: eth
Encoding: 240 240 175
Width: 1073
GlyphClass: 2
Flags: HMW
LayerCount: 2
Fore
SplineSet
537 947 m 256
 270 947 155 750 155 495 c 256
 155 240 270 42 537 42 c 256
 804 42 918 240 918 495 c 256
 918 750 804 947 537 947 c 256
537 999 m 256
 687.372426292 999 809.927734375 941.4375 890 782 c 1
 899 786 l 257
 825 979 689 1162 559 1273 c 257
 355 1104 l 257
 322 1145 l 257
 520 1305 l 257
 464 1353 390 1390 329 1418 c 257
 352 1465 l 257
 408 1439 487 1399 565 1339 c 257
 741 1482 l 257
 772 1443 l 257
 597 1308 l 257
 828 1108 978 779 978 502 c 256
 978 186 820 -11 537 -11 c 256
 254 -11 95 184 95 495 c 256
 95 806 254 999 537 999 c 256
EndSplineSet
EndChar

StartChar: dotlessi
Encoding: 305 305 240
Width: 463
GlyphClass: 2
Flags: MW
AnchorPoint: "down_II" 232 0 basechar 0
AnchorPoint: "down_I" 232 0 basechar 0
AnchorPoint: "up_I" 232 990 basechar 0
LayerCount: 2
Fore
SplineSet
202 990 m 257
 262 990 l 257
 262 0 l 257
 202 0 l 257
 202 990 l 257
EndSplineSet
EndChar

StartChar: Eng
Encoding: 330 330 265
Width: 1354
GlyphClass: 2
Flags: HMW
LayerCount: 2
Fore
SplineSet
275 1331 m 257
 335 1331 l 257
 335 0 l 257
 275 0 l 257
 275 1331 l 257
792 1342 m 256
 1082 1342 1237 1170 1237 873 c 258
 1237 222 l 258
 1237 58 1135 -11 989 -11 c 256
 947 -11 905 -5 867 5 c 257
 879 54 l 257
 903 49 947 42 990 42 c 256
 1114 42 1178 100 1178 227 c 258
 1178 873 l 258
 1178 1141 1038 1292 787 1292 c 256
 536 1292 385 1101 335 833 c 257
 294 833 l 257
 344 1130 512 1342 792 1342 c 256
EndSplineSet
EndChar

StartChar: eng
Encoding: 331 331 266
Width: 1096
GlyphClass: 2
Flags: HMW
LayerCount: 2
Fore
SplineSet
876 10 m 257
 936 10 l 257
 936 -252 l 258
 936 -416 825 -487 679 -487 c 256
 605 -487 546 -465 513 -436 c 257
 543 -394 l 257
 566 -416 615 -433 679 -433 c 256
 803 -433 876 -376 876 -249 c 258
 876 10 l 257
EndSplineSet
Refer: 78 110 N 1 0 0 1 0 0 2
EndChar

StartChar: OE
Encoding: 338 338 273
Width: 1589
GlyphClass: 2
Flags: HMW
LayerCount: 2
Fore
SplineSet
883 1278 m 257
 754 1278 l 258
 410 1278 254 1008 254 665 c 256
 254 321 410 52 754 52 c 258
 883 52 l 257
 883 1278 l 257
942 1278 m 257
 942 693 l 257
 1465 693 l 257
 1465 637 l 257
 942 637 l 257
 942 52 l 257
 1521 52 l 257
 1521 0 l 257
 754 0 l 258
 390 0 193 269 193 665 c 256
 193 1061 390 1331 754 1331 c 258
 1521 1331 l 257
 1521 1278 l 257
 942 1278 l 257
EndSplineSet
EndChar

StartChar: longs
Encoding: 383 383 318
Width: 718
GlyphClass: 2
Flags: HMW
AnchorPoint: "up_I" 542 1411 basechar 0
AnchorPoint: "down_I" 315 0 basechar 0
LayerCount: 2
Fore
SplineSet
708 1360 m 257
 678 1318 l 257
 655 1340 606 1357 542 1357 c 256
 418 1357 345 1300 345 1173 c 258
 345 0 l 257
 285 0 l 257
 285 1176 l 258
 285 1340 396 1411 542 1411 c 256
 616 1411 675 1389 708 1360 c 257
EndSplineSet
Refer: 1208 57366 N 1 0 0 1 0 0 2
EndChar

StartChar: uni018F
Encoding: 399 399 321
Width: 1339
GlyphClass: 2
Flags: HMW
LayerCount: 2
Fore
SplineSet
1182 598 m 257
 144 598 l 257
 142 297 330 42 663 42 c 256
 981 42 1182 280 1182 598 c 257
1184 655 m 257
 1184 1050 992 1289 651 1289 c 256
 409 1289 233 1156 167 976 c 257
 113 996 l 257
 196 1216 385 1342 650 1342 c 256
 1021 1342 1244 1093 1244 663 c 256
 1244 229 1022 -11 663 -11 c 256
 261 -11 73 295 84 655 c 257
 1184 655 l 257
EndSplineSet
EndChar

StartChar: uni01B7
Encoding: 439 439 326
Width: 1244
GlyphClass: 2
Flags: HMW
LayerCount: 2
Fore
SplineSet
586 -487 m 256
 348 -487 182 -388 97 -231 c 257
 146 -198 l 257
 229 -349 383 -434 588 -434 c 256
 927 -434 1089 -243 1089 72 c 256
 1089 378 865 570 543 580 c 257
 515 633 l 257
 1025 1281 l 257
 80 1281 l 257
 80 1331 l 257
 1076 1331 l 257
 1076 1253 l 257
 586 630 l 257
 902 604 1149 413 1149 72 c 256
 1149 -296 946 -487 586 -487 c 256
EndSplineSet
EndChar

StartChar: uni0237
Encoding: 567 567 426
Width: 432
GlyphClass: 2
Flags: HMW
AnchorPoint: "down_I" -15 -487 basechar 0
AnchorPoint: "up_I" 213 990 basechar 0
LayerCount: 2
Fore
SplineSet
-137 -471 m 257
 -125 -422 l 257
 -101 -427 -57 -433 -14 -433 c 256
 110 -433 182 -376 182 -249 c 258
 182 990 l 257
 243 990 l 257
 243 -253 l 258
 243 -417 131 -487 -15 -487 c 256
 -57 -487 -99 -481 -137 -471 c 257
EndSplineSet
EndChar

StartChar: uni0239
Encoding: 569 569 428
Width: 1728
GlyphClass: 2
Flags: HMW
LayerCount: 2
Fore
SplineSet
834 990 m 257
 894 990 l 257
 894 -477 l 257
 834 -477 l 257
 834 990 l 257
EndSplineSet
Refer: 1201 57359 N 1 0 0 1 619 0 2
Refer: 1213 57372 N 1 0 0 1 -150 0 2
EndChar

StartChar: uni0240
Encoding: 576 576 429
Width: 868
GlyphClass: 2
Flags: HMW
LayerCount: 2
Fore
SplineSet
777 -280 m 256
 664 -280 575 -217 499 -149 c 256
 408 -68 313 0 53 0 c 257
 53 74 l 257
 767 936 l 257
 53 936 l 257
 53 990 l 257
 816 990 l 257
 816 917 l 257
 100 53 l 257
 341 53 435 -17 523 -98 c 256
 595 -164 680 -227 777 -227 c 256
 866 -227 894 -206 942 -139 c 257
 983 -169 l 257
 929 -244 876 -280 777 -280 c 256
EndSplineSet
EndChar

StartChar: uni0255
Encoding: 597 597 432
Width: 1083
GlyphClass: 2
Flags: HMW
LayerCount: 2
Fore
SplineSet
581 42 m 256
 742 42 914 137 914 296 c 256
 914 394 844 466 734 466 c 256
 544 466 414 314 138 -62 c 257
 100 -34 l 257
 379 364 518 520 732 520 c 256
 874 520 967 434 967 294 c 256
 967 114 779 -11 579 -11 c 256
 304 -11 122 157 122 495 c 256
 122 833 304 999 564 999 c 256
 764 999 905 902 967 730 c 257
 914 709 l 257
 863 856 742 947 564 947 c 256
 339 947 182 804 182 495 c 256
 182 186 339 42 581 42 c 256
EndSplineSet
EndChar

StartChar: uni0262
Encoding: 610 610 434
Width: 1029
GlyphClass: 2
Flags: HMW
LayerCount: 2
Fore
SplineSet
153 490 m 256
 153 200 300 45 564 45 c 256
 691 45 792 85 869 163 c 257
 869 430 l 257
 533 430 l 257
 533 486 l 257
 929 486 l 257
 929 143 l 257
 835 40 718 -11 565 -11 c 256
 265 -11 93 169 93 490 c 256
 93 803 266 1001 530 1001 c 256
 693 1001 847 903 903 754 c 257
 849 734 l 257
 802 862 669 945 528 945 c 256
 301 945 153 770 153 490 c 256
EndSplineSet
EndChar

StartChar: uni0274
Encoding: 628 628 437
Width: 1091
GlyphClass: 2
Flags: HMW
LayerCount: 2
Fore
SplineSet
856 990 m 257
 916 990 l 257
 916 0 l 257
 821 0 l 257
 234 941 l 257
 234 0 l 257
 175 0 l 257
 175 990 l 257
 270 990 l 257
 856 48 l 257
 856 990 l 257
EndSplineSet
EndChar

StartChar: uni0280
Encoding: 640 640 438
Width: 1026
GlyphClass: 2
Flags: HMW
LayerCount: 2
Fore
SplineSet
235 435 m 257
 495 435 l 258
 692 435 791 507 791 686 c 256
 791 865 692 937 495 937 c 258
 235 937 l 257
 235 435 l 257
235 383 m 257
 235 0 l 257
 175 0 l 257
 175 990 l 257
 495 990 l 258
 715 990 850 901 850 686 c 256
 850 471 716 383 495 383 c 258
 235 383 l 257
601 419 m 257
 660 419 l 257
 926 0 l 257
 858 0 l 257
 601 419 l 257
EndSplineSet
EndChar

StartChar: uni0283
Encoding: 643 643 439
Width: 806
GlyphClass: 2
Flags: HMW
LayerCount: 2
Fore
SplineSet
796 1360 m 257
 766 1318 l 257
 743 1340 694 1357 630 1357 c 256
 506 1357 433 1300 433 1173 c 258
 433 -252 l 258
 433 -416 322 -487 176 -487 c 256
 102 -487 43 -465 10 -436 c 257
 40 -394 l 257
 63 -416 112 -433 176 -433 c 256
 300 -433 373 -376 373 -249 c 258
 373 1176 l 258
 373 1340 484 1411 630 1411 c 256
 704 1411 763 1389 796 1360 c 257
EndSplineSet
EndChar

StartChar: uni028F
Encoding: 655 655 440
Width: 827
GlyphClass: 2
Flags: HMW
LayerCount: 2
Fore
SplineSet
755 990 m 257
 822 990 l 257
 442 426 l 257
 442 0 l 257
 382 0 l 257
 382 426 l 257
 4 990 l 257
 72 990 l 257
 412 483 l 257
 755 990 l 257
EndSplineSet
EndChar

StartChar: uni0291
Encoding: 657 657 441
Width: 1272
GlyphClass: 2
Flags: HMW
LayerCount: 2
Fore
SplineSet
816 53 m 258
 100 53 l 257
 816 917 l 257
 816 990 l 257
 53 990 l 257
 53 936 l 257
 767 936 l 257
 53 74 l 257
 53 0 l 257
 816 0 l 258
 1014 0 1202 125 1202 305 c 256
 1202 445 1109 531 967 531 c 256
 753 531 603 379 242 -159 c 257
 280 -187 l 257
 638 329 779 477 969 477 c 256
 1079 477 1149 405 1149 307 c 256
 1149 148 977 53 816 53 c 258
EndSplineSet
EndChar

StartChar: uni0292
Encoding: 658 658 442
Width: 1057
GlyphClass: 2
Flags: HMW
LayerCount: 2
Fore
SplineSet
498 -487 m 256
 298 -487 157 -392 95 -215 c 257
 148 -194 l 257
 199 -341 320 -434 498 -434 c 256
 723 -434 880 -306 880 -37 c 256
 880 272 663 359 438 359 c 257
 409 402 l 257
 852 937 l 257
 138 937 l 257
 138 990 l 257
 901 990 l 257
 901 917 l 257
 481 410 l 257
 724 398 940 282 940 -37 c 256
 940 -335 758 -487 498 -487 c 256
EndSplineSet
EndChar

StartChar: uni0293
Encoding: 659 659 443
Width: 1057
GlyphClass: 2
Flags: HMW
LayerCount: 2
Fore
SplineSet
138 936 m 257
 138 990 l 257
 901 990 l 257
 901 917 l 257
 481 410 l 257
 724 398 940 282 940 -37 c 256
 940 -335 758 -487 498 -487 c 256
 298 -487 110 -362 110 -182 c 256
 110 -42 203 44 345 44 c 256
 559 44 698 -112 977 -510 c 257
 939 -538 l 257
 663 -162 533 -10 343 -10 c 256
 233 -10 163 -82 163 -180 c 256
 163 -339 335 -434 496 -434 c 256
 721 -434 880 -306 880 -37 c 256
 880 272 663 359 438 359 c 257
 409 402 l 257
 852 936 l 257
 138 936 l 257
EndSplineSet
EndChar

StartChar: uni0299
Encoding: 665 665 444
Width: 947
GlyphClass: 2
Flags: HMW
LayerCount: 2
Fore
SplineSet
175 990 m 257
 532 990 l 258
 696 990 811 896 811 736 c 256
 811 626 757 546 670 507 c 257
 784 476 857 385 857 257 c 256
 857 97 742 0 578 0 c 258
 175 0 l 257
 175 990 l 257
240 938 m 257
 240 523 l 257
 521 523 l 258
 668 523 746 599 746 732 c 256
 746 865 668 938 521 938 c 258
 240 938 l 257
240 466 m 257
 240 52 l 257
 566 52 l 258
 713 52 791 124 791 257 c 256
 791 390 713 466 566 466 c 258
 240 466 l 257
EndSplineSet
EndChar

StartChar: uni029C
Encoding: 668 668 445
Width: 1089
GlyphClass: 2
Flags: HMW
LayerCount: 2
Fore
SplineSet
854 990 m 257
 914 990 l 257
 914 0 l 257
 854 0 l 257
 854 466 l 257
 234 466 l 257
 234 0 l 257
 175 0 l 257
 175 990 l 257
 234 990 l 257
 234 525 l 257
 854 525 l 257
 854 990 l 257
EndSplineSet
EndChar

StartChar: uni029F
Encoding: 671 671 447
Width: 910
GlyphClass: 2
Flags: HMW
LayerCount: 2
Fore
SplineSet
228 990 m 257
 287 990 l 257
 287 52 l 257
 847 52 l 257
 847 0 l 257
 228 0 l 257
 228 990 l 257
EndSplineSet
EndChar

StartChar: uni02C2
Encoding: 706 706 457
Width: 672
GlyphClass: 2
Flags: HMW
LayerCount: 2
Fore
SplineSet
238 717 m 257
 522 433 l 257
 478 389 l 257
 150 717 l 257
 478 1045 l 257
 522 1001 l 257
 238 717 l 257
EndSplineSet
EndChar

StartChar: uni02C3
Encoding: 707 707 458
Width: 672
GlyphClass: 2
Flags: HMW
LayerCount: 2
Fore
SplineSet
434 717 m 257
 150 1001 l 257
 194 1045 l 257
 522 717 l 257
 194 389 l 257
 150 433 l 257
 434 717 l 257
EndSplineSet
EndChar

StartChar: uni02C4
Encoding: 708 708 459
Width: 956
GlyphClass: 2
Flags: HMW
LayerCount: 2
Fore
SplineSet
478 815 m 257
 194 531 l 257
 150 575 l 257
 478 903 l 257
 806 575 l 257
 762 531 l 257
 478 815 l 257
EndSplineSet
EndChar

StartChar: uni02C5
Encoding: 709 709 460
Width: 956
GlyphClass: 2
Flags: HMW
LayerCount: 2
Fore
SplineSet
478 619 m 257
 762 903 l 257
 806 859 l 257
 478 531 l 257
 150 859 l 257
 194 903 l 257
 478 619 l 257
EndSplineSet
EndChar

StartChar: circumflex
Encoding: 710 710 461
Width: 788
GlyphClass: 2
Flags: HMW
LayerCount: 2
Fore
SplineSet
638 1131 m 257
 565 1131 l 257
 394 1399 l 257
 222 1131 l 257
 150 1131 l 257
 358 1456 l 257
 430 1456 l 257
 638 1131 l 257
EndSplineSet
EndChar

StartChar: caron
Encoding: 711 711 462
Width: 788
GlyphClass: 2
Flags: HMW
LayerCount: 2
Fore
SplineSet
150 1456 m 257
 223 1456 l 257
 394 1188 l 257
 566 1456 l 257
 638 1456 l 257
 430 1131 l 257
 358 1131 l 257
 150 1456 l 257
EndSplineSet
EndChar

StartChar: uni02D2
Encoding: 722 722 463
Width: 546
GlyphClass: 2
Flags: HMW
LayerCount: 2
Fore
SplineSet
150 1180 m 257
 272 1180 346 1269 346 1377 c 256
 346 1485 272 1574 151 1574 c 257
 151 1623 l 257
 297 1623 396 1513 396 1377 c 256
 396 1241 298 1131 150 1131 c 257
 150 1180 l 257
EndSplineSet
EndChar

StartChar: uni02D3
Encoding: 723 723 464
Width: 546
GlyphClass: 2
Flags: HMW
LayerCount: 2
Fore
SplineSet
396 1574 m 257
 274 1574 200 1485 200 1377 c 256
 200 1269 274 1180 395 1180 c 257
 395 1131 l 257
 249 1131 150 1241 150 1377 c 256
 150 1513 248 1623 396 1623 c 257
 396 1574 l 257
EndSplineSet
EndChar

StartChar: breve
Encoding: 728 728 465
Width: 922
GlyphClass: 2
Flags: HMW
LayerCount: 2
Fore
SplineSet
772 1440 m 257
 772 1247 651 1131 461 1131 c 256
 271 1131 150 1247 150 1440 c 257
 210 1440 l 257
 210 1282 302 1189 461 1189 c 256
 620 1189 712 1282 712 1440 c 257
 772 1440 l 257
EndSplineSet
EndChar

StartChar: dotaccent
Encoding: 729 729 466
Width: 542
GlyphClass: 2
Flags: HMW
LayerCount: 2
Fore
SplineSet
150 1251 m 256
 150 1318 204 1373 271 1373 c 256
 338 1373 392 1318 392 1251 c 256
 392 1184 338 1131 271 1131 c 256
 204 1131 150 1184 150 1251 c 256
EndSplineSet
EndChar

StartChar: ring
Encoding: 730 730 467
Width: 791
GlyphClass: 2
Flags: HMW
LayerCount: 2
Fore
SplineSet
395 1509 m 256
 304 1509 233 1436 233 1345 c 256
 233 1254 304 1183 395 1183 c 256
 486 1183 557 1254 557 1345 c 256
 557 1436 486 1509 395 1509 c 256
395 1560 m 256
 514 1560 610 1464 610 1345 c 256
 610 1226 514 1131 395 1131 c 256
 276 1131 181 1226 181 1345 c 256
 181 1464 276 1560 395 1560 c 256
EndSplineSet
EndChar

StartChar: ogonek
Encoding: 731 731 468
Width: 724
GlyphClass: 2
Flags: HMW
LayerCount: 2
Fore
SplineSet
502 -388 m 257
 519 -438 l 257
 456 -466 397 -477 346 -477 c 0
 224 -477 143 -405 143 -300 c 0
 143 -256 158 -205 189 -152 c 258
 276 0 l 257
 276 12 l 257
 333 2 l 257
 335 0 l 257
 235 -185 l 258
 212 -225 201 -261 201 -293 c 0
 201 -369 263 -419 358 -419 c 0
 400 -419 449 -409 502 -388 c 257
EndSplineSet
EndChar

StartChar: uni0305
Encoding: 773 773 476
Width: 0
GlyphClass: 4
Flags: HMW
AnchorPoint: "up_I" 0 886 mark 0
AnchorPoint: "mkmk" 0 886 mark 0
AnchorPoint: "mkmk" 0 1191 basemark 0
LayerCount: 2
Fore
SplineSet
400 1191 m 257
 400 1131 l 257
 -400 1131 l 257
 -400 1191 l 257
 400 1191 l 257
EndSplineSet
EndChar

StartChar: uni0311
Encoding: 785 785 487
Width: 0
GlyphClass: 4
Flags: HMW
AnchorPoint: "up_I" 0 886 mark 0
AnchorPoint: "mkmk" 0 886 mark 0
AnchorPoint: "mkmk" 0 1440 basemark 0
LayerCount: 2
Fore
SplineSet
-311 1131 m 257
 -311 1324 -190 1440 0 1440 c 256
 190 1440 311 1324 311 1131 c 257
 251 1131 l 257
 251 1289 159 1382 0 1382 c 256
 -159 1382 -251 1289 -251 1131 c 257
 -311 1131 l 257
EndSplineSet
EndChar

StartChar: uni031B
Encoding: 795 795 488
Width: 0
GlyphClass: 4
Flags: HMW
AnchorPoint: "up_II" -164 1131 mark 0
LayerCount: 2
Fore
SplineSet
127 1496 m 257
 152 1417 163 1362 163 1296 c 256
 163 1201 117 1131 -40 1131 c 258
 -164 1131 l 257
 -164 1184 l 257
 -30 1184 l 258
 72 1184 106 1230 106 1297 c 256
 106 1349 96 1397 72 1476 c 257
 127 1496 l 257
EndSplineSet
EndChar

StartChar: uni0600
Encoding: 1536 1536 491
Width: 2300
GlyphClass: 2
Flags: HMW
LayerCount: 2
Fore
SplineSet
1939 60 m 1
 1921 79 1910 114 1910 148 c 0
 1910 225 1967 298 2104 397 c 1
 2139 349 l 1
 2010 259 1966 209 1966 153 c 0
 1966 95 2015 55 2110 34 c 2
 2210 12 l 1
 2192 -47 l 1
 2064 -11 2012 0 1967 0 c 2
 90 0 l 1
 90 60 l 1
 1939 60 l 1
EndSplineSet
EndChar

StartChar: uni0601
Encoding: 1537 1537 492
Width: 2300
GlyphClass: 2
Flags: HMW
LayerCount: 2
Fore
SplineSet
149 133 m 1
 199 160 l 1
 241 79 261 60 300 60 c 0
 336 60 356 80 383 146 c 0
 438 279 474 318 541 318 c 0
 593 318 635 282 709 174 c 0
 762 96 819 60 888 60 c 0
 948 60 993 107 1052 229 c 1
 1093 235 l 1
 1185 127 1342 60 1501 60 c 0
 1617 60 1729 102 1872 200 c 0
 1968 265 2000 280 2048 280 c 0
 2108 280 2151 237 2151 175 c 0
 2151 115 2120 54 2057 -10 c 1
 2018 28 l 1
 2064 75 2087 119 2087 160 c 0
 2087 193 2069 213 2039 213 c 0
 2005 213 1983 203 1903 149 c 0
 1749 46 1625 0 1501 0 c 0
 1341 0 1194 57 1083 162 c 1
 1020 45 966 0 887 0 c 0
 796 0 716 50 656 144 c 0
 601 229 574 256 540 256 c 0
 498 256 474 227 435 129 c 0
 397 34 361 0 299 0 c 0
 235 0 203 29 149 133 c 1
EndSplineSet
EndChar

StartChar: uni0603
Encoding: 1539 1539 493
Width: 2300
GlyphClass: 2
Flags: HMW
LayerCount: 2
Fore
SplineSet
1216 0 m 1
 87 0 l 1
 87 60 l 1
 1216 60 l 1
 1383 60 1503 138 1550 343 c 1
 1609 330 l 1
 1558 106 1431 0 1216 0 c 1
2156 200 m 0
 2156 272 2107 324 2027 324 c 0
 1949 324 1844 263 1730 93 c 1
 1683 116 l 1
 1808 302 1934 384 2031 384 c 0
 2145 384 2213 303 2213 199 c 0
 2213 43 2081 -4 1928 -4 c 0
 1738 -4 1613 67 1517 188 c 1
 1561 230 l 1
 1650 122 1764 54 1934 54 c 0
 2049 54 2156 83 2156 200 c 0
EndSplineSet
EndChar

StartChar: uni0604
Encoding: 1540 1540 494
Width: 2300
GlyphClass: 2
Flags: HMW
LayerCount: 2
Fore
SplineSet
1418 -142 m 1
 1265 -56 1002 0 751 0 c 2
 67 0 l 1
 67 60 l 1
 745 60 l 2
 926 60 1061 41 1184 -1 c 1
 1154 31 1138 73 1138 120 c 0
 1138 245 1237 353 1351 353 c 0
 1427 353 1479 323 1551 236 c 0
 1623 149 1674 120 1755 120 c 0
 1847 120 1892 166 1892 263 c 2
 1892 374 l 1
 1948 374 l 1
 1948 263 l 2
 1948 166 1986 120 2065 120 c 0
 2138 120 2174 162 2174 249 c 0
 2174 292 2166 357 2156 405 c 1
 2214 418 l 1
 2226 365 2233 301 2233 248 c 0
 2233 122 2179 60 2070 60 c 0
 1986 60 1940 93 1920 168 c 1
 1900 92 1853 60 1760 60 c 0
 1666 60 1601 96 1517 192 c 0
 1452 268 1412 292 1355 292 c 0
 1264 292 1199 220 1199 119 c 0
 1199 49 1251 -1 1383 -61 c 0
 1403 -70 1424 -79 1445 -88 c 1
 1418 -142 l 1
EndSplineSet
EndChar

StartChar: uni060C
Encoding: 1548 1548 498
Width: 622
GlyphClass: 2
Flags: HMW
LayerCount: 2
Fore
SplineSet
267 194 m 257
 359 218 422 188 422 100 c 256
 422 32 385 -11 318 -11 c 256
 242 -11 200 48 200 165 c 256
 200 328 256 449 370 562 c 257
 414 514 l 257
 317 421 267 314 267 194 c 257
EndSplineSet
EndChar

StartChar: uni060D
Encoding: 1549 1549 499
Width: 875
GlyphClass: 2
Flags: HMW
LayerCount: 2
Fore
SplineSet
227 -667 m 257
 161 -667 l 257
 651 583 l 257
 717 583 l 257
 227 -667 l 257
EndSplineSet
EndChar

StartChar: uni060E
Encoding: 1550 1550 500
Width: 2206
GlyphClass: 2
Flags: HMW
LayerCount: 2
Fore
SplineSet
936 415 m 256
 936 284 865 149 765 9 c 257
 717 43 l 257
 815 179 876 306 876 415 c 256
 876 592 740 718 545 718 c 256
 377 718 194 576 194 351 c 256
 194 140 385 58 619 58 c 258
 2071 58 l 257
 2071 0 l 257
 615 0 l 258
 329 0 135 121 135 351 c 256
 135 606 338 777 545 777 c 256
 774 777 936 624 936 415 c 256
EndSplineSet
EndChar

StartChar: uni060F
Encoding: 1551 1551 501
Width: 1500
GlyphClass: 2
Flags: HMW
LayerCount: 2
Fore
SplineSet
815 -742 m 256
 478 -742 135 -603 135 -263 c 256
 135 13 353 265 666 356 c 257
 421 356 216 475 216 705 c 256
 216 960 419 1131 626 1131 c 256
 777 1131 878 1062 943 988 c 257
 891 943 l 257
 835 1010 761 1072 626 1072 c 256
 458 1072 275 930 275 705 c 256
 275 494 463 413 726 413 c 256
 816 413 951 431 1018 441 c 257
 1025 376 l 257
 626 346 194 147 194 -273 c 256
 194 -569 524 -684 821 -684 c 256
 1042 -684 1304 -616 1304 -389 c 256
 1304 -243 1208 -138 1048 -138 c 256
 901 -138 708 -244 450 -631 c 257
 289 -869 l 257
 236 -833 l 257
 395 -603 l 257
 658 -205 875 -77 1048 -77 c 256
 1252 -77 1365 -214 1365 -388 c 256
 1365 -653 1077 -742 815 -742 c 256
EndSplineSet
EndChar

StartChar: uni061C
Encoding: 1564 1564 504
Width: 2233
GlyphClass: 2
Flags: HMW
LayerCount: 2
Fore
SplineSet
772 1083 m 257
 1005 1083 l 257
 1005 1048 l 257
 772 1048 l 257
 772 1083 l 257
1238 1083 m 257
 1471 1083 l 257
 1471 1048 l 257
 1238 1048 l 257
 1238 1083 l 257
1996 1048 m 257
 1704 1048 l 257
 1704 1083 l 257
 2033 1083 l 257
 2033 775 l 257
 1996 775 l 257
 1996 1048 l 257
200 1083 m 257
 539 1083 l 257
 539 1048 l 257
 237 1048 l 257
 237 775 l 257
 200 775 l 257
 200 1083 l 257
1471 -280 m 257
 1238 -280 l 257
 1238 -243 l 257
 1471 -243 l 257
 1471 -280 l 257
200 -280 m 257
 539 -280 l 257
 539 -243 l 257
 237 -243 l 257
 237 29 l 257
 200 29 l 257
 200 -280 l 257
1996 -243 m 257
 1704 -243 l 257
 1704 -280 l 257
 2033 -280 l 257
 2033 29 l 257
 1996 29 l 257
 1996 -243 l 257
1005 -280 m 257
 772 -280 l 257
 772 -243 l 257
 1005 -243 l 257
 1005 -280 l 257
1996 262 m 257
 1996 542 l 257
 2033 542 l 257
 2033 262 l 257
 1996 262 l 257
237 542 m 257
 237 262 l 257
 200 262 l 257
 200 542 l 257
 237 542 l 257
EndSplineSet
Refer: 814 7437 N 0.5 0 0 0.5 1176 146 2
Refer: 807 7424 N 0.5 0 0 0.5 386 146 2
Refer: 447 671 N 0.5 0 0 0.5 766 146 2
EndChar

StartChar: uni061F
Encoding: 1567 1567 506
Width: 1055
GlyphClass: 2
Flags: HMW
LayerCount: 2
Fore
SplineSet
590 378 m 257
 525 378 l 257
 525 528 437 607 349 684 c 256
 263 759 179 836 179 977 c 256
 179 1138 305 1299 542 1299 c 256
 741 1299 875 1185 875 1012 c 256
 875 1004 875 996 874 988 c 257
 813 988 l 257
 814 996 814 1004 814 1011 c 256
 814 1158 692 1244 539 1244 c 256
 358 1244 245 1124 245 976 c 256
 245 861 320 794 399 725 c 256
 492 644 590 556 590 378 c 257
640 78 m 256
 640 29 605 -11 552 -11 c 256
 499 -11 464 29 464 78 c 256
 464 127 499 165 552 165 c 256
 605 165 640 127 640 78 c 256
EndSplineSet
EndChar

StartChar: uni0660
Encoding: 1632 1632 571
Width: 622
GlyphClass: 2
Flags: HMW
LayerCount: 2
Fore
SplineSet
310 610 m 257
 472 449 l 257
 310 287 l 257
 150 449 l 257
 310 610 l 257
EndSplineSet
Substitution2: "'tnum' Tabular Numbers lookup 22 subtable" uni0660.tnum
Substitution2: "Single Substitution lookup 178 subtable" uni0660.EoA
EndChar

StartChar: uni0661
Encoding: 1633 1633 572
Width: 617
GlyphClass: 2
Flags: HMW
LayerCount: 2
Fore
SplineSet
458 0 m 257
 398 0 l 257
 398 499 347 866 158 1311 c 257
 220 1342 l 257
 405 892 458 505 458 0 c 257
EndSplineSet
Substitution2: "'tnum' Tabular Numbers lookup 22 subtable" uni0661.tnum
Substitution2: "Single Substitution lookup 178 subtable" uni0661.EoA
EndChar

StartChar: uni0662
Encoding: 1634 1634 573
Width: 1104
GlyphClass: 2
Flags: HMW
LayerCount: 2
Fore
SplineSet
592 839 m 256
 810 839 871 988 890 1234 c 258
 896 1326 l 257
 956 1322 l 257
 937 1053 912 779 588 779 c 256
 493 779 413 816 356 886 c 257
 424 608 448 329 448 0 c 257
 388 0 l 257
 388 499 337 866 148 1311 c 257
 210 1342 l 257
 252 1233 l 258
 362 951 427 839 592 839 c 256
EndSplineSet
Substitution2: "'tnum' Tabular Numbers lookup 22 subtable" uni0662.tnum
Substitution2: "Single Substitution lookup 178 subtable" uni0662.EoA
EndChar

StartChar: uni0663
Encoding: 1635 1635 574
Width: 1474
GlyphClass: 2
Flags: HMW
LayerCount: 2
Fore
SplineSet
809 1011 m 257
 785 875 711 779 582 779 c 256
 481 779 431 818 376 889 c 257
 368 883 l 257
 436 605 464 329 464 0 c 257
 404 0 l 257
 404 499 353 866 164 1311 c 257
 225 1342 l 257
 266 1235 l 258
 376 951 442 839 584 839 c 256
 706 839 765 933 786 1090 c 256
 795 1156 802 1228 806 1319 c 257
 870 1314 l 257
 860 1234 851 1147 851 1085 c 256
 851 933 908 839 1062 839 c 256
 1214 839 1256 945 1256 1089 c 256
 1256 1165 1250 1250 1237 1335 c 257
 1292 1344 l 257
 1303 1258 1310 1181 1310 1113 c 256
 1310 900 1245 779 1052 779 c 256
 921 779 819 869 819 1011 c 257
 809 1011 l 257
EndSplineSet
Substitution2: "'tnum' Tabular Numbers lookup 22 subtable" uni0663.tnum
Substitution2: "Single Substitution lookup 178 subtable" uni0663.EoA
EndChar

StartChar: uni0664
Encoding: 1636 1636 575
Width: 1021
GlyphClass: 2
Flags: HMW
LayerCount: 2
Fore
SplineSet
560 666 m 257
 377 704 244 789 244 947 c 256
 244 1127 457 1312 728 1342 c 257
 740 1284 l 257
 469 1253 302 1089 302 947 c 256
 302 796 489 701 736 701 c 257
 736 639 l 257
 453 639 234 441 234 265 c 256
 234 80 412 63 598 63 c 258
 846 63 l 257
 846 0 l 257
 564 0 l 258
 390 0 174 32 174 264 c 256
 174 424 311 593 560 666 c 257
EndSplineSet
Substitution2: "'tnum' Tabular Numbers lookup 22 subtable" uni0664.tnum
Substitution2: "Single Substitution lookup 178 subtable" uni0664.EoA
EndChar

StartChar: uni0665
Encoding: 1637 1637 576
Width: 1295
GlyphClass: 2
Flags: HMW
LayerCount: 2
Fore
SplineSet
536 1342 m 257
 793 1125 1104 711 1104 357 c 256
 1104 81 939 -23 658 -23 c 256
 386 -23 190 81 190 354 c 256
 190 630 329 918 612 1192 c 257
 571 1232 536 1265 498 1295 c 257
 536 1342 l 257
652 1155 m 257
 371 891 250 603 250 350 c 256
 250 116 394 38 658 38 c 256
 932 38 1046 112 1046 354 c 256
 1046 615 864 935 652 1155 c 257
EndSplineSet
Substitution2: "'tnum' Tabular Numbers lookup 22 subtable" uni0665.tnum
Substitution2: "Single Substitution lookup 178 subtable" uni0665.EoA
EndChar

StartChar: uni0666
Encoding: 1638 1638 577
Width: 1116
GlyphClass: 2
Flags: HMW
LayerCount: 2
Fore
SplineSet
142 1269 m 257
 142 1331 l 257
 814 1331 l 257
 858 1291 l 257
 854 1190 850 1092 850 1002 c 256
 850 600 880 337 974 24 c 257
 916 10 l 257
 822 325 792 599 792 1002 c 256
 792 1087 792 1175 796 1269 c 257
 142 1269 l 257
EndSplineSet
Substitution2: "'tnum' Tabular Numbers lookup 22 subtable" uni0666.tnum
Substitution2: "Single Substitution lookup 178 subtable" uni0666.EoA
EndChar

StartChar: uni0667
Encoding: 1639 1639 578
Width: 1145
GlyphClass: 2
Flags: HMW
LayerCount: 2
Fore
SplineSet
578 88 m 257
 611 532 812 1035 1047 1342 c 257
 1095 1302 l 257
 848 981 678 544 602 0 c 257
 543 0 l 257
 467 544 297 981 50 1302 c 257
 99 1342 l 257
 334 1035 535 532 568 88 c 257
 578 88 l 257
EndSplineSet
Substitution2: "'tnum' Tabular Numbers lookup 22 subtable" uni0667.tnum
Substitution2: "Single Substitution lookup 178 subtable" uni0667.EoA
EndChar

StartChar: uni0668
Encoding: 1640 1640 579
Width: 1145
GlyphClass: 2
Flags: HMW
LayerCount: 2
Fore
SplineSet
567 1243 m 257
 534 799 333 296 98 -11 c 257
 50 29 l 257
 297 350 467 787 543 1331 c 257
 602 1331 l 257
 678 787 848 350 1095 29 c 257
 1046 -11 l 257
 811 296 610 799 577 1243 c 257
 567 1243 l 257
EndSplineSet
Substitution2: "'tnum' Tabular Numbers lookup 22 subtable" uni0668.tnum
Substitution2: "Single Substitution lookup 178 subtable" uni0668.EoA
EndChar

StartChar: uni0669
Encoding: 1641 1641 580
Width: 1066
GlyphClass: 2
Flags: HMW
LayerCount: 2
Fore
SplineSet
745 676 m 257
 669 653 600 639 507 639 c 256
 311 639 148 694 148 931 c 256
 148 1139 267 1342 481 1342 c 256
 748 1342 799 1125 799 781 c 257
 799 388 836 218 918 29 c 257
 864 5 l 257
 784 174 745 420 745 676 c 257
741 741 m 257
 741 777 l 258
 741 1095 694 1281 480 1281 c 256
 319 1281 209 1121 209 927 c 256
 209 763 306 698 495 698 c 256
 592 698 660 713 741 741 c 257
EndSplineSet
Substitution2: "'tnum' Tabular Numbers lookup 22 subtable" uni0669.tnum
Substitution2: "Single Substitution lookup 178 subtable" uni0669.EoA
EndChar

StartChar: uni066B
Encoding: 1643 1643 582
Width: 875
GlyphClass: 2
Flags: HMW
LayerCount: 2
Fore
SplineSet
227 -667 m 257
 161 -667 l 257
 651 583 l 257
 717 583 l 257
 227 -667 l 257
EndSplineSet
Substitution2: "'tnum' Tabular Numbers lookup 22 subtable" uni066B.tnum
EndChar

StartChar: uni066C
Encoding: 1644 1644 583
Width: 652
GlyphClass: 2
Flags: HMW
LayerCount: 2
Fore
SplineSet
358 0 m 257
 301 -26 236 -1 236 64 c 256
 236 110 267 145 323 145 c 256
 390 145 416 94 416 16 c 256
 416 -110 358 -200 279 -269 c 257
 240 -226 l 257
 306 -170 358 -92 358 0 c 257
EndSplineSet
Substitution2: "'tnum' Tabular Numbers lookup 22 subtable" uni066C.tnum
EndChar

StartChar: uni066D
Encoding: 1645 1645 584
Width: 1012
GlyphClass: 2
Flags: HMW
LayerCount: 2
Fore
SplineSet
528 621.25390625 m 257
 486 621.25390625 l 257
 486 1024.25390625 l 257
 136.9921875 822.75390625 l 257
 115.9921875 859.126953125 l 257
 465 1060.62695312 l 257
 115.9921875 1262.12695312 l 257
 136.9921875 1298.5 l 257
 486 1097 l 257
 486 1500 l 257
 528 1500 l 257
 528 1097 l 257
 877.0078125 1298.5 l 257
 898.0078125 1262.12695312 l 257
 549 1060.62695312 l 257
 898.0078125 859.126953125 l 257
 877.0078125 822.75390625 l 257
 528 1024.25390625 l 257
 528 621.25390625 l 257
EndSplineSet
EndChar

StartChar: uni06DD
Encoding: 1757 1757 696
Width: 2300
GlyphClass: 2
Flags: HMW
LayerCount: 2
Fore
SplineSet
2150 -121 m 1
 1974 -153 1835 -197 1645 -281 c 0
 1452 -366 1312 -400 1150 -400 c 0
 988 -400 848 -366 655 -281 c 0
 465 -197 326 -153 150 -121 c 1
 181 -76 l 1
 349 -108 487 -152 675 -235 c 0
 863 -318 995 -350 1150 -350 c 0
 1305 -350 1437 -318 1625 -235 c 0
 1813 -152 1951 -108 2119 -76 c 1
 2150 -121 l 1
1150 1694 m 0
 995 1694 863 1662 675 1579 c 0
 487 1496 349 1452 181 1420 c 1
 208 1151 217 1000 217 791 c 0
 217 583 208 433 181 163 c 1
 349 131 487 87 675 4 c 0
 863 -79 995 -111 1150 -111 c 0
 1305 -111 1437 -79 1625 4 c 0
 1813 87 1951 131 2119 163 c 1
 2092 433 2083 583 2083 791 c 0
 2083 1000 2092 1151 2119 1420 c 1
 1951 1452 1813 1496 1625 1579 c 0
 1437 1662 1305 1694 1150 1694 c 0
2133 791 m 0
 2133 598 2141 460 2171 146 c 0
 2171 145 2171 144 2171 143 c 0
 2171 131 2161 120 2150 118 c 0
 1974 86 1835 42 1645 -42 c 0
 1452 -127 1312 -161 1150 -161 c 0
 988 -161 848 -127 655 -42 c 0
 465 42 326 86 150 118 c 0
 139 120 129 131 129 143 c 0
 129 144 129 145 129 146 c 0
 158 413 167 572 167 791 c 0
 167 984 159 1124 129 1437 c 0
 129 1438 129 1439 129 1440 c 0
 129 1452 139 1463 150 1465 c 0
 326 1497 465 1541 655 1625 c 0
 848 1710 988 1744 1150 1744 c 0
 1312 1744 1452 1710 1645 1625 c 0
 1835 1541 1974 1497 2150 1465 c 0
 2161 1463 2171 1452 2171 1440 c 0
 2171 1439 2171 1438 2171 1437 c 0
 2142 1171 2133 1010 2133 791 c 0
EndSplineSet
EndChar

StartChar: uni06DE
Encoding: 1758 1758 697
Width: 2463
GlyphClass: 2
Flags: HMW
LayerCount: 2
Fore
SplineSet
1231 1485 m 256
 1271 1485 1304 1451 1304 1411 c 256
 1304 1371 1271 1337 1231 1337 c 256
 1191 1337 1157 1371 1157 1411 c 256
 1157 1451 1191 1485 1231 1485 c 256
1231 -117 m 256
 1271 -117 1305 -151 1305 -191 c 256
 1305 -231 1271 -265 1231 -265 c 256
 1191 -265 1158 -231 1158 -191 c 256
 1158 -151 1191 -117 1231 -117 c 256
430 683 m 256
 470 683 504 650 504 610 c 256
 504 570 470 536 430 536 c 256
 390 536 356 570 356 610 c 256
 356 650 390 683 430 683 c 256
2032 684 m 256
 2072 684 2106 650 2106 610 c 256
 2106 570 2072 537 2032 537 c 256
 1992 537 1958 570 1958 610 c 256
 1958 650 1992 684 2032 684 c 256
690 1224 m 256
 729 1224 764 1189 764 1150 c 256
 764 1111 729 1077 690 1077 c 256
 651 1077 617 1111 617 1150 c 256
 617 1189 651 1224 690 1224 c 256
1772 143 m 256
 1811 143 1845 109 1845 70 c 256
 1845 31 1811 -4 1772 -4 c 256
 1733 -4 1698 31 1698 70 c 256
 1698 109 1733 143 1772 143 c 256
691 143 m 256
 730 143 764 108 764 69 c 256
 764 30 730 -4 691 -4 c 256
 652 -4 617 30 617 69 c 256
 617 108 652 143 691 143 c 256
1771 1224 m 256
 1810 1224 1845 1190 1845 1151 c 256
 1845 1112 1810 1077 1771 1077 c 256
 1732 1077 1698 1112 1698 1151 c 256
 1698 1190 1732 1224 1771 1224 c 256
1232 1670 m 257
 921 1360 l 257
 481 1360 l 257
 481 921 l 257
 171 610 l 257
 481 299 l 257
 481 -140 l 257
 921 -140 l 257
 1232 -450 l 257
 1542 -140 l 257
 1981 -140 l 257
 1981 299 l 257
 2292 610 l 257
 1981 921 l 257
 1981 1360 l 257
 1542 1360 l 257
 1232 1670 l 257
1231 1741 m 257
 1563 1410 l 257
 2031 1410 l 257
 2031 942 l 257
 2363 610 l 257
 2031 278 l 257
 2031 -190 l 257
 1563 -190 l 257
 1231 -521 l 257
 900 -190 l 257
 431 -190 l 257
 431 279 l 257
 100 610 l 257
 431 941 l 257
 431 1410 l 257
 900 1410 l 257
 1231 1741 l 257
EndSplineSet
Refer: 1231 57390 N 1 0 0 1 796 188 2
EndChar

StartChar: uni06DF
Encoding: 1759 1759 698
Width: 0
GlyphClass: 4
Flags: HMW
AnchorPoint: "Anchor1" 0 892 mark 0
AnchorPoint: "Anchor1" 0 1170 basemark 0
AnchorPoint: "Anchor5" 0 892 mark 0
AnchorPoint: "Anchor4" 0 892 mark 0
LayerCount: 2
Fore
SplineSet
-82 1177 m 256
 -82 1222 -45 1258 0 1258 c 256
 45 1258 82 1222 82 1177 c 256
 82 1132 45 1095 0 1095 c 256
 -45 1095 -82 1132 -82 1177 c 256
EndSplineSet
EndChar

StartChar: uni06E0
Encoding: 1760 1760 699
Width: 0
GlyphClass: 4
Flags: HMW
AnchorPoint: "Anchor1" 0 892 mark 0
AnchorPoint: "Anchor1" 0 1170 basemark 0
AnchorPoint: "Anchor5" 0 892 mark 0
AnchorPoint: "Anchor4" 0 892 mark 0
LayerCount: 2
Fore
SplineSet
-82 1095 m 257
 -82 1258 l 257
 82 1258 l 257
 82 1095 l 257
 -82 1095 l 257
EndSplineSet
EndChar

StartChar: uni06E9
Encoding: 1769 1769 708
Width: 1236
GlyphClass: 2
Flags: HMW
LayerCount: 2
Fore
SplineSet
358 52 m 257
 358 702 l 257
 133 959 l 257
 618 1404 l 257
 1103 959 l 257
 878 702 l 257
 878 52 l 257
 1040 52 l 257
 1040 0 l 257
 196 0 l 257
 196 52 l 257
 358 52 l 257
820 723 m 257
 1025 947 l 257
 618 1316 l 257
 211 947 l 257
 416 723 l 257
 416 52 l 257
 820 52 l 257
 820 723 l 257
648 888 m 257
 648 203 l 257
 588 203 l 257
 588 888 l 257
 648 888 l 257
EndSplineSet
EndChar

StartChar: uni06F0
Encoding: 1776 1776 714
Width: 848
GlyphClass: 2
Flags: HMW
LayerCount: 2
Fore
SplineSet
423 640 m 256
 295 640 233 556 233 449 c 256
 233 342 296 257 423 257 c 256
 550 257 615 342 615 449 c 256
 615 555 551 640 423 640 c 256
423 699 m 256
 583 699 675 591 675 449 c 256
 675 308 584 198 423 198 c 256
 262 198 173 308 173 449 c 256
 173 590 263 699 423 699 c 256
EndSplineSet
Substitution2: "'tnum' Tabular Numbers lookup 22 subtable" uni06F0.tnum
Substitution2: "Single Substitution lookup 178 subtable" uni06F0.EoA
EndChar

StartChar: uni06F4
Encoding: 1780 1780 718
Width: 1164
GlyphClass: 2
Flags: HMW
LayerCount: 2
Fore
SplineSet
310 947 m 257
 400 707 438 331 438 0 c 257
 378 0 l 257
 378 499 327 866 138 1311 c 257
 200 1342 l 257
 260 1181 343 992 408 888 c 257
 417 1159 541 1340 766 1340 c 256
 822 1340 889 1325 954 1299 c 257
 932 1243 l 257
 874 1266 815 1277 766 1277 c 256
 556 1277 462 1106 456 835 c 257
 530 750 644 706 758 706 c 256
 842 706 925 730 996 780 c 257
 1026 730 l 257
 936 675 839 648 746 648 c 256
 560 648 396 756 320 951 c 257
 310 947 l 257
EndSplineSet
Substitution2: "'tnum' Tabular Numbers lookup 22 subtable" uni06F4.tnum
Substitution2: "Single Substitution lookup 178 subtable" uni06F4.EoA
Substitution2: "'locl' Localized Forms in Arabic lookup 5 subtable" uni06F4.urdu
EndChar

StartChar: uni06F5
Encoding: 1781 1781 719
Width: 1412
GlyphClass: 2
Flags: HMW
LayerCount: 2
Fore
SplineSet
677 348 m 257
 738 348 l 257
 739 310 l 258
 744 151 806 59 956 59 c 256
 1062 59 1161 117 1161 326 c 256
 1161 590 1013 861 675 1163 c 257
 362 902 250 577 250 355 c 256
 250 137 350 59 467 59 c 256
 608 59 670 153 676 308 c 258
 677 348 l 257
706 202 m 257
 683 85 598 0 473 0 c 256
 307 0 190 115 190 355 c 256
 190 573 276 877 628 1196 c 257
 586 1230 548 1259 503 1290 c 257
 535 1342 l 257
 593 1302 647 1256 697 1213 c 256
 1059 902 1222 625 1222 328 c 256
 1222 109 1099 0 951 0 c 256
 821 0 732 84 706 202 c 257
EndSplineSet
Substitution2: "'tnum' Tabular Numbers lookup 22 subtable" uni06F5.tnum
Substitution2: "Single Substitution lookup 178 subtable" uni06F5.EoA
EndChar

StartChar: uni06F6
Encoding: 1782 1782 720
Width: 1128
GlyphClass: 2
Flags: HMW
LayerCount: 2
Fore
SplineSet
738 643 m 257
 432 573 197 708 197 961 c 256
 197 1175 368 1342 589 1342 c 256
 704 1342 802 1297 868 1212 c 257
 823 1175 l 257
 766 1243 677 1282 578 1282 c 256
 393 1282 257 1145 257 960 c 256
 257 779 386 682 627 682 c 256
 696 682 775 690 943 714 c 258
 971 718 l 257
 982 658 l 257
 955 655 l 258
 716 628 506 444 196 -12 c 257
 146 23 l 257
 405 405 569 570 741 633 c 257
 738 643 l 257
EndSplineSet
Substitution2: "'tnum' Tabular Numbers lookup 22 subtable" uni06F6.tnum
Substitution2: "Single Substitution lookup 178 subtable" uni06F6.EoA
Substitution2: "'locl' Localized Forms in Arabic lookup 5 subtable" uni0666
EndChar

StartChar: uni1D00
Encoding: 7424 7424 807
Width: 897
GlyphClass: 2
Flags: HMW
LayerCount: 2
Fore
SplineSet
82 0 m 1
 20 0 l 1
 397 990 l 1
 485 990 l 1
 862 0 l 1
 800 0 l 1
 688 298 l 1
 194 298 l 1
 82 0 l 1
667 353 m 1
 441 951 l 1
 215 353 l 1
 667 353 l 1
EndSplineSet
EndChar

StartChar: uni1D01
Encoding: 7425 7425 808
Width: 1121
GlyphClass: 2
Flags: HMW
LayerCount: 2
Fore
SplineSet
215 353 m 257
 471 353 l 257
 471 948 l 257
 440 948 l 257
 215 353 l 257
82 0 m 257
 20 0 l 257
 397 990 l 257
 1037 990 l 257
 1037 937 l 257
 529 937 l 257
 529 523 l 257
 996 523 l 257
 996 467 l 257
 529 467 l 257
 529 53 l 257
 1037 53 l 257
 1037 0 l 257
 471 0 l 257
 471 298 l 257
 194 298 l 257
 82 0 l 257
EndSplineSet
EndChar

StartChar: uni1D04
Encoding: 7428 7428 809
Width: 1061
GlyphClass: 2
Flags: HMW
LayerCount: 2
Fore
SplineSet
562 1001 m 256
 767 1001 886 864 928 750 c 257
 876 731 l 257
 839 834 734 948 560 948 c 256
 310 948 192 752 192 495 c 256
 192 238 310 42 560 42 c 256
 734 42 839 156 876 259 c 257
 928 240 l 257
 886 126 767 -11 562 -11 c 256
 294 -11 132 184 132 495 c 256
 132 806 294 1001 562 1001 c 256
EndSplineSet
EndChar

StartChar: uni1D05
Encoding: 7429 7429 810
Width: 1012
GlyphClass: 2
Flags: HMW
LayerCount: 2
Fore
SplineSet
175 990 m 257
 487 990 l 258
 767 990 919 787 919 495 c 256
 919 203 767 0 487 0 c 258
 175 0 l 257
 175 990 l 257
234 938 m 257
 234 52 l 257
 487 52 l 258
 739 52 858 242 858 495 c 256
 858 748 739 938 487 938 c 258
 234 938 l 257
EndSplineSet
EndChar

StartChar: uni1D07
Encoding: 7431 7431 811
Width: 825
GlyphClass: 2
Flags: HMW
LayerCount: 2
Fore
SplineSet
741 52 m 257
 741 0 l 257
 175 0 l 257
 175 990 l 257
 741 990 l 257
 741 938 l 257
 234 938 l 257
 234 523 l 257
 700 523 l 257
 700 467 l 257
 234 467 l 257
 234 52 l 257
 741 52 l 257
EndSplineSet
EndChar

StartChar: uni1D0A
Encoding: 7434 7434 812
Width: 640
GlyphClass: 2
Flags: HMW
LayerCount: 2
Fore
SplineSet
95 6 m 257
 107 55 l 257
 131 50 175 43 218 43 c 256
 342 43 406 101 406 228 c 258
 406 990 l 257
 465 990 l 257
 465 223 l 258
 465 59 363 -10 217 -10 c 256
 175 -10 133 -4 95 6 c 257
EndSplineSet
EndChar

StartChar: uni1D0B
Encoding: 7435 7435 813
Width: 895
GlyphClass: 2
Flags: HMW
LayerCount: 2
Fore
SplineSet
775 990 m 257
 855 990 l 257
 409 495 l 257
 855 0 l 257
 775 0 l 257
 368 463 l 257
 234 463 l 257
 234 0 l 257
 175 0 l 257
 175 990 l 257
 234 990 l 257
 234 526 l 257
 368 526 l 257
 775 990 l 257
EndSplineSet
EndChar

StartChar: uni1D0D
Encoding: 7437 7437 814
Width: 1412
GlyphClass: 2
Flags: HMW
LayerCount: 2
Fore
SplineSet
234 0 m 257
 175 0 l 257
 175 990 l 257
 288 990 l 257
 683 30 l 257
 1124 990 l 257
 1237 990 l 257
 1237 0 l 257
 1177 0 l 257
 1177 962 l 257
 737 0 l 257
 627 0 l 257
 234 954 l 257
 234 0 l 257
EndSplineSet
EndChar

StartChar: uni1D0F
Encoding: 7439 7439 815
Width: 1063
GlyphClass: 2
Flags: HMW
LayerCount: 2
Fore
SplineSet
532 1001 m 256
 816 1001 970 790 970 495 c 256
 970 200 816 -11 532 -11 c 256
 248 -11 93 200 93 495 c 256
 93 790 248 1001 532 1001 c 256
532 949 m 256
 269 949 148 743 148 495 c 256
 148 246 269 41 532 41 c 256
 795 41 916 247 916 495 c 256
 916 744 795 949 532 949 c 256
EndSplineSet
EndChar

StartChar: uni1D18
Encoding: 7448 7448 816
Width: 895
GlyphClass: 2
Flags: HMW
LayerCount: 2
Fore
SplineSet
235 937 m 257
 235 494 l 257
 531 494 l 258
 678 494 743 588 743 721 c 256
 743 854 678 937 531 937 c 258
 235 937 l 257
235 0 m 257
 175 0 l 257
 175 990 l 257
 531 990 l 258
 695 990 802 881 802 721 c 256
 802 561 695 442 531 442 c 258
 235 442 l 257
 235 0 l 257
EndSplineSet
EndChar

StartChar: uni1D1B
Encoding: 7451 7451 817
Width: 978
GlyphClass: 2
Flags: HMW
LayerCount: 2
Fore
SplineSet
519 0 m 257
 459 0 l 257
 459 937 l 257
 90 937 l 257
 90 990 l 257
 888 990 l 257
 888 937 l 257
 519 937 l 257
 519 0 l 257
EndSplineSet
EndChar

StartChar: uni1D1C
Encoding: 7452 7452 818
Width: 967
GlyphClass: 2
Flags: HMW
LayerCount: 2
Fore
SplineSet
782 990 m 257
 842 990 l 257
 842 342 l 258
 842 121 699 -11 483 -11 c 256
 267 -11 125 121 125 342 c 258
 125 990 l 257
 185 990 l 257
 185 342 l 258
 185 153 305 39 483 39 c 256
 661 39 782 153 782 342 c 258
 782 990 l 257
EndSplineSet
EndChar

StartChar: uni1D20
Encoding: 7456 7456 819
Width: 882
GlyphClass: 2
Flags: HMW
LayerCount: 2
Fore
SplineSet
82 990 m 257
 441 39 l 257
 800 990 l 257
 862 990 l 257
 485 0 l 257
 397 0 l 257
 20 990 l 257
 82 990 l 257
EndSplineSet
EndChar

StartChar: uni1D21
Encoding: 7457 7457 820
Width: 1428
GlyphClass: 2
Flags: HMW
LayerCount: 2
Fore
SplineSet
52 990 m 257
 114 990 l 257
 401 27 l 257
 660 990 l 257
 768 990 l 257
 1028 27 l 257
 1312 990 l 257
 1376 990 l 257
 1087 0 l 257
 972 0 l 257
 714 956 l 257
 450 0 l 257
 341 0 l 257
 52 990 l 257
EndSplineSet
EndChar

StartChar: uni1D22
Encoding: 7458 7458 821
Width: 951
GlyphClass: 2
Flags: HMW
LayerCount: 2
Fore
SplineSet
105 990 m 257
 846 990 l 257
 846 912 l 257
 156 52 l 257
 846 52 l 257
 846 0 l 257
 105 0 l 257
 105 80 l 257
 795 940 l 257
 105 940 l 257
 105 990 l 257
EndSplineSet
EndChar

StartChar: uni1E9E
Encoding: 7838 7838 981
Width: 1160
GlyphClass: 2
Flags: HMW
LayerCount: 2
Fore
SplineSet
169 0 m 257
 169 873 l 258
 169 1170 305 1342 565 1344 c 256
 757 1344 933 1235 933 1017 c 256
 933 875 861 757 722 703 c 257
 908 666 1056 562 1056 328 c 256
 1056 130 950 -10 743 -10 c 256
 559 -10 428 82 428 274 c 257
 488 274 l 257
 488 115 593 42 741 42 c 256
 917 42 999 163 999 329 c 256
 999 587 794 671 533 671 c 257
 533 720 l 257
 794 720 876 879 876 1017 c 256
 876 1202 724 1292 565 1292 c 256
 344 1292 230 1141 230 873 c 258
 230 0 l 257
 169 0 l 257
EndSplineSet
EndChar

StartChar: uni200C
Encoding: 8204 8204 1073
Width: 0
GlyphClass: 2
Flags: HMW
LayerCount: 2
Fore
SplineSet
30 1366 m 257
 30 -291 l 257
 -30 -291 l 257
 -30 1366 l 257
 30 1366 l 257
EndSplineSet
EndChar

StartChar: uni200D
Encoding: 8205 8205 1074
Width: 0
GlyphClass: 2
Flags: HMW
LayerCount: 2
Fore
SplineSet
184 -281 m 257
 45 -142 l 257
 89 -98 l 257
 228 -237 l 257
 184 -281 l 257
-89 -8 m 257
 -228 131 l 257
 -184 175 l 257
 -45 36 l 257
 -89 -8 l 257
228 131 m 257
 -184 -281 l 257
 -228 -237 l 257
 184 175 l 257
 228 131 l 257
184 1032 m 257
 45 1171 l 257
 89 1215 l 257
 228 1076 l 257
 184 1032 l 257
-89 1305 m 257
 -228 1444 l 257
 -184 1488 l 257
 -45 1349 l 257
 -89 1305 l 257
228 1444 m 257
 -184 1032 l 257
 -228 1076 l 257
 184 1488 l 257
 228 1444 l 257
-30 1068 m 257
 30 1068 l 257
 30 139 l 257
 -30 139 l 257
 -30 1068 l 257
EndSplineSet
EndChar

StartChar: uni200E
Encoding: 8206 8206 1075
Width: 0
GlyphClass: 2
Flags: HMW
LayerCount: 2
Fore
SplineSet
282 1043 m 257
 238 1087 l 257
 422 1271 l 257
 238 1455 l 257
 282 1499 l 257
 510 1271 l 257
 282 1043 l 257
283 -290 m 257
 239 -246 l 257
 423 -62 l 257
 239 122 l 257
 283 166 l 257
 511 -62 l 257
 283 -290 l 257
30 49 m 258
 30 4 67 -33 112 -33 c 258
 274 -33 l 257
 274 -93 l 257
 112 -93 l 258
 33 -93 -30 -30 -30 49 c 258
 -30 1159 l 258
 -30 1238 33 1301 112 1301 c 258
 274 1301 l 257
 274 1241 l 257
 112 1241 l 258
 67 1241 30 1204 30 1159 c 258
 30 49 l 258
EndSplineSet
EndChar

StartChar: uni200F
Encoding: 8207 8207 1076
Width: 0
GlyphClass: 2
Flags: HMW
LayerCount: 2
Fore
SplineSet
-282 1043 m 257
 -510 1271 l 257
 -282 1499 l 257
 -238 1455 l 257
 -422 1271 l 257
 -238 1087 l 257
 -282 1043 l 257
-283 -290 m 257
 -511 -62 l 257
 -283 166 l 257
 -239 122 l 257
 -423 -62 l 257
 -239 -246 l 257
 -283 -290 l 257
-30 49 m 258
 -30 1159 l 258
 -30 1204 -67 1241 -112 1241 c 258
 -274 1241 l 257
 -274 1301 l 257
 -112 1301 l 258
 -33 1301 30 1238 30 1159 c 258
 30 49 l 258
 30 -30 -33 -93 -112 -93 c 258
 -274 -93 l 257
 -274 -33 l 257
 -112 -33 l 258
 -67 -33 -30 4 -30 49 c 258
EndSplineSet
EndChar

StartChar: figuredash
Encoding: 8210 8210 1079
Width: 1378
GlyphClass: 2
Flags: HMW
LayerCount: 2
Fore
SplineSet
1228 588 m 257
 1228 528 l 257
 150 528 l 257
 150 588 l 257
 1228 588 l 257
EndSplineSet
EndChar

StartChar: emdash
Encoding: 8212 8212 1081
Width: 2048
GlyphClass: 2
Flags: HMW
LayerCount: 2
Fore
SplineSet
1948 588 m 257
 1948 528 l 257
 100 528 l 257
 100 588 l 257
 1948 588 l 257
EndSplineSet
EndChar

StartChar: quoteleft
Encoding: 8216 8216 1083
Width: 534
GlyphClass: 2
Flags: HMW
LayerCount: 2
Fore
SplineSet
263 1510 m 257
 354 1113 l 257
 308 1097 l 257
 180 1510 l 257
 263 1510 l 257
EndSplineSet
EndChar

StartChar: quoteright
Encoding: 8217 8217 1084
Width: 534
GlyphClass: 2
Flags: HMW
LayerCount: 2
Fore
SplineSet
271 1510 m 257
 354 1510 l 257
 226 1097 l 257
 180 1113 l 257
 271 1510 l 257
EndSplineSet
EndChar

StartChar: dagger
Encoding: 8224 8224 1091
Width: 1308
GlyphClass: 2
Flags: HMW
LayerCount: 2
Fore
SplineSet
200 896 m 257
 200 955 l 257
 1108 955 l 257
 1108 896 l 257
 200 896 l 257
624 1331 m 257
 683 1331 l 257
 683 -477 l 257
 624 -477 l 257
 624 1331 l 257
EndSplineSet
EndChar

StartChar: daggerdbl
Encoding: 8225 8225 1092
Width: 1308
GlyphClass: 2
Flags: HMW
LayerCount: 2
Fore
SplineSet
200 -101 m 257
 200 -42 l 257
 1108 -42 l 257
 1108 -101 l 257
 200 -101 l 257
200 896 m 257
 200 955 l 257
 1108 955 l 257
 1108 896 l 257
 200 896 l 257
624 1331 m 257
 683 1331 l 257
 683 -477 l 257
 624 -477 l 257
 624 1331 l 257
EndSplineSet
EndChar

StartChar: bullet
Encoding: 8226 8226 1093
Width: 453
GlyphClass: 2
Flags: HMW
LayerCount: 2
Fore
SplineSet
100 688 m 256
 100 759 151 814 227 814 c 256
 303 814 353 759 353 688 c 256
 353 617 303 560 227 560 c 256
 151 560 100 617 100 688 c 256
EndSplineSet
EndChar

StartChar: uni202A
Encoding: 8234 8234 1095
Width: 0
GlyphClass: 2
Flags: HMW
LayerCount: 2
Fore
SplineSet
-68 1042 m 257
 -112 1086 l 257
 72 1270 l 257
 -112 1454 l 257
 -68 1498 l 257
 160 1270 l 257
 -68 1042 l 257
-30 893 m 257
 30 893 l 257
 30 49 l 257
 -30 49 l 257
 -30 893 l 257
EndSplineSet
EndChar

StartChar: uni202B
Encoding: 8235 8235 1096
Width: 0
GlyphClass: 2
Flags: HMW
LayerCount: 2
Fore
SplineSet
68 1042 m 257
 -160 1270 l 257
 68 1498 l 257
 112 1454 l 257
 -72 1270 l 257
 112 1086 l 257
 68 1042 l 257
-30 893 m 257
 30 893 l 257
 30 49 l 257
 -30 49 l 257
 -30 893 l 257
EndSplineSet
EndChar

StartChar: uni202C
Encoding: 8236 8236 1097
Width: 0
GlyphClass: 2
Flags: HMW
LayerCount: 2
Fore
SplineSet
-228 1185 m 257
 0 1413 l 257
 228 1185 l 257
 184 1141 l 257
 0 1325 l 257
 -184 1141 l 257
 -228 1185 l 257
-30 945 m 257
 30 945 l 257
 30 49 l 257
 -30 49 l 257
 -30 945 l 257
EndSplineSet
EndChar

StartChar: uni202D
Encoding: 8237 8237 1098
Width: 0
GlyphClass: 2
Flags: HMW
LayerCount: 2
Fore
SplineSet
72 1042 m 257
 28 1086 l 257
 212 1270 l 257
 28 1454 l 257
 72 1498 l 257
 300 1270 l 257
 72 1042 l 257
-156 1042 m 257
 -200 1086 l 257
 -16 1270 l 257
 -200 1454 l 257
 -156 1498 l 257
 72 1270 l 257
 -156 1042 l 257
-30 893 m 257
 30 893 l 257
 30 49 l 257
 -30 49 l 257
 -30 893 l 257
EndSplineSet
EndChar

StartChar: uni202E
Encoding: 8238 8238 1099
Width: 0
GlyphClass: 2
Flags: HMW
LayerCount: 2
Fore
SplineSet
-72 1042 m 257
 -300 1270 l 257
 -72 1498 l 257
 -28 1454 l 257
 -212 1270 l 257
 -28 1086 l 257
 -72 1042 l 257
156 1042 m 257
 -72 1270 l 257
 156 1498 l 257
 200 1454 l 257
 16 1270 l 257
 200 1086 l 257
 156 1042 l 257
-30 893 m 257
 30 893 l 257
 30 49 l 257
 -30 49 l 257
 -30 893 l 257
EndSplineSet
EndChar

StartChar: minute
Encoding: 8242 8242 1101
Width: 444
GlyphClass: 2
Flags: HMW
LayerCount: 2
Fore
SplineSet
230 1331 m 257
 314 1331 l 257
 194 920 l 257
 130 920 l 257
 230 1331 l 257
EndSplineSet
EndChar

StartChar: uni2035
Encoding: 8245 8245 1104
Width: 444
GlyphClass: 2
Flags: HMW
LayerCount: 2
Fore
SplineSet
214 1331 m 257
 314 920 l 257
 250 920 l 257
 130 1331 l 257
 214 1331 l 257
EndSplineSet
EndChar

StartChar: guilsinglleft
Encoding: 8249 8249 1107
Width: 489
GlyphClass: 2
Flags: HMW
LayerCount: 2
Fore
SplineSet
172 622 m 257
 389 820 l 257
 354 858 l 257
 100 622 l 257
 354 386 l 257
 389 424 l 257
 172 622 l 257
EndSplineSet
EndChar

StartChar: guilsinglright
Encoding: 8250 8250 1108
Width: 489
GlyphClass: 2
Flags: HMW
LayerCount: 2
Fore
SplineSet
317 622 m 257
 100 424 l 257
 135 386 l 257
 389 622 l 257
 135 858 l 257
 100 820 l 257
 317 622 l 257
EndSplineSet
EndChar

StartChar: fraction
Encoding: 8260 8260 1109
Width: 1073
GlyphClass: 2
Flags: HMW
LayerCount: 2
Fore
SplineSet
166 -33 m 257
 121 1 l 257
 908 1022 l 257
 953 990 l 257
 166 -33 l 257
EndSplineSet
EndChar

StartChar: uni2070
Encoding: 8304 8304 1110
Width: 595
GlyphClass: 2
Flags: HMW
LayerCount: 2
Fore
SplineSet
297 1731 m 256
 167 1731 138 1602 138 1451 c 256
 138 1300 167 1171 297 1171 c 256
 427 1171 458 1300 458 1451 c 256
 458 1602 427 1731 297 1731 c 256
297 1782 m 256
 449 1782 512 1647 512 1451 c 256
 512 1255 449 1121 297 1121 c 256
 145 1121 83 1255 83 1451 c 256
 83 1647 145 1782 297 1782 c 256
EndSplineSet
EndChar

StartChar: uni2074
Encoding: 8308 8308 1111
Width: 639
GlyphClass: 2
Flags: HMW
LayerCount: 2
Fore
SplineSet
432 1311 m 257
 432 1683 l 257
 145 1311 l 257
 432 1311 l 257
432 1259 m 257
 80 1259 l 257
 80 1303 l 257
 434 1772 l 257
 485 1772 l 257
 485 1311 l 257
 600 1311 l 257
 600 1259 l 257
 485 1259 l 257
 485 1131 l 257
 432 1131 l 257
 432 1259 l 257
EndSplineSet
EndChar

StartChar: uni2075
Encoding: 8309 8309 1112
Width: 581
GlyphClass: 2
Flags: HMW
LayerCount: 2
Fore
SplineSet
90 1304 m 257
 145 1304 l 257
 145 1223 194 1172 291 1172 c 256
 386 1172 447 1231 447 1338 c 256
 447 1442 393 1511 290 1511 c 256
 234 1511 187 1487 138 1444 c 257
 99 1464 l 257
 134 1772 l 257
 496 1772 l 257
 496 1721 l 257
 184 1721 l 257
 158 1520 l 257
 193 1545 240 1562 290 1562 c 256
 420 1562 501 1471 501 1338 c 256
 501 1204 411 1121 289 1121 c 256
 171 1121 90 1195 90 1304 c 257
EndSplineSet
EndChar

StartChar: uni2076
Encoding: 8310 8310 1113
Width: 600
GlyphClass: 2
Flags: HMW
LayerCount: 2
Fore
SplineSet
309 1782 m 256
 426 1782 492 1701 492 1613 c 257
 440 1613 l 257
 440 1671 406 1731 309 1731 c 256
 182 1731 148 1587 144 1461 c 257
 180 1511 240 1545 307 1545 c 256
 426 1545 505 1456 505 1335 c 256
 505 1205 430 1121 309 1121 c 256
 150 1121 95 1245 95 1419 c 256
 95 1628 149 1782 309 1782 c 256
306 1494 m 256
 242 1494 188 1472 144 1392 c 257
 144 1263 188 1171 310 1171 c 256
 401 1171 451 1232 451 1332 c 256
 451 1426 398 1494 306 1494 c 256
EndSplineSet
EndChar

StartChar: uni2077
Encoding: 8311 8311 1114
Width: 636
GlyphClass: 2
Flags: HMW
LayerCount: 2
Fore
SplineSet
556 1733 m 257
 442 1585 313 1369 313 1131 c 257
 258 1131 l 257
 258 1358 380 1581 486 1721 c 257
 92 1721 l 257
 92 1772 l 257
 545 1772 l 257
 556 1733 l 257
EndSplineSet
EndChar

StartChar: uni2078
Encoding: 8312 8312 1115
Width: 587
GlyphClass: 2
Flags: MW
LayerCount: 2
Fore
SplineSet
294 1782 m 256
 397 1782 474 1708 474 1610 c 256
 474 1549 441 1494 394 1462 c 257
 459 1425 504 1366 504 1296 c 256
 504 1192 423 1121 294 1121 c 256
 164 1121 83 1193 83 1298 c 256
 83 1368 126 1427 191 1463 c 257
 145 1495 112 1549 112 1610 c 256
 112 1709 191 1782 294 1782 c 256
294 1733 m 256
 219 1733 166 1679 166 1606 c 256
 166 1531 219 1483 294 1483 c 256
 368 1483 420 1531 420 1606 c 256
 420 1680 368 1733 294 1733 c 256
292 1435 m 256
 204 1435 137 1378 137 1296 c 256
 137 1213 196 1169 294 1169 c 256
 392 1169 450 1212 450 1295 c 256
 450 1376 381 1435 292 1435 c 256
EndSplineSet
EndChar

StartChar: uni2079
Encoding: 8313 8313 1116
Width: 600
GlyphClass: 2
Flags: HMW
LayerCount: 2
Fore
SplineSet
456 1511 m 257
 456 1640 412 1732 290 1732 c 256
 199 1732 149 1671 149 1571 c 256
 149 1477 202 1409 294 1409 c 256
 358 1409 412 1431 456 1511 c 257
456 1442 m 257
 420 1392 360 1358 293 1358 c 256
 174 1358 95 1447 95 1568 c 256
 95 1698 170 1782 291 1782 c 256
 450 1782 505 1658 505 1484 c 256
 505 1275 451 1121 291 1121 c 256
 174 1121 108 1202 108 1290 c 257
 160 1290 l 257
 160 1232 194 1172 291 1172 c 256
 418 1172 452 1316 456 1442 c 257
EndSplineSet
EndChar

StartChar: arrowleft
Encoding: 8592 8592 1145
Width: 1218
GlyphClass: 2
Flags: HMW
LayerCount: 2
Fore
SplineSet
1068 464 m 257
 296 464 l 257
 257 475 l 257
 522 210 l 257
 478 166 l 257
 150 494 l 257
 478 822 l 257
 522 778 l 257
 257 513 l 257
 296 524 l 257
 1068 524 l 257
 1068 464 l 257
EndSplineSet
EndChar

StartChar: arrowup
Encoding: 8593 8593 1146
Width: 956
GlyphClass: 2
Flags: HMW
LayerCount: 2
Fore
SplineSet
448 -15 m 257
 448 757 l 257
 459 796 l 257
 194 531 l 257
 150 575 l 257
 478 903 l 257
 806 575 l 257
 762 531 l 257
 497 796 l 257
 508 757 l 257
 508 -15 l 257
 448 -15 l 257
EndSplineSet
EndChar

StartChar: arrowright
Encoding: 8594 8594 1147
Width: 1218
GlyphClass: 2
Flags: HMW
LayerCount: 2
Fore
SplineSet
150 524 m 257
 922 524 l 257
 961 513 l 257
 696 778 l 257
 740 822 l 257
 1068 494 l 257
 740 166 l 257
 696 210 l 257
 961 475 l 257
 922 464 l 257
 150 464 l 257
 150 524 l 257
EndSplineSet
EndChar

StartChar: arrowdown
Encoding: 8595 8595 1148
Width: 956
GlyphClass: 2
Flags: HMW
LayerCount: 2
Fore
SplineSet
508 1003 m 257
 508 231 l 257
 497 192 l 257
 762 457 l 257
 806 413 l 257
 478 85 l 257
 150 413 l 257
 194 457 l 257
 459 192 l 257
 448 231 l 257
 448 1003 l 257
 508 1003 l 257
EndSplineSet
EndChar

StartChar: arrowboth
Encoding: 8596 8596 1149
Width: 1554
GlyphClass: 2
Flags: HMW
LayerCount: 2
Fore
SplineSet
478 822 m 257
 522 778 l 257
 257 513 l 257
 296 524 l 257
 1258 524 l 257
 1297 513 l 257
 1032 778 l 257
 1076 822 l 257
 1404 494 l 257
 1076 166 l 257
 1032 210 l 257
 1297 475 l 257
 1258 464 l 257
 296 464 l 257
 257 475 l 257
 522 210 l 257
 478 166 l 257
 150 494 l 257
 478 822 l 257
EndSplineSet
EndChar

StartChar: arrowupdn
Encoding: 8597 8597 1150
Width: 956
GlyphClass: 2
Flags: HMW
LayerCount: 2
Fore
SplineSet
478 1121 m 257
 806 793 l 257
 762 749 l 257
 497 1014 l 257
 508 975 l 257
 508 13 l 257
 497 -26 l 257
 762 239 l 257
 806 195 l 257
 478 -133 l 257
 150 195 l 257
 194 239 l 257
 459 -26 l 257
 448 13 l 257
 448 975 l 257
 459 1014 l 257
 194 749 l 257
 150 793 l 257
 478 1121 l 257
EndSplineSet
EndChar

StartChar: uni2196
Encoding: 8598 8598 1151
Width: 1039
GlyphClass: 2
Flags: HMW
LayerCount: 2
Fore
SplineSet
847 114 m 257
 232 729 l 257
 212 764 l 257
 212 389 l 257
 150 389 l 257
 150 853 l 257
 614 853 l 257
 614 791 l 257
 239 791 l 257
 274 771 l 257
 889 156 l 257
 847 114 l 257
EndSplineSet
EndChar

StartChar: uni2197
Encoding: 8599 8599 1152
Width: 1039
GlyphClass: 2
Flags: HMW
LayerCount: 2
Fore
SplineSet
150 156 m 257
 765 771 l 257
 800 791 l 257
 425 791 l 257
 425 853 l 257
 889 853 l 257
 889 389 l 257
 827 389 l 257
 827 764 l 257
 807 729 l 257
 192 114 l 257
 150 156 l 257
EndSplineSet
EndChar

StartChar: uni2198
Encoding: 8600 8600 1153
Width: 1039
GlyphClass: 2
Flags: HMW
LayerCount: 2
Fore
SplineSet
192 853 m 257
 807 238 l 257
 827 203 l 257
 827 578 l 257
 889 578 l 257
 889 114 l 257
 425 114 l 257
 425 176 l 257
 800 176 l 257
 765 196 l 257
 150 811 l 257
 192 853 l 257
EndSplineSet
EndChar

StartChar: uni2199
Encoding: 8601 8601 1154
Width: 1039
GlyphClass: 2
Flags: HMW
LayerCount: 2
Fore
SplineSet
889 811 m 257
 274 196 l 257
 239 176 l 257
 614 176 l 257
 614 114 l 257
 150 114 l 257
 150 578 l 257
 212 578 l 257
 212 203 l 257
 232 238 l 257
 847 853 l 257
 889 811 l 257
EndSplineSet
EndChar

StartChar: uni220E
Encoding: 8718 8718 1155
Width: 1042
GlyphClass: 2
Flags: HMW
LayerCount: 2
Fore
SplineSet
212 1180 m 257
 831 1180 l 257
 831 0 l 257
 212 0 l 257
 212 1180 l 257
EndSplineSet
EndChar

StartChar: uni2215
Encoding: 8725 8725 1157
Width: 1073
GlyphClass: 2
Flags: HMW
LayerCount: 2
Fore
SplineSet
166 -33 m 257
 121 1 l 257
 908 1022 l 257
 953 990 l 257
 166 -33 l 257
EndSplineSet
EndChar

StartChar: approxequal
Encoding: 8776 8776 1158
Width: 1149
GlyphClass: 2
Flags: HMW
LayerCount: 2
Fore
SplineSet
175 294 m 257
 246 389 314 429 394 429 c 256
 440 429 499 412 586 363 c 256
 662 321 711 305 746 305 c 256
 803 305 859 339 918 416 c 257
 966 384 l 257
 895 288 830 249 751 249 c 256
 703 249 639 268 557 315 c 256
 486 356 432 373 395 373 c 256
 337 373 282 340 223 262 c 257
 175 294 l 257
175 790 m 257
 246 885 314 925 394 925 c 256
 440 925 499 908 586 859 c 256
 662 817 711 801 746 801 c 256
 803 801 859 835 918 912 c 257
 966 880 l 257
 895 784 830 745 751 745 c 256
 703 745 639 764 557 811 c 256
 486 852 432 869 395 869 c 256
 337 869 282 836 223 758 c 257
 175 790 l 257
EndSplineSet
EndChar

StartChar: filledbox
Encoding: 9632 9632 1160
Width: 1038
GlyphClass: 2
Flags: HMW
LayerCount: 2
Fore
SplineSet
212 615 m 257
 827 615 l 257
 827 0 l 257
 212 0 l 257
 212 615 l 257
EndSplineSet
EndChar

StartChar: uni25CC
Encoding: 9676 9676 1161
Width: 1802
GlyphClass: 2
Flags: HMW
AnchorPoint: "middle_dot_I" 1687 769 basechar 0
AnchorPoint: "Anchor5" 851 1447 basechar 0
AnchorPoint: "Anchor3" 851 91 basechar 0
AnchorPoint: "down_II" 851 91 basechar 0
AnchorPoint: "down_I" 851 91 basechar 0
AnchorPoint: "up_II" 851 1447 basechar 0
AnchorPoint: "up_I" 851 1447 basechar 0
LayerCount: 2
Fore
SplineSet
793 91 m 256
 793 134 808 149 851 149 c 256
 894 149 909 134 909 91 c 256
 909 48 894 33 851 33 c 256
 808 33 793 48 793 91 c 256
793 1447 m 256
 793 1490 808 1505 851 1505 c 256
 894 1505 909 1490 909 1447 c 256
 909 1404 894 1389 851 1389 c 256
 808 1389 793 1404 793 1447 c 256
1529 711 m 256
 1486 711 1471 726 1471 769 c 256
 1471 812 1486 827 1529 827 c 256
 1572 827 1587 812 1587 769 c 256
 1587 726 1572 711 1529 711 c 256
173 711 m 256
 130 711 115 726 115 769 c 256
 115 812 130 827 173 827 c 256
 216 827 231 812 231 769 c 256
 231 726 216 711 173 711 c 256
1272 290 m 256
 1272 333 1287 348 1330 348 c 256
 1373 348 1388 333 1388 290 c 256
 1388 247 1373 232 1330 232 c 256
 1287 232 1272 247 1272 290 c 256
314 1248 m 256
 314 1291 329 1306 372 1306 c 256
 415 1306 430 1291 430 1248 c 256
 430 1205 415 1190 372 1190 c 256
 329 1190 314 1205 314 1248 c 256
1330 1190 m 256
 1287 1190 1272 1205 1272 1248 c 256
 1272 1291 1287 1306 1330 1306 c 256
 1373 1306 1388 1291 1388 1248 c 256
 1388 1205 1373 1190 1330 1190 c 256
372 232 m 256
 329 232 314 247 314 290 c 256
 314 333 329 348 372 348 c 256
 415 348 430 333 430 290 c 256
 430 247 415 232 372 232 c 256
534 143 m 256
 534 186 549 200 592 200 c 256
 635 200 650 186 650 143 c 256
 650 100 635 84 592 84 c 256
 549 84 534 100 534 143 c 256
1110 1454 m 256
 1153 1454 1168 1438 1168 1395 c 256
 1168 1352 1153 1338 1110 1338 c 256
 1067 1338 1052 1352 1052 1395 c 256
 1052 1438 1067 1454 1110 1454 c 256
1477 452 m 256
 1434 452 1420 467 1420 510 c 256
 1420 553 1434 568 1477 568 c 256
 1520 568 1536 553 1536 510 c 256
 1536 467 1520 452 1477 452 c 256
166 1028 m 256
 166 1071 182 1086 225 1086 c 256
 268 1086 282 1071 282 1028 c 256
 282 985 268 970 225 970 c 256
 182 970 166 985 166 1028 c 256
1052 143 m 256
 1052 186 1067 200 1110 200 c 256
 1153 200 1168 186 1168 143 c 256
 1168 100 1153 84 1110 84 c 256
 1067 84 1052 100 1052 143 c 256
534 1395 m 256
 534 1438 549 1454 592 1454 c 256
 635 1454 650 1438 650 1395 c 256
 650 1352 635 1338 592 1338 c 256
 549 1338 534 1352 534 1395 c 256
1477 970 m 256
 1434 970 1420 985 1420 1028 c 256
 1420 1071 1434 1086 1477 1086 c 256
 1520 1086 1536 1071 1536 1028 c 256
 1536 985 1520 970 1477 970 c 256
225 452 m 256
 182 452 166 467 166 510 c 256
 166 553 182 568 225 568 c 256
 268 568 282 553 282 510 c 256
 282 467 268 452 225 452 c 256
EndSplineSet
EndChar

StartChar: uniA729
Encoding: 42793 42793 1163
Width: 1612
GlyphClass: 2
Flags: HMW
LayerCount: 2
Fore
SplineSet
637 55 m 257
 648 6 l 257
 610 -4 568 -10 526 -10 c 256
 380 -10 269 59 269 223 c 258
 269 1278 l 257
 329 1278 l 257
 329 227 l 258
 329 100 401 43 525 43 c 256
 568 43 613 50 637 55 c 257
EndSplineSet
Refer: 1196 57354 N 1 0 0 1 -24 441 2
Refer: 442 658 N 1 0 0 1 555 0 2
EndChar

StartChar: uniA730
Encoding: 42800 42800 1164
Width: 831
GlyphClass: 2
Flags: HMW
LayerCount: 2
Fore
SplineSet
175 0 m 257
 175 990 l 257
 741 990 l 257
 741 937 l 257
 234 937 l 257
 234 521 l 257
 700 521 l 257
 700 467 l 257
 234 467 l 257
 234 0 l 257
 175 0 l 257
EndSplineSet
EndChar

StartChar: uniA731
Encoding: 42801 42801 1165
Width: 855
GlyphClass: 2
Flags: HMW
LayerCount: 2
Fore
SplineSet
90 261 m 257
 150 261 l 257
 150 106 284 41 437 41 c 256
 587 41 704 96 704 242 c 256
 704 383 619 413 424 473 c 256
 249 527 112 583 112 751 c 256
 112 904 243 1001 417 1001 c 256
 587 1001 743 894 743 730 c 257
 683 730 l 257
 683 877 564 950 417 950 c 256
 270 950 172 888 172 754 c 256
 172 627 259 584 443 531 c 256
 639 475 765 419 765 245 c 256
 765 78 616 -11 437 -11 c 256
 261 -11 90 83 90 261 c 257
EndSplineSet
EndChar

StartChar: uniA733
Encoding: 42803 42803 1167
Width: 1703
GlyphClass: 2
Flags: HMW
LayerCount: 2
Fore
SplineSet
499 999 m 256
 694 999 853 908 853 715 c 258
 853 377 l 257
 793 258 l 257
 793 715 l 258
 793 875 661 947 499 947 c 256
 337 947 204 875 204 715 c 257
 145 715 l 257
 145 908 304 999 499 999 c 256
1161 999 m 256
 1356 999 1529 908 1529 715 c 258
 1529 217 l 258
 1529 110 1561 53 1675 53 c 257
 1676 0 l 257
 1540 0 1469 69 1469 213 c 258
 1469 715 l 258
 1469 875 1323 947 1161 947 c 256
 999 947 853 875 853 715 c 257
 794 715 l 257
 794 908 966 999 1161 999 c 256
EndSplineSet
Refer: 1197 57355 N 1 0 0 1 676 0 2
Refer: 1197 57355 N 1 0 0 1 0 0 2
EndChar

StartChar: uniA734
Encoding: 42804 42804 1168
Width: 2216
GlyphClass: 2
Flags: HMW
LayerCount: 2
Fore
SplineSet
241 411 m 257
 85 0 l 257
 22 0 l 257
 530 1331 l 257
 618 1331 l 257
 968 411 l 257
 241 411 l 257
261 466 m 257
 885 466 l 257
 574 1292 l 257
 261 466 l 257
EndSplineSet
Refer: 47 79 N 1 0 0 1 694 0 2
EndChar

StartChar: uniA735
Encoding: 42805 42805 1169
Width: 1776
GlyphClass: 2
Flags: HMW
LayerCount: 2
Fore
SplineSet
793 249 m 257
 793 715 l 258
 793 875 661 947 499 947 c 256
 337 947 204 875 204 715 c 257
 145 715 l 257
 145 908 304 999 499 999 c 256
 694 999 853 908 853 715 c 258
 853 249 l 257
 793 249 l 257
117 258 m 256
 117 468 272 543 482 543 c 258
 852 543 l 257
 852 490 l 257
 482 490 l 258
 302 490 178 425 178 262 c 256
 178 126 244 42 422 42 c 256
 630 42 775 217 807 272 c 257
 840 251 l 257
 805 177 638 -11 405 -11 c 256
 232 -11 117 82 117 258 c 256
EndSplineSet
Refer: 79 111 N 1 0 0 1 702 0 2
EndChar

StartChar: uniA736
Encoding: 42806 42806 1170
Width: 1782
GlyphClass: 2
Flags: HMW
LayerCount: 2
Fore
SplineSet
1546 1331 m 257
 1607 1331 l 257
 1607 469 l 258
 1607 172 1414 0 1124 0 c 257
 1080 50 l 257
 1124 50 l 258
 1375 50 1546 201 1546 469 c 258
 1546 1331 l 257
EndSplineSet
Refer: 33 65 N 1 0 0 1 0 0 2
EndChar

StartChar: uniA737
Encoding: 42807 42807 1171
Width: 1729
GlyphClass: 2
Flags: HMW
LayerCount: 2
Fore
SplineSet
145 715 m 257
 145 908 304 999 499 999 c 256
 694 999 853 908 853 715 c 258
 853 355 l 258
 853 171 945 42 1120 42 c 256
 1349 42 1460 245 1495 484 c 257
 1522 435 l 257
 1484 195 1354 -9 1102 -9 c 256
 901 -9 793 140 793 357 c 258
 793 715 l 258
 793 875 661 947 499 947 c 256
 337 947 204 875 204 715 c 257
 145 715 l 257
1495 990 m 257
 1554 990 l 257
 1554 0 l 257
 1495 0 l 257
 1495 310 l 257
 1495 990 l 257
832 543 m 257
 832 490 l 257
 482 490 l 258
 302 490 178 425 178 262 c 256
 178 126 244 42 422 42 c 256
 630 42 775 217 807 272 c 257
 840 251 l 257
 805 177 638 -11 405 -11 c 256
 232 -11 117 82 117 258 c 256
 117 468 272 543 482 543 c 258
 832 543 l 257
EndSplineSet
EndChar

StartChar: uniA738
Encoding: 42808 42808 1172
Width: 1683
GlyphClass: 2
Flags: HMW
LayerCount: 2
Fore
SplineSet
261 466 m 257
 885 466 l 257
 574 1292 l 257
 261 466 l 257
241 411 m 257
 85 0 l 257
 22 0 l 257
 530 1331 l 257
 618 1331 l 257
 1109 39 l 257
 1598 1331 l 257
 1661 1331 l 257
 1153 0 l 257
 1061 0 l 257
 906 411 l 257
 241 411 l 257
EndSplineSet
EndChar

StartChar: uniA739
Encoding: 42809 42809 1173
Width: 1578
GlyphClass: 2
Flags: HMW
LayerCount: 2
Fore
SplineSet
145 715 m 257
 145 908 304 999 499 999 c 256
 655 999 787 941 835 819 c 258
 1140 42 l 257
 1502 990 l 257
 1562 990 l 257
 1187 0 l 257
 1091 0 l 257
 779 799 l 258
 740 899 629 947 499 947 c 256
 337 947 204 875 204 715 c 257
 145 715 l 257
912 543 m 257
 912 490 l 257
 482 490 l 258
 302 490 178 425 178 262 c 256
 178 126 244 42 422 42 c 256
 630 42 775 217 807 272 c 257
 840 251 l 257
 805 177 638 -11 405 -11 c 256
 232 -11 117 82 117 258 c 256
 117 468 272 543 482 543 c 258
 912 543 l 257
EndSplineSet
EndChar

StartChar: uniA73A
Encoding: 42810 42810 1174
Width: 1683
GlyphClass: 2
Flags: HMW
LayerCount: 2
Fore
SplineSet
753 920 m 257
 1461 920 l 257
 1461 865 l 257
 753 865 l 257
 753 920 l 257
261 466 m 257
 885 466 l 257
 574 1292 l 257
 261 466 l 257
241 411 m 257
 85 0 l 257
 22 0 l 257
 530 1331 l 257
 618 1331 l 257
 1109 39 l 257
 1598 1331 l 257
 1661 1331 l 257
 1153 0 l 257
 1061 0 l 257
 906 411 l 257
 241 411 l 257
EndSplineSet
EndChar

StartChar: uniA73B
Encoding: 42811 42811 1175
Width: 1578
GlyphClass: 2
Flags: HMW
LayerCount: 2
Fore
SplineSet
862 703 m 257
 1412 703 l 257
 1412 650 l 257
 862 650 l 257
 862 703 l 257
145 715 m 257
 145 908 304 999 499 999 c 256
 655 999 787 941 835 819 c 258
 1140 42 l 257
 1502 990 l 257
 1562 990 l 257
 1187 0 l 257
 1091 0 l 257
 779 799 l 258
 740 899 629 947 499 947 c 256
 337 947 204 875 204 715 c 257
 145 715 l 257
912 543 m 257
 912 490 l 257
 482 490 l 258
 302 490 178 425 178 262 c 256
 178 126 244 42 422 42 c 256
 630 42 775 217 807 272 c 257
 840 251 l 257
 805 177 638 -11 405 -11 c 256
 232 -11 117 82 117 258 c 256
 117 468 272 543 482 543 c 258
 912 543 l 257
EndSplineSet
EndChar

StartChar: uniA73C
Encoding: 42812 42812 1176
Width: 1683
GlyphClass: 2
Flags: HMW
LayerCount: 2
Fore
SplineSet
241 411 m 257
 85 0 l 257
 22 0 l 257
 530 1331 l 257
 618 1331 l 257
 1109 39 l 257
 1598 1331 l 257
 1661 1331 l 257
 975 -480 l 257
 895 -480 l 257
 1077 -47 l 257
 906 411 l 257
 241 411 l 257
261 466 m 257
 885 466 l 257
 574 1292 l 257
 261 466 l 257
EndSplineSet
EndChar

StartChar: uniA73D
Encoding: 42813 42813 1177
Width: 1578
GlyphClass: 2
Flags: HMW
LayerCount: 2
Fore
SplineSet
145 715 m 257
 145 908 304 999 499 999 c 256
 655 999 787 941 835 819 c 258
 1140 42 l 257
 1502 990 l 257
 1562 990 l 257
 1006 -477 l 257
 926 -477 l 257
 1108 -44 l 257
 779 799 l 258
 740 899 629 947 499 947 c 256
 337 947 204 875 204 715 c 257
 145 715 l 257
912 543 m 257
 912 490 l 257
 482 490 l 258
 302 490 178 425 178 262 c 256
 178 126 244 42 422 42 c 256
 630 42 775 217 807 272 c 257
 840 251 l 257
 805 177 638 -11 405 -11 c 256
 232 -11 117 82 117 258 c 256
 117 468 272 543 482 543 c 258
 912 543 l 257
EndSplineSet
EndChar

StartChar: uniA760
Encoding: 42848 42848 1180
Width: 2146
GlyphClass: 2
Flags: HMW
LayerCount: 2
Fore
SplineSet
2074 1331 m 257
 2141 1331 l 257
 1630 572 l 257
 1630 0 l 257
 1570 0 l 257
 1570 572 l 257
 1101 1271 l 257
 616 0 l 257
 528 0 l 257
 22 1331 l 257
 85 1331 l 257
 572 39 l 257
 1061 1331 l 257
 1129 1331 l 257
 1601 639 l 257
 2074 1331 l 257
EndSplineSet
EndChar

StartChar: uniA761
Encoding: 42849 42849 1181
Width: 1686
GlyphClass: 2
Flags: HMW
LayerCount: 2
Fore
SplineSet
875 990 m 257
 1248 42 l 257
 1610 990 l 257
 1670 990 l 257
 1114 -477 l 257
 1034 -477 l 257
 1216 -44 l 257
 843 912 l 257
 498 0 l 257
 402 0 l 257
 16 990 l 257
 78 990 l 257
 451 42 l 257
 813 990 l 257
 875 990 l 257
EndSplineSet
EndChar

StartChar: uniAB50
Encoding: 43856 43856 1184
Width: 1798
GlyphClass: 2
Flags: HMW
LayerCount: 2
Fore
SplineSet
862 484 m 257
 922 484 l 257
 922 355 l 258
 922 171 1014 42 1189 42 c 256
 1418 42 1529 245 1564 484 c 257
 1591 435 l 257
 1553 195 1423 -9 1171 -9 c 256
 970 -9 862 140 862 357 c 258
 862 484 l 257
1564 990 m 257
 1623 990 l 257
 1623 0 l 257
 1564 0 l 257
 1564 310 l 257
 1564 990 l 257
EndSplineSet
Refer: 1199 57357 N -1 0 0 -1 1115 990 2
Refer: 14 46 N 1 0 0 1 599 835 2
EndChar

StartChar: uniAB5B
Encoding: 43867 43867 1185
Width: 922
GlyphClass: 2
Flags: HMW
LayerCount: 2
Fore
SplineSet
461 1446 m 256
 651 1446 772 1324 772 1131 c 257
 725 1131 l 257
 725 1300 631 1398 461 1398 c 256
 291 1398 197 1300 197 1131 c 257
 150 1131 l 257
 150 1324 271 1446 461 1446 c 256
EndSplineSet
EndChar

StartChar: uniE000
Encoding: 57344 57344 1186
Width: 150
GlyphClass: 2
Flags: HMW
LayerCount: 2
Fore
SplineSet
0 60 m 258
 150 60 l 257
 150 0 l 257
 0 0 l 258
 -17 0 -20 15 -20 30 c 256
 -20 45 -17 60 0 60 c 258
EndSplineSet
EndChar

StartChar: uniE001
Encoding: 57345 57345 1187
Width: 350
GlyphClass: 2
Flags: HMW
LayerCount: 2
Fore
SplineSet
0 60 m 258
 350 60 l 257
 350 0 l 257
 0 0 l 258
 -17 0 -20 15 -20 30 c 256
 -20 45 -17 60 0 60 c 258
EndSplineSet
EndChar

StartChar: uniE002
Encoding: 57346 57346 1188
Width: 510
GlyphClass: 2
Flags: HMW
LayerCount: 2
Fore
SplineSet
0 60 m 258
 510 60 l 257
 510 0 l 257
 0 0 l 258
 -17 0 -20 15 -20 30 c 256
 -20 45 -17 60 0 60 c 258
EndSplineSet
EndChar

StartChar: uniE003
Encoding: 57347 57347 1189
Width: 1961
GlyphClass: 2
Flags: HMW
LayerCount: 2
Fore
SplineSet
1248 1357 m 257
 1286 1324 l 257
 194 -63 l 257
 154 -30 l 257
 1248 1357 l 257
EndSplineSet
EndChar

StartChar: uniE004
Encoding: 57348 57348 1190
Width: 1073
GlyphClass: 2
Flags: HMW
LayerCount: 2
Fore
SplineSet
166 -33 m 257
 121 1 l 257
 908 1022 l 257
 953 990 l 257
 166 -33 l 257
EndSplineSet
EndChar

StartChar: uniE005
Encoding: 57349 57349 1191
Width: 1525
GlyphClass: 2
Flags: HMW
LayerCount: 2
Fore
SplineSet
1204 -176 m 257
 1133 -176 l 257
 854 303 l 257
 908 335 l 257
 1204 -176 l 257
EndSplineSet
EndChar

StartChar: uniE006
Encoding: 57350 57350 1192
Width: 1091
GlyphClass: 2
Flags: HMW
LayerCount: 2
Fore
SplineSet
178 162 m 257
 178 222 l 257
 913 222 l 257
 913 162 l 257
 178 162 l 257
178 442 m 257
 178 503 l 257
 913 503 l 257
 913 442 l 257
 178 442 l 257
EndSplineSet
EndChar

StartChar: uniE007
Encoding: 57351 57351 1193
Width: 976
GlyphClass: 2
Flags: HMW
LayerCount: 2
Fore
SplineSet
367 1175 m 256
 333 1175 297 1178 267 1182 c 257
 275 1228 l 257
 303 1223 337 1221 368 1221 c 256
 457 1221 575 1247 575 1339 c 256
 575 1385 513 1404 460 1418 c 256
 389 1437 316 1457 316 1550 c 256
 316 1658 404 1733 512 1733 c 256
 550 1733 582 1723 611 1712 c 257
 592 1667 l 257
 568 1677 542 1685 512 1685 c 256
 432 1685 361 1635 361 1554 c 256
 361 1493 414 1479 481 1462 c 256
 550 1444 620 1424 620 1342 c 256
 620 1222 494 1175 367 1175 c 256
EndSplineSet
EndChar

StartChar: uniE008
Encoding: 57352 57352 1194
Width: 1618
GlyphClass: 2
Flags: HMW
LayerCount: 2
Fore
SplineSet
621 1214 m 256
 621 1314 543 1405 437 1405 c 256
 331 1405 253 1315 253 1214 c 256
 253 1111 334 1025 437 1025 c 256
 540 1025 621 1111 621 1214 c 256
672 1213 m 256
 672 1081 570 974 437 974 c 256
 304 974 197 1081 197 1213 c 256
 197 1340 298 1460 437 1460 c 256
 576 1460 672 1340 672 1213 c 256
EndSplineSet
EndChar

StartChar: uniE009
Encoding: 57353 57353 1195
Width: 1274
GlyphClass: 2
Flags: HMW
LayerCount: 2
Fore
SplineSet
608 1553 m 257
 668 1553 l 257
 668 -234 l 257
 608 -234 l 257
 608 1553 l 257
EndSplineSet
EndChar

StartChar: uniE00A
Encoding: 57354 57354 1196
Width: 1351
GlyphClass: 2
Flags: HMW
LayerCount: 2
Fore
SplineSet
119 496 m 257
 119 549 l 257
 648 549 l 257
 648 496 l 257
 119 496 l 257
EndSplineSet
EndChar

StartChar: uniE00B
Encoding: 57355 57355 1197
Width: 1232
GlyphClass: 2
Flags: HMW
LayerCount: 2
Fore
SplineSet
846 251 m 257
 809 177 688 -11 411 -11 c 256
 222 -11 117 77 117 243 c 256
 117 453 264 558 504 558 c 258
 829 558 l 257
 811 504 l 257
 504 504 l 258
 295 504 177 410 177 247 c 256
 177 111 247 42 428 42 c 256
 665 42 777 217 811 272 c 257
 846 251 l 257
EndSplineSet
EndChar

StartChar: uniE00C
Encoding: 57356 57356 1198
Width: 1729
GlyphClass: 2
Flags: HMW
LayerCount: 2
Fore
SplineSet
1533 639 m 258
 1533 0 l 257
 1473 0 l 257
 1473 641 l 258
 1473 825 1390 948 1246 948 c 256
 1027 948 927 745 895 506 c 257
 865 555 l 257
 899 795 1022 999 1257 999 c 256
 1430 999 1533 856 1533 639 c 258
EndSplineSet
EndChar

StartChar: uniE00D
Encoding: 57357 57357 1199
Width: 1212
GlyphClass: 2
Flags: HMW
LayerCount: 2
Fore
SplineSet
955 584 m 258
 955 0 l 257
 895 0 l 257
 895 586 l 258
 895 830 806 947 650 947 c 256
 467 947 314 788 253 506 c 257
 215 520 l 257
 286 830 451 999 655 999 c 256
 842 999 955 856 955 584 c 258
EndSplineSet
EndChar

StartChar: uniE00E
Encoding: 57358 57358 1200
Width: 838
GlyphClass: 2
Flags: HMW
LayerCount: 2
Fore
SplineSet
707 935 m 257
 694 941 661 947 625 947 c 256
 382 947 270 725 235 486 c 257
 203 535 l 257
 241 775 376 999 637 999 c 256
 668 999 697 995 723 988 c 257
 707 935 l 257
EndSplineSet
EndChar

StartChar: uniE00F
Encoding: 57359 57359 1201
Width: 1298
GlyphClass: 2
Flags: HMW
LayerCount: 2
Fore
SplineSet
1016 495 m 256
 1016 185 848 -10 616 -10 c 256
 479 -10 340 58 243 196 c 257
 275 225 l 257
 359 106 489 42 611 42 c 256
 814 42 955 212 955 495 c 256
 955 778 814 948 611 948 c 256
 489 948 359 884 275 765 c 257
 243 794 l 257
 340 932 479 1000 616 1000 c 256
 848 1000 1016 805 1016 495 c 256
EndSplineSet
EndChar

StartChar: uniE010
Encoding: 57360 57360 1202
Width: 1626
GlyphClass: 2
Flags: HMW
LayerCount: 2
Fore
SplineSet
1205 -176 m 257
 1133 -176 l 257
 1007 62 l 257
 1044 83 l 257
 1205 -176 l 257
EndSplineSet
EndChar

StartChar: uniE011
Encoding: 57361 57361 1203
Width: 1023
GlyphClass: 2
Flags: HMW
LayerCount: 2
Fore
SplineSet
527 1331 m 257
 587 1331 l 257
 587 970 l 257
 527 970 l 257
 527 1331 l 257
527 4 m 257
 587 4 l 257
 587 -456 l 257
 527 -456 l 257
 527 4 l 257
EndSplineSet
EndChar

StartChar: uniE012
Encoding: 57362 57362 1204
Width: 1522
GlyphClass: 2
Flags: HMW
LayerCount: 2
Fore
SplineSet
1144 1174 m 257
 1288 1357 l 257
 1326 1324 l 257
 1177 1135 l 257
 1144 1174 l 257
396 143 m 257
 234 -63 l 257
 194 -30 l 257
 362 183 l 257
 396 143 l 257
EndSplineSet
EndChar

StartChar: uniE013
Encoding: 57363 57363 1205
Width: 1013
GlyphClass: 2
Flags: HMW
LayerCount: 2
Fore
SplineSet
804 887 m 257
 908 1022 l 257
 953 990 l 257
 843 847 l 257
 804 887 l 257
271 103 m 257
 166 -33 l 257
 121 1 l 257
 231 143 l 257
 271 103 l 257
EndSplineSet
EndChar

StartChar: uniE014
Encoding: 57364 57364 1206
Width: 1091
GlyphClass: 2
Flags: HMW
LayerCount: 2
Fore
SplineSet
178 302 m 257
 178 362 l 257
 913 362 l 257
 913 302 l 257
 178 302 l 257
EndSplineSet
EndChar

StartChar: uniE015
Encoding: 57365 57365 1207
Width: 1408
GlyphClass: 2
Flags: HMW
LayerCount: 2
Fore
SplineSet
1333 1029 m 257
 1333 969 l 257
 75 969 l 257
 75 1029 l 257
 1333 1029 l 257
EndSplineSet
EndChar

StartChar: uniE016
Encoding: 57366 57366 1208
Width: 410
GlyphClass: 2
Flags: HMW
LayerCount: 2
Fore
SplineSet
95 937 m 257
 95 990 l 257
 315 990 l 257
 315 937 l 257
 95 937 l 257
EndSplineSet
EndChar

StartChar: uniE017
Encoding: 57367 57367 1209
Width: 517
GlyphClass: 2
Flags: HMW
LayerCount: 2
Fore
SplineSet
464 850 m 257
 492 804 l 257
 53 551 l 257
 25 597 l 257
 464 850 l 257
EndSplineSet
EndChar

StartChar: uniE018
Encoding: 57368 57368 1210
Width: 1142
GlyphClass: 2
Flags: HMW
LayerCount: 2
Fore
SplineSet
226 83 m 257
 155 83 l 257
 917 1072 l 257
 988 1072 l 257
 226 83 l 257
EndSplineSet
EndChar

StartChar: uniE019
Encoding: 57369 57369 1211
Width: 1412
GlyphClass: 2
Flags: HMW
LayerCount: 2
Fore
SplineSet
502 -86 m 257
 588 0 l 257
 674 -86 l 257
 588 -172 l 257
 502 -86 l 257
832 -87 m 257
 918 -1 l 257
 1004 -87 l 257
 918 -173 l 257
 832 -87 l 257
666 -335 m 257
 752 -249 l 257
 838 -335 l 257
 752 -421 l 257
 666 -335 l 257
EndSplineSet
EndChar

StartChar: cedilla.rotated
Encoding: 57371 57371 1212
Width: 522
GlyphClass: 2
Flags: HMW
LayerCount: 2
Fore
SplineSet
206 -220 m 257
 123 -220 l 257
 251 193 l 257
 297 177 l 257
 206 -220 l 257
EndSplineSet
EndChar

StartChar: uniE01D
Encoding: 57373 57373 1214
Width: 458
GlyphClass: 2
Flags: HMW
LayerCount: 2
Fore
SplineSet
228 258 m 257
 358 129 l 257
 228 -0 l 257
 100 129 l 257
 228 258 l 257
EndSplineSet
EndChar

StartChar: uniE020
Encoding: 57376 57376 1217
Width: 917
GlyphClass: 2
Flags: HMW
LayerCount: 2
Fore
SplineSet
160 392 m 256
 160 573 304 704 461 704 c 256
 553 704 627 671 703 600 c 257
 669 567 l 257
 604 627 541 654 462 654 c 256
 328 654 212 543 212 395 c 256
 212 256 328 179 493 179 c 256
 576 179 660 197 768 236 c 257
 784 190 l 257
 146 -11 l 257
 133 37 l 257
 464 140 l 257
 288 140 160 237 160 392 c 256
EndSplineSet
EndChar

StartChar: uniE021
Encoding: 57377 57377 1218
Width: 484
GlyphClass: 2
Flags: HMW
LayerCount: 2
Fore
SplineSet
494 1573 m 1
 534 1555 l 1
 488.710867838 1441.25055178 448.006622517 1404 369 1404 c 0
 329.324074074 1404 292.760742188 1419.61621094 224 1460 c 0
 158.54296875 1497.57714844 140.233333333 1503 113 1503 c 0
 67.6119402985 1503 41.1751570133 1475.10607118 -14 1369 c 1
 -50 1391 l 1
 5.06119987941 1509.43352427 51.3454545455 1556 114 1556 c 0
 146.081632653 1556 168.094726562 1545.70214844 244 1505 c 0
 326.895507812 1461.80078125 347.392156863 1456 378 1456 c 0
 434.615384615 1456 455.710982659 1477.27745665 494 1573 c 1
272 1148 m 1
 272 0 l 1
 212 0 l 1
 212 1148 l 1
 272 1148 l 1
EndSplineSet
EndChar

StartChar: uniE022
Encoding: 57378 57378 1219
Width: 484
GlyphClass: 2
Flags: HMW
LayerCount: 2
Fore
SplineSet
272 0 m 257
 212 0 l 257
 212 1298 l 257
 272 1298 l 257
 272 0 l 257
EndSplineSet
EndChar

StartChar: uniE023
Encoding: 57379 57379 1220
Width: 1308
GlyphClass: 2
Flags: HMW
LayerCount: 2
Fore
SplineSet
446 714 m 256
 503 714 582 689 753 618 c 256
 929 545 1034 505 1132 485 c 257
 1132 393 l 257
 492 218 192 1 192 -291 c 256
 192 -514 404 -660 727 -660 c 256
 864 -660 1011 -631 1151 -576 c 257
 1175 -635 l 257
 1025 -693 871 -724 729 -724 c 256
 367 -724 133 -554 133 -291 c 256
 133 27 409 243 1069 440 c 257
 979 462 878 498 727 563 c 256
 571 630 498 654 446 654 c 256
 333 654 291 596 252 441 c 258
 248 425 l 257
 189 436 l 257
 193 453 l 258
 235 631 306 714 446 714 c 256
EndSplineSet
EndChar

StartChar: uniE024
Encoding: 57380 57380 1221
Width: 1004
GlyphClass: 2
Flags: HMW
LayerCount: 2
Fore
SplineSet
871 331 m 256
 871 67 613 -10 382 -10 c 256
 301 -10 219 0 133 23 c 257
 147 81 l 257
 233 58 309 50 385 50 c 256
 649 50 811 143 811 328 c 256
 811 486 701 652 467 866 c 257
 509 915 l 257
 745 701 871 508 871 331 c 256
EndSplineSet
EndChar

StartChar: uniE025
Encoding: 57381 57381 1222
Width: 556
GlyphClass: 2
Flags: HMW
LayerCount: 2
Fore
SplineSet
240 522 m 1
 296 544 l 1
 373 329 412 158 412 28 c 0
 412 -241 246 -422 -139 -573 c 1
 -161 -517 l 1
 204 -371 352 -215 352 22 c 0
 352 144 313 317 240 522 c 1
EndSplineSet
EndChar

StartChar: uniE026
Encoding: 57382 57382 1223
Width: 2484
GlyphClass: 2
Flags: HMW
LayerCount: 2
Fore
SplineSet
1532 0 m 0
 1430.43478261 0 1361.66666667 35.9259259259 1313 97 c 1
 1370 -319 1105.89003157 -493 726 -493 c 0
 360 -493 133 -349 133 11 c 0
 133 114 152 247 197 480 c 1
 255 468 l 1
 210 237 193 106 193 11 c 0
 193 -317 385 -433 726 -433 c 0
 1060 -433 1271 -323 1271 -9 c 0
 1271 119 1232 263 1127 514 c 1
 1183 538 l 1
 1293 235 l 2
 1333.26244117 124.095275674 1410 60 1544 60 c 0
 1690 60 1764.2465782 141.978114361 1782 342 c 2
 1797 511 l 1
 1859 504 l 1
 1846 351 l 2
 1828.9292985 150.090974637 1917 60 2077 60 c 0
 2219 60 2291 149 2291 320 c 0
 2291 391 2278 510 2264 576 c 1
 2324 591 l 1
 2339 517 2351 396 2351 319 c 0
 2351 108 2256 0 2076 0 c 0
 1929 0 1834 72 1809 200 c 1
 1774 67 1673 0 1532 0 c 0
EndSplineSet
EndChar

StartChar: uniE027
Encoding: 57383 57383 1224
Width: 2388
GlyphClass: 2
Flags: HMW
LayerCount: 2
Fore
SplineSet
1937 600 m 0
 1790 600 1597 494 1339 107 c 1
 1427 71 1542 60 1673 60 c 0
 1926 60 2193 99 2193 349 c 0
 2193 495 2097 600 1937 600 c 0
1937 661 m 0
 2141 661 2255 524 2255 350 c 0
 2255 68 1979 0 1672 0 c 0
 1515 0 1381 21 1287 62 c 1
 1318 -304 1118 -493 706 -493 c 0
 324 -493 133 -325 133 11 c 0
 133 112 151 244 197 480 c 1
 255 468 l 1
 211 239 193 107 193 11 c 0
 193 -295 352 -433 706 -433 c 0
 1061 -433 1231 -296 1231 -9 c 0
 1231 120 1191 264 1087 514 c 1
 1143 538 l 1
 1218 359 1260 233 1279 126 c 1
 1541 521 1764 661 1937 661 c 0
EndSplineSet
EndChar

StartChar: uniE028
Encoding: 57384 57384 1225
Width: 1604
GlyphClass: 2
Flags: HMW
LayerCount: 2
Fore
SplineSet
518 60 m 257
 889 60 l 258
 1142 60 1410 99 1410 349 c 256
 1410 495 1314 600 1154 600 c 256
 1003 600 792 495 518 60 c 257
450 60 m 257
 477 103 502 142 528 182 c 257
 528 1298 l 257
 587 1298 l 257
 587 520 l 258
 587 420 586 342 577 250 c 257
 775 521 971 661 1154 661 c 256
 1358 661 1471 524 1471 350 c 256
 1471 168 1359 0 888 0 c 258
 133 0 l 257
 133 60 l 257
 450 60 l 257
EndSplineSet
EndChar

StartChar: uniE029
Encoding: 57385 57385 1226
Width: 1170
GlyphClass: 2
Flags: HMW
LayerCount: 2
Fore
SplineSet
927 972 m 1
 890 925 l 1
 818 996 736 1032 643 1032 c 0
 449 1032 293 875 293 681 c 0
 293 494 438 393 701 393 c 0
 785 393 901 403 1020 421 c 1
 1020 356 l 1
 516 318 192 83 192 -246 c 0
 192 -509 399 -660 757 -660 c 0
 918 -660 1074 -630 1190 -576 c 1
 1214 -636 l 1
 1081 -693 918 -724 753 -724 c 0
 365 -724 133 -550 133 -260 c 0
 133 12 338 241 664 336 c 1
 402 336 234 473 234 688 c 0
 234 910 414 1091 637 1091 c 0
 745 1091 850 1048 927 972 c 1
EndSplineSet
EndChar

StartChar: uniE02A
Encoding: 57386 57386 1227
Width: 902
GlyphClass: 2
Flags: HMW
LayerCount: 2
Back
SplineSet
0 60 m 258
 2950 60 l 257
 2950 0 l 257
 0 0 l 258
 -17 0 -20 13 -20 30 c 256
 -20 47 -17 60 0 60 c 258
EndSplineSet
Fore
SplineSet
0 60 m 258
 902 60 l 257
 902 0 l 257
 0 0 l 258
 -17 0 -20 13 -20 30 c 256
 -20 47 -17 60 0 60 c 258
EndSplineSet
Colour: ffff
EndChar

StartChar: uniE02B
Encoding: 57387 57387 1228
Width: 1632
GlyphClass: 2
Flags: HMW
LayerCount: 2
Fore
SplineSet
790 60 m 256
 1225 60 1383 151 1383 522 c 258
 1383 1298 l 257
 1442 1298 l 257
 1442 522 l 258
 1442 116 1254 0 774 0 c 256
 305 0 133 95 133 355 c 256
 133 425 145 522 165 603 c 257
 218 590 l 257
 199 516 185 415 185 351 c 256
 185 136 344 60 790 60 c 256
EndSplineSet
EndChar

StartChar: uniE02C
Encoding: 57388 57388 1229
Width: 1329
GlyphClass: 2
Flags: HMW
LayerCount: 2
Fore
SplineSet
630 -495 m 256
 937 -495 1079 -337 1079 -2 c 258
 1079 1298 l 257
 1139 1298 l 257
 1139 -2 l 258
 1139 -384 966 -555 615 -555 c 256
 314 -555 133 -391 133 -107 c 256
 133 19 160 161 219 310 c 257
 274 286 l 257
 219 142 192 2 192 -107 c 256
 192 -361 344 -495 630 -495 c 256
EndSplineSet
EndChar

StartChar: uniE02D
Encoding: 57389 57389 1230
Width: 1255
GlyphClass: 2
Flags: HMW
LayerCount: 2
Fore
SplineSet
799 617 m 256
 581 617 515 336 472 136 c 257
 510 127 559 115 598 104 c 256
 711 73 805 49 889 49 c 256
 1014 49 1063 126 1063 273 c 256
 1063 451 987 617 799 617 c 256
799 676 m 256
 1027 676 1122 483 1122 261 c 256
 1122 97 1040 -11 889 -11 c 256
 795 -11 689 15 583 45 c 256
 488 72 403 91 343 91 c 256
 235 91 194 31 194 -110 c 258
 194 -773 l 257
 133 -773 l 257
 133 -110 l 258
 133 78 221 183 412 148 c 257
 458 380 543 676 799 676 c 256
EndSplineSet
EndChar

StartChar: uniE02E
Encoding: 57390 57390 1231
Width: 868
GlyphClass: 2
Flags: HMW
LayerCount: 2
Fore
SplineSet
434 50 m 256
 591 50 670 138 670 275 c 256
 670 423 571 591 434 718 c 257
 299 592 197 424 197 275 c 256
 197 138 277 50 434 50 c 256
434 -11 m 256
 249 -11 133 107 133 276 c 256
 133 453 253 631 392 761 c 257
 356 796 327 822 291 852 c 257
 329 898 l 257
 605 668 735 471 735 276 c 256
 735 107 619 -11 434 -11 c 256
EndSplineSet
EndChar

StartChar: uniE02F
Encoding: 57391 57391 1232
Width: 954
GlyphClass: 2
Flags: HMW
LayerCount: 2
Fore
SplineSet
760 26 m 257
 680 6 585 -13 474 -13 c 256
 282 -13 153 59 153 251 c 256
 153 462 254 685 467 685 c 256
 741 685 821 294 821 20 c 256
 821 -271 551 -461 119 -567 c 257
 104 -507 l 257
 537 -400 760 -224 760 26 c 257
759 88 m 257
 748 303 681 626 467 626 c 256
 291 626 213 425 213 251 c 256
 213 94 313 49 474 49 c 256
 584 49 680 68 759 88 c 257
EndSplineSet
EndChar

StartChar: uniE030
Encoding: 57392 57392 1233
Width: 0
GlyphClass: 2
Flags: HMW
LayerCount: 2
Fore
SplineSet
85 1583 m 256
 22 1583 -40 1521 -40 1451 c 256
 -40 1372 57 1338 121 1327 c 257
 155 1369 173 1413 173 1462 c 256
 173 1526 146 1583 85 1583 c 256
87 1627 m 256
 167 1627 219 1559 219 1464 c 256
 219 1289 52 1190 -178 1120 c 257
 -193 1177 -245 1266 -322 1325 c 257
 -292 1368 l 257
 -226 1321 -179 1253 -147 1178 c 257
 -61 1208 29 1248 88 1290 c 257
 14 1309 -84 1350 -84 1448 c 256
 -84 1529 -11 1627 87 1627 c 256
EndSplineSet
EndChar

StartChar: uniE031
Encoding: 57393 57393 1234
Width: 0
GlyphClass: 2
Flags: HMW
LayerCount: 2
Fore
SplineSet
219 1316 m 257
 233 1274 l 257
 -219 1131 l 257
 -233 1175 l 257
 219 1316 l 257
EndSplineSet
EndChar

StartChar: uniE032
Encoding: 57394 57394 1235
Width: 0
GlyphClass: 2
Flags: HMW
LayerCount: 2
Fore
SplineSet
85 1583 m 256
 22 1583 -40 1521 -40 1451 c 256
 -40 1372 57 1338 121 1327 c 257
 155 1369 173 1413 173 1462 c 256
 173 1526 146 1583 85 1583 c 256
87 1627 m 256
 167 1627 219 1559 219 1464 c 256
 219 1283 40 1183 -203 1113 c 257
 -218 1155 l 257
 -114 1183 12 1236 88 1290 c 257
 14 1309 -84 1350 -84 1448 c 256
 -84 1529 -11 1627 87 1627 c 256
EndSplineSet
EndChar

StartChar: uniE033
Encoding: 57395 57395 1236
Width: 0
GlyphClass: 2
Flags: HMW
LayerCount: 2
Fore
SplineSet
-5 1258 m 1
 -11 1176 -49 1130 -119 1130 c 0
 -192 1130 -230 1171 -230 1249 c 0
 -230 1290 -220 1341 -199 1401 c 1
 -161 1389 l 1
 -179 1332 -188 1288 -188 1255 c 0
 -188 1200 -163 1176 -111 1176 c 0
 -43 1176 -22 1220 -22 1361 c 2
 -22 1368 l 1
 22 1368 l 1
 22 1361 l 2
 22 1220 43 1176 111 1176 c 0
 163 1176 188 1200 188 1255 c 0
 188 1288 179 1332 161 1389 c 1
 199 1401 l 1
 220 1341 230 1290 230 1249 c 0
 230 1171 192 1130 119 1130 c 0
 49 1130 11 1176 5 1258 c 1
 -5 1258 l 1
EndSplineSet
EndChar

StartChar: uniE034
Encoding: 57396 57396 1237
Width: 0
GlyphClass: 2
Flags: HMW
LayerCount: 2
Fore
SplineSet
0 1392 m 256
 -69 1392 -107 1354 -107 1285 c 256
 -107 1216 -69 1176 0 1176 c 256
 67 1176 107 1218 107 1285 c 256
 107 1352 69 1392 0 1392 c 256
0 1437 m 256
 92 1437 153 1379 153 1285 c 256
 153 1191 93 1131 0 1131 c 256
 -93 1131 -153 1192 -153 1285 c 256
 -153 1378 -93 1437 0 1437 c 256
EndSplineSet
EndChar

StartChar: uniE035
Encoding: 57397 57397 1238
Width: 0
GlyphClass: 2
Flags: HMW
LayerCount: 2
Fore
SplineSet
-248 1148 m 1
 -196 1218 -147 1251 -93 1251 c 0
 -59 1251 -30 1239 18 1206 c 0
 57 1180 78 1171 99 1171 c 0
 137 1171 179 1203 216 1259 c 1
 254 1233 l 1
 207 1162 155 1125 100 1125 c 0
 68 1125 39 1137 -7 1168 c 0
 -48 1196 -69 1205 -92 1205 c 0
 -130 1205 -169 1177 -210 1120 c 1
 -248 1148 l 1
EndSplineSet
EndChar

StartChar: uniE036
Encoding: 57398 57398 1239
Width: 0
GlyphClass: 2
Flags: HMW
LayerCount: 2
Fore
SplineSet
147 1536 m 257
 129 1496 l 257
 103 1509 73 1516 42 1516 c 256
 -44 1516 -104 1461 -104 1382 c 256
 -104 1310 -53 1269 26 1269 c 256
 54 1269 86 1274 121 1285 c 258
 219 1316 l 257
 232 1274 l 257
 -219 1131 l 257
 -232 1175 l 257
 -37 1236 l 257
 -104 1257 -146 1313 -146 1383 c 256
 -146 1483 -61 1562 47 1562 c 256
 83 1562 116 1553 147 1536 c 257
EndSplineSet
EndChar

StartChar: uniE037
Encoding: 57399 57399 1240
Width: 0
GlyphClass: 2
Flags: HMW
LayerCount: 2
Fore
SplineSet
16 1131 m 257
 -16 1131 l 257
 -230 1392 l 257
 -195 1423 l 257
 0 1182 l 257
 195 1423 l 257
 230 1392 l 257
 16 1131 l 257
EndSplineSet
EndChar

StartChar: uniE038
Encoding: 57400 57400 1241
Width: 1748
GlyphClass: 2
Flags: HMW
LayerCount: 2
Fore
SplineSet
1566 702 m 257
 1596 604 1615 510 1615 420 c 256
 1615 101 1406 0 873 0 c 256
 346 0 134 102 134 405 c 256
 134 488 150 586 180 702 c 257
 239 683 l 257
 210 576 193 485 193 409 c 256
 193 156 373 60 873 60 c 256
 1385 60 1554 162 1554 417 c 256
 1554 499 1539 587 1509 683 c 257
 1566 702 l 257
EndSplineSet
EndChar

StartChar: uniE039
Encoding: 57401 57401 1242
Width: 1503
GlyphClass: 2
Flags: HMW
LayerCount: 2
Fore
SplineSet
1309 154 m 257
 1298 369 1232 692 1018 692 c 256
 842 692 763 491 763 317 c 256
 763 160 863 115 1024 115 c 256
 1134 115 1230 134 1309 154 c 257
1018 751 m 256
 1287 751 1370 377 1370 105 c 256
 1370 -284 1179 -493 737 -493 c 256
 337 -493 133 -324 133 8 c 256
 133 101 149 240 180 417 c 257
 239 405 l 257
 207 221 192 90 192 2 c 256
 192 -303.404157044 376 -433 741 -433 c 256
 1135 -433 1317 -251.31047619 1317 94 c 257
 1237 71 1135 53 1024 53 c 256
 832 53 704 125 704 317 c 256
 704 528 805 751 1018 751 c 256
EndSplineSet
EndChar

StartChar: uniE03A
Encoding: 57402 57402 1243
Width: 0
GlyphClass: 2
Flags: HMW
LayerCount: 2
Fore
SplineSet
-23 1432 m 257
 23 1432 l 257
 23 1111 l 257
 -23 1111 l 257
 -23 1432 l 257
EndSplineSet
EndChar

StartChar: uniE03B
Encoding: 57403 57403 1244
Width: 1792
GlyphClass: 2
Flags: HMW
LayerCount: 2
Fore
SplineSet
1588 411 m 257
 1479 385 1370 371 1285 371 c 256
 1081 371 981 454 981 623 c 256
 981 872 1114 1051 1298 1051 c 256
 1513 1051 1649 801 1649 406 c 256
 1649 90 1474 0 858 0 c 256
 320 0 133 100 133 387 c 256
 133 468 148 568 179 704 c 257
 237 689 l 257
 207 557 193 466 193 393 c 256
 193 143 359 60 861 60 c 256
 1451 60 1588 126 1588 411 c 257
1587 474 m 257
 1571 799 1462 991 1296 991 c 256
 1149 991 1040 835 1040 624 c 256
 1040 493 1117 432 1283 432 c 256
 1364 432 1472 447 1587 474 c 257
EndSplineSet
EndChar

StartChar: uniE03C
Encoding: 57404 57404 1245
Width: 1640
GlyphClass: 2
Flags: HMW
LayerCount: 2
Fore
SplineSet
175 707 m 257
 233 689 l 257
 206 579 190 486 190 407 c 256
 190 159 349 60 782 60 c 256
 1209 60 1414 140 1414 327 c 256
 1414 507 1208 706 890 936 c 257
 898 1025 l 257
 1143 1127 1397 1204 1666 1264 c 257
 1680 1204 l 257
 1382 1139 1151 1073 940 982 c 257
 939 972 l 257
 1279 710 1474 524 1474 330 c 256
 1474 106 1235 0 772 0 c 256
 310 0 133 120 133 408 c 256
 133 493 148 592 175 707 c 257
EndSplineSet
EndChar

StartChar: uniE03D
Encoding: 57405 57405 1246
Width: 1484
GlyphClass: 2
Flags: HMW
LayerCount: 2
Fore
SplineSet
1147.3125 514.438476562 m 1
 1202.6875 537.561523438 l 1
 1308.06975916 284.64472936 1350.99414062 132.60330235 1350.99414062 -9 c 0
 1350.99414062 -357.116545178 1100.56712503 -492.994140625 736 -492.994140625 c 0
 363.992205183 -492.994140625 133.005859375 -349.456311513 133.005859375 11 c 0
 133.005859375 113.754409443 151.448391415 247.183207051 196.557617188 479.74609375 c 1
 255.442382812 468.25390625 l 0
 210.55160913 236.816792707 192.994140625 106.245590292 192.994140625 11 c 0
 192.994140625 -317.082618607 388.554802675 -433.005859375 736 -433.005859375 c 0
 1076.22564774 -433.005859375 1291.00585938 -323.044057104 1291.00585938 -9 c 0
 1291.00585938 119.396700206 1251.93023352 263.355273781 1147.3125 514.438476562 c 1
EndSplineSet
EndChar

StartChar: uniE03E
Encoding: 57406 57406 1247
Width: 1462
GlyphClass: 2
Flags: HMW
LayerCount: 2
Fore
SplineSet
1291 644 m 1
 1267 588 l 1
 1217 609 1160 625 1095 625 c 0
 896 625 717 456 717 237 c 0
 717 123 807 91 936 78 c 2
 1087 63 l 2
 1219 50 1330 5 1330 -110 c 0
 1330 -390 1002 -495 710 -495 c 0
 357 -495 136 -361 136 -23 c 0
 136 109 156 232 179 355 c 1
 237 345 l 1
 216 226 196 102 196 -27 c 0
 196 -331 388 -435 706 -435 c 0
 962 -435 1273 -359 1273 -114 c 0
 1273 -26 1188 -8 1081 3 c 2
 930 18 l 2
 773 34 659 90 659 237 c 0
 659 487 861 685 1096 685 c 0
 1170 685 1234 668 1291 644 c 1
EndSplineSet
EndChar

StartChar: uniE03F
Encoding: 57407 57407 1248
Width: 1972
GlyphClass: 2
Flags: HMW
LayerCount: 2
Back
SplineSet
1453 369 m 257
 1488 116 1264 0 772 0 c 256
 310 0 137 120 137 408 c 256
 137 493 152 592 179 707 c 257
 237 689 l 257
 210 579 194 486 194 407 c 256
 194 159 349 60 782 60 c 256
 1209 60 1414 140 1414 327 c 256
 1414 507 1208 706 890 936 c 257
 898 1025 l 257
 1143 1127 1367 1184 1636 1244 c 257
 1650 1184 l 257
 1352 1119 1151 1073 940 982 c 257
 939 972 l 257
 1228 748 1392 613 1512 362 c 256
 1628 118 1729 60 1971 60 c 258
 4020 60 l 257
 4020 0 l 257
 1971 0 l 258
 1698 0 1564 92 1463 369 c 257
 1453 369 l 257
EndSplineSet
Fore
SplineSet
1453 369 m 257
 1488 116 1264 0 772 0 c 256
 310 0 137 120 137 408 c 256
 137 493 152 592 179 707 c 257
 237 689 l 257
 210 579 194 486 194 407 c 256
 194 159 349 60 782 60 c 256
 1209 60 1414 140 1414 327 c 256
 1414 507 1208 706 890 936 c 257
 898 1025 l 257
 1143 1127 1367 1184 1636 1244 c 257
 1650 1184 l 257
 1352 1119 1151 1073 940 982 c 257
 939 972 l 257
 1228 748 1392 613 1512 362 c 256
 1628 118 1729 60 1971 60 c 258
 1972 60 l 257
 1972 0 l 257
 1971 0 l 258
 1698 0 1564 92 1463 369 c 257
 1453 369 l 257
EndSplineSet
Colour: ffff
EndChar

StartChar: uniE040
Encoding: 57408 57408 1249
Width: 1627
GlyphClass: 2
Flags: HMW
LayerCount: 2
Back
SplineSet
195 483 m 1
 254 469 l 1
 212 242 192 104 192 4 c 0
 192 -288 365 -429 727 -429 c 0
 1097 -429 1293 -282 1293 -3 c 0
 1293 109 1245 262 1145 515 c 1
 1196 539 l 1
 1251 401 l 2
 1356.18759346 137.074765508 1418 60 1626 60 c 2
 3675 60 l 1
 3675 0 l 1
 1626 0 l 2
 1495 0 1387.06185567 55.0724637681 1325 152 c 1
 1407 -291 1172.54992537 -491 737 -491 c 0
 337 -491 133 -322 133 10 c 0
 133 117 154 266 195 483 c 1
EndSplineSet
Fore
SplineSet
195 483 m 1
 254 469 l 1
 212 242 192 104 192 4 c 0
 192 -288 365 -429 727 -429 c 0
 1097 -429 1293 -282 1293 -3 c 0
 1293 109 1245 262 1145 515 c 1
 1196 539 l 1
 1251 401 l 2
 1356.18759346 137.074765508 1418 60 1626 60 c 2
 1627 60 l 1
 1627 0 l 1
 1626 0 l 2
 1494.63573883 0 1387.06185567 55.0724637681 1325 152 c 1
 1407 -291 1172.54992537 -491 737 -491 c 0
 337 -491 133 -322 133 10 c 0
 133 117 154 266 195 483 c 1
EndSplineSet
Colour: ffff
EndChar

StartChar: uniE041
Encoding: 57409 57409 1250
Width: 570
GlyphClass: 2
Flags: HMW
LayerCount: 2
Fore
SplineSet
380 709 m 257
 413 580.452054795 437 463.246575342 437 364 c 256
 437 141 334 0 61 0 c 258
 0 0 l 258
 -17 0 -20 13 -20 30 c 256
 -20 47 -17 60 0 60 c 258
 61 60 l 258
 297 60 382 170 382 352 c 256
 382 446.459833795 356 561.700831025 324 693 c 257
 380 709 l 257
EndSplineSet
EndChar

StartChar: uniE042
Encoding: 57410 57410 1251
Width: 854
GlyphClass: 2
Flags: HMW
LayerCount: 2
Back
SplineSet
458 428 m 258
 458 207 512 60 758 60 c 258
 2902 60 l 257
 2902 0 l 257
 754 0 l 258
 580 0 455 84 426 246 c 257
 396 83 241 0 60 0 c 2
 0 0 l 256
 -17 0 -20 13 -20 30 c 256
 -20 47 -17 60 0 60 c 256
 60 60 l 2
 340 60 397 209 397 428 c 258
 397 546 l 257
 458 546 l 257
 458 428 l 258
EndSplineSet
Fore
SplineSet
458 428 m 258
 458 207 512 60 758 60 c 258
 854 60 l 257
 854 0 l 257
 754 0 l 258
 580 0 455 84 426 246 c 257
 396 83 241 0 60 0 c 258
 0 0 l 258
 -17 0 -20 13 -20 30 c 256
 -20 47 -17 60 0 60 c 258
 60 60 l 258
 340 60 397 209 397 428 c 258
 397 546 l 257
 458 546 l 257
 458 428 l 258
EndSplineSet
Colour: ffff
EndChar

StartChar: uniE043
Encoding: 57411 57411 1252
Width: 1404
GlyphClass: 2
Flags: HMW
LayerCount: 2
Back
SplineSet
951 -10 m 1
 1208 -74 1304 -132 1304 -250 c 0
 1304 -429 1054 -554 697 -554 c 0
 309 -554 133 -406 133 -79 c 0
 133 13 150 172 180 374 c 1
 239 362 l 1
 209 167 193 10 193 -79 c 0
 193 -374 338 -494 693 -494 c 0
 1019 -494 1241 -395 1241 -249 c 0
 1241 -145 1144 -97 741 -1 c 1
 748 60 l 1
 3452 60 l 1
 3452 0 l 1
 951 0 l 1
 951 -10 l 1
EndSplineSet
Fore
SplineSet
951 -10 m 1
 1208 -74 1304 -132 1304 -250 c 0
 1304 -429 1054 -554 697 -554 c 0
 309 -554 133 -406 133 -79 c 0
 133 13 150 172 180 374 c 1
 239 362 l 1
 209 167 193 10 193 -79 c 0
 193 -374 338 -494 693 -494 c 0
 1019 -494 1241 -395 1241 -249 c 0
 1241 -145 1144 -97 741 -1 c 1
 748 60 l 1
 1404 60 l 1
 1404 0 l 1
 951 0 l 1
 951 -10 l 1
EndSplineSet
Colour: ffff
EndChar

StartChar: uniE044
Encoding: 57412 57412 1253
Width: 576
GlyphClass: 2
Flags: HMW
LayerCount: 2
Back
SplineSet
190 1298 m 257
 250 1298 l 257
 250 382 l 258
 250 156 327 60 575 60 c 258
 2624 60 l 257
 2624 0 l 257
 575 0 l 258
 312 0 190 125 190 382 c 258
 190 1298 l 257
EndSplineSet
Fore
SplineSet
190 1298 m 257
 250 1298 l 257
 250 382 l 258
 250 156 327 60 575 60 c 258
 576 60 l 257
 576 0 l 257
 575 0 l 258
 312 0 190 125 190 382 c 258
 190 1298 l 257
EndSplineSet
Colour: ffff
EndChar

StartChar: uniE045
Encoding: 57413 57413 1254
Width: 1306
GlyphClass: 2
Flags: HMW
LayerCount: 2
Back
SplineSet
446 714 m 0
 503 714 582 689 753 618 c 0
 929 545 1034 505 1132 485 c 1
 1132 393 l 1
 1035 366 946 339 864 310 c 1
 946 114 1026 60 1231 60 c 2
 3354 60 l 1
 3354 0 l 1
 1226 0 l 2
 1009 0 902 75 811 291 c 1
 391 135 192 -53 192 -291 c 0
 192 -514 404 -660 727 -660 c 0
 864 -660 1011 -631 1151 -576 c 1
 1175 -635 l 1
 1025 -693 871 -724 729 -724 c 0
 367 -724 133 -554 133 -291 c 0
 133 27 409 243 1069 440 c 1
 979 462 878 498 727 563 c 0
 571 630 498 654 446 654 c 0
 333 654 291 596 252 441 c 2
 248 425 l 1
 189 436 l 1
 193 453 l 2
 235 631 306 714 446 714 c 0
EndSplineSet
Fore
SplineSet
446 714 m 256
 503 714 582 689 753 618 c 256
 929 545 1034 505 1132 485 c 257
 1132 393 l 257
 1035 366 946 339 864 310 c 257
 946 114 1026 60 1231 60 c 258
 1306 60 l 257
 1306 0 l 257
 1226 0 l 258
 1009 0 902 75 811 291 c 257
 391 135 192 -53 192 -291 c 256
 192 -514 404 -660 727 -660 c 256
 864 -660 1011 -631 1151 -576 c 257
 1175 -635 l 257
 1025 -693 871 -724 729 -724 c 256
 367 -724 133 -554 133 -291 c 256
 133 27 409 243 1069 440 c 257
 979 462 878 498 727 563 c 256
 571 630 498 654 446 654 c 256
 333 654 291 596 252 441 c 258
 248 425 l 257
 189 436 l 257
 193 453 l 258
 235 631 306 714 446 714 c 256
EndSplineSet
Colour: ffff
EndChar

StartChar: uniE046
Encoding: 57414 57414 1255
Width: 1206
GlyphClass: 2
Flags: HMW
LayerCount: 2
Fore
SplineSet
380 734 m 256
 437 734 516 709 687 638 c 256
 863 565 975 527 1073 507 c 257
 1073 442 l 257
 610 163 l 258
 462.795898438 74.2958984375 298 0 62 0 c 258
 0 0 l 258
 -14 0 -20 10 -20 30 c 256
 -20 50 -14 60 0 60 c 258
 62 60 l 258
 285 60 436.280273438 129.524414062 576 211 c 258
 1003 460 l 257
 913 482 812 518 661 583 c 256
 505 650 432 674 380 674 c 256
 267 674 225 616 186 461 c 258
 182 445 l 257
 123 456 l 257
 127 473 l 258
 169 651 240 734 380 734 c 256
EndSplineSet
EndChar

StartChar: uniE047
Encoding: 57415 57415 1256
Width: 1252
GlyphClass: 2
Flags: HMW
LayerCount: 2
Back
SplineSet
380 734 m 0
 437 734 516 709 687 638 c 0
 863 565 975 527 1073 507 c 1
 1073 442 l 1
 800 278 l 1
 910 112 1014 60 1161 60 c 2
 3300 60 l 1
 3300 0 l 1
 1155 0 l 2
 1005 0 873 58 749 247 c 1
 610 163 l 2
 463 74 298 0 62 0 c 2
 0 0 l 2
 -14 0 -20 10 -20 30 c 0
 -20 50 -14 60 0 60 c 2
 62 60 l 2
 285 60 436 130 576 211 c 2
 1003 460 l 1
 913 482 812 518 661 583 c 0
 505 650 432 674 380 674 c 0
 267 674 225 616 186 461 c 2
 182 445 l 1
 123 456 l 1
 127 473 l 2
 169 651 240 734 380 734 c 0
EndSplineSet
Fore
SplineSet
380 734 m 0
 437 734 516 709 687 638 c 0
 863 565 975 527 1073 507 c 1
 1073 442 l 1
 800 278 l 1
 910 112 1014 60 1161 60 c 2
 1252 60 l 1
 1252 0 l 1
 1155 0 l 2
 1005 0 873 58 749 247 c 1
 610 163 l 2
 463 74 298 0 62 0 c 2
 0 0 l 2
 -14 0 -20 10 -20 30 c 0
 -20 50 -14 60 0 60 c 2
 62 60 l 2
 285 60 436 130 576 211 c 2
 1003 460 l 1
 913 482 812 518 661 583 c 0
 505 650 432 674 380 674 c 0
 267 674 225 616 186 461 c 2
 182 445 l 1
 123 456 l 1
 127 473 l 2
 169 651 240 734 380 734 c 0
EndSplineSet
Colour: ffff
EndChar

StartChar: uniE048
Encoding: 57416 57416 1257
Width: 1268
GlyphClass: 2
Flags: HMW
LayerCount: 2
Back
SplineSet
663 903 m 1
 941 257 l 2
 1006 107 1096 60 1247 60 c 2
 3316 60 l 1
 3316 0 l 1
 1247 0 l 2
 1081 0 957 60 890 217 c 1
 808 69 653 -10 489 -10 c 0
 367 -10 240 34 133 129 c 1
 173 178 l 1
 270 90 384 51 491 51 c 0
 643 51 787 129 866 273 c 1
 602 874 l 1
 663 903 l 1
EndSplineSet
Fore
SplineSet
663 903 m 257
 941 257 l 258
 1006 107 1096 60 1247 60 c 258
 1268 60 l 257
 1268 0 l 257
 1247 0 l 258
 1081 0 957 60 890 217 c 257
 808 69 653 -10 489 -10 c 256
 367 -10 240 34 133 129 c 257
 173 178 l 257
 270 90 384 51 491 51 c 256
 643 51 787 129 866 273 c 257
 602 874 l 257
 663 903 l 257
EndSplineSet
Colour: ffff
EndChar

StartChar: uniE049
Encoding: 57417 57417 1258
Width: 743
GlyphClass: 2
Flags: HMW
LayerCount: 2
Back
SplineSet
240 522 m 1
 296 544 l 1
 355 362 l 2
 424.044747985 149.014506215 516 60 742 60 c 2
 2791 60 l 1
 2791 0 l 1
 742 0 l 2
 588 0 463 59 401 160 c 1
 455.895913396 -216.429120428 293.033738992 -403.553001071 -139 -573 c 1
 -161 -517 l 1
 204 -371 352 -215 352 22 c 0
 352 144 313 317 240 522 c 1
EndSplineSet
Fore
SplineSet
240 522 m 1
 296 544 l 1
 355 362 l 2
 424.044747985 149.014506215 516 60 742 60 c 2
 743 60 l 1
 743 0 l 1
 742 0 l 2
 588 0 463 59 401 160 c 1
 455.895913396 -216.429120428 293.033738992 -403.553001071 -139 -573 c 1
 -161 -517 l 1
 204 -371 352 -215 352 22 c 0
 352 144 313 317 240 522 c 1
EndSplineSet
Colour: ffff
EndChar

StartChar: uniE04A
Encoding: 57418 57418 1259
Width: 2736
GlyphClass: 2
Flags: HMW
LayerCount: 2
Back
SplineSet
2323 271 m 257
 2311.13867188 86 2227.60784314 0 2072 0 c 0
 1928.09433962 0 1833.62546816 72 1809 200 c 1
 1774 67 1673 0 1532 0 c 0
 1430.43478261 0 1361.66666667 35.9259259259 1313 97 c 1
 1370 -319 1105.89003157 -493 726 -493 c 0
 360 -493 133 -349 133 11 c 0
 133 114 152 247 197 480 c 1
 255 468 l 1
 210 237 193 106 193 11 c 0
 193 -317 385 -433 726 -433 c 0
 1060 -433 1271 -323 1271 -9 c 0
 1271 119 1232 263 1127 514 c 1
 1183 538 l 1
 1293 235 l 2
 1333.26244117 124.095275675 1410 60 1544 60 c 0
 1690 60 1764.2465782 141.978114361 1782 342 c 2
 1797 511 l 1
 1859 504 l 1
 1846 351 l 2
 1828.92266534 150.012907429 1916.68995633 60 2074 60 c 0
 2217 60 2282 144 2282 316 c 256
 2282 386 2271 480 2251 573 c 257
 2311 585 l 257
 2338 400 l 258
 2372.88356125 160.983006237 2491 60 2734 60 c 258
 4784 60 l 257
 4784 0 l 257
 2734 0 l 258
 2508 0 2365 99 2333 271 c 257
 2323 271 l 257
EndSplineSet
Fore
SplineSet
2323 271 m 257
 2311.13867188 86 2227.60784314 0 2072 0 c 0
 1928.09433962 0 1833.62546816 72 1809 200 c 1
 1774 67 1673 0 1532 0 c 0
 1430.43478261 0 1361.66666667 35.9259259259 1313 97 c 1
 1370 -319 1105.89003157 -493 726 -493 c 0
 360 -493 133 -349 133 11 c 0
 133 114 152 247 197 480 c 1
 255 468 l 1
 210 237 193 106 193 11 c 0
 193 -317 385 -433 726 -433 c 0
 1060 -433 1271 -323 1271 -9 c 0
 1271 119 1232 263 1127 514 c 1
 1183 538 l 1
 1293 235 l 2
 1333.26244117 124.095275675 1410 60 1544 60 c 0
 1690 60 1764.2465782 141.978114361 1782 342 c 2
 1797 511 l 1
 1859 504 l 1
 1846 351 l 2
 1828.92266534 150.012907429 1916.68995633 60 2074 60 c 0
 2217 60 2282 144 2282 316 c 256
 2282 386 2271 480 2251 573 c 257
 2311 585 l 257
 2338 400 l 258
 2372.88356125 160.983006237 2491 60 2734 60 c 258
 2736 60 l 257
 2736 0 l 257
 2734 0 l 258
 2508 0 2365 99 2333 271 c 257
 2323 271 l 257
EndSplineSet
Colour: ffff
EndChar

StartChar: uniE04B
Encoding: 57419 57419 1260
Width: 1649
GlyphClass: 2
Flags: HMW
LayerCount: 2
Fore
SplineSet
708 60 m 256
 854 60 928 142 946 342 c 258
 962 511 l 257
 1024 504 l 257
 1011 351 l 258
 995 150 1082 60 1242 60 c 256
 1384 60 1456 148 1456 321 c 256
 1456 396 1442 534 1429 596 c 257
 1488 611 l 257
 1502 542 1516 402 1516 322 c 256
 1516 110 1422 0 1241 0 c 256
 1094 0 999 72 974 200 c 257
 939 67 847 0 706 0 c 256
 549 0 452 85 434 238 c 257
 401 96 251 0 61 0 c 258
 0 0 l 258
 -14 0 -20 9 -20 30 c 256
 -20 51 -14 60 0 60 c 258
 61 60 l 258
 290 60 397 168 424 437 c 258
 436 555 l 257
 498 548 l 257
 480 374 l 258
 459 170 539 60 708 60 c 256
EndSplineSet
EndChar

StartChar: uniE04C
Encoding: 57420 57420 1261
Width: 1901
GlyphClass: 2
Flags: HMW
LayerCount: 2
Back
SplineSet
1488 271 m 257
 1476 86 1393 0 1234 0 c 256
 1088 0 999 72 974 200 c 257
 939 67 847 0 707 0 c 256
 549 0 452 85 434 238 c 257
 401 96 251 0 61 0 c 258
 0 0 l 258
 -14 0 -20 9 -20 30 c 256
 -20 51 -14 60 0 60 c 258
 61 60 l 258
 290 60 397 168 424 437 c 258
 436 555 l 257
 498 548 l 257
 480 374 l 258
 459 170 539 60 708 60 c 256
 854 60 928 142 946 342 c 258
 962 511 l 257
 1024 504 l 257
 1011 351 l 258
 995 150 1082 60 1234 60 c 256
 1381 60 1447 144 1447 316 c 256
 1447 386 1436 480 1416 573 c 257
 1476 585 l 257
 1503 400 l 258
 1538 161 1656 60 1899 60 c 258
 3949 60 l 257
 3949 0 l 257
 1899 0 l 258
 1673 0 1530 99 1498 271 c 257
 1488 271 l 257
EndSplineSet
Fore
SplineSet
1488 271 m 257
 1476 86 1393 0 1234 0 c 256
 1088 0 999 72 974 200 c 257
 939 67 847 0 707 0 c 256
 549 0 452 85 434 238 c 257
 401 96 251 0 61 0 c 258
 0 0 l 258
 -14 0 -20 9 -20 30 c 256
 -20 51 -14 60 0 60 c 258
 61 60 l 258
 290 60 397 168 424 437 c 258
 436 555 l 257
 498 548 l 257
 480 374 l 258
 459 170 539 60 708 60 c 256
 854 60 928 142 946 342 c 258
 962 511 l 257
 1024 504 l 257
 1011 351 l 258
 995 150 1082 60 1234 60 c 256
 1381 60 1447 144 1447 316 c 256
 1447 386 1436 480 1416 573 c 257
 1476 585 l 257
 1503 400 l 258
 1538 161 1656 60 1899 60 c 258
 1901 60 l 257
 1901 0 l 257
 1899 0 l 258
 1673 0 1530 99 1498 271 c 257
 1488 271 l 257
EndSplineSet
Colour: ffff
EndChar

StartChar: uniE04D
Encoding: 57421 57421 1262
Width: 2468
GlyphClass: 2
Flags: HMW
LayerCount: 2
Back
SplineSet
1937 600 m 0
 1790 600 1597 494 1339 107 c 1
 1427 71 1542 60 1673 60 c 0
 1926 60 2193 99 2193 349 c 0
 2193 495 2097 600 1937 600 c 0
1937 661 m 0
 2141 661 2255 524 2255 350 c 0
 2255 260 2227 191 2178 140 c 1
 2242 86 2336 60 2467 60 c 2
 4516 60 l 1
 4516 0 l 1
 2467 0 l 2
 2328 0 2214 33 2135 103 c 1
 2026 24 1855 0 1672 0 c 0
 1515 0 1381 21 1287 62 c 1
 1318 -304 1118 -493 706 -493 c 0
 324 -493 133 -325 133 11 c 0
 133 112 151 244 197 480 c 1
 255 468 l 1
 211 239 193 107 193 11 c 0
 193 -295 352 -433 706 -433 c 0
 1061 -433 1231 -296 1231 -9 c 0
 1231 120 1191 264 1087 514 c 1
 1143 538 l 1
 1218 359 1260 233 1279 126 c 1
 1541 521 1764 661 1937 661 c 0
EndSplineSet
Fore
SplineSet
1937 600 m 0
 1790 600 1597 494 1339 107 c 1
 1427 71 1542 60 1673 60 c 0
 1926 60 2193 99 2193 349 c 0
 2193 495 2097 600 1937 600 c 0
1937 661 m 0
 2141 661 2255 524 2255 350 c 0
 2255 260 2227 191 2178 140 c 1
 2242 86 2336 60 2467 60 c 2
 2468 60 l 1
 2468 0 l 1
 2467 0 l 2
 2328 0 2214 33 2135 103 c 1
 2026 24 1855 0 1672 0 c 0
 1515 0 1381 21 1287 62 c 1
 1318 -304 1118 -493 706 -493 c 0
 324 -493 133 -325 133 11 c 0
 133 112 151 244 197 480 c 1
 255 468 l 1
 211 239 193 107 193 11 c 0
 193 -295 352 -433 706 -433 c 0
 1061 -433 1231 -296 1231 -9 c 0
 1231 120 1191 264 1087 514 c 1
 1143 538 l 1
 1218 359 1260 233 1279 126 c 1
 1541 521 1764 661 1937 661 c 0
EndSplineSet
Colour: ffff
EndChar

StartChar: uniE04E
Encoding: 57422 57422 1263
Width: 1615
GlyphClass: 2
Flags: HMW
LayerCount: 2
Fore
SplineSet
1165 600 m 256
 1018 600 825 494 567 107 c 257
 655 71 770 60 901 60 c 256
 1154 60 1421 99 1421 349 c 256
 1421 495 1325 600 1165 600 c 256
326 546 m 257
 386 546 l 257
 386 455 l 258
 386 243 433 185 512 135 c 257
 775 533 992 661 1165 661 c 256
 1369 661 1482 524 1482 350 c 256
 1482 68 1207 0 900 0 c 256
 603 0 418 71 360 246 c 257
 330 83 191 0 10 0 c 258
 0 0 l 258
 -17 0 -20 13 -20 30 c 256
 -20 47 -17 60 0 60 c 258
 10 60 l 258
 290 60 326 209 326 428 c 258
 326 546 l 257
EndSplineSet
EndChar

StartChar: uniE04F
Encoding: 57423 57423 1264
Width: 1697
GlyphClass: 2
Flags: HMW
LayerCount: 2
Back
SplineSet
326 546 m 257
 386 546 l 257
 386 455 l 258
 386 243 433 185 512 135 c 257
 775 533 992 661 1165 661 c 256
 1369 661 1482 524 1482 350 c 256
 1482 260 1454 191 1405 140 c 257
 1469 86 1565 60 1696 60 c 258
 3745 60 l 257
 3745 0 l 257
 1696 0 l 258
 1557 0 1441 33 1362 103 c 257
 1253 24 1082 0 900 0 c 256
 603 0 418 71 360 246 c 257
 330 83 191 0 10 0 c 258
 0 0 l 258
 -17 0 -20 13 -20 30 c 256
 -20 47 -17 60 0 60 c 258
 10 60 l 258
 290 60 326 209 326 428 c 258
 326 546 l 257
1165 600 m 256
 1018 600 825 494 567 107 c 257
 655 71 770 60 901 60 c 256
 1154 60 1421 99 1421 349 c 256
 1421 495 1325 600 1165 600 c 256
EndSplineSet
Fore
SplineSet
326 546 m 257
 386 546 l 257
 386 455 l 258
 386 243 433 185 512 135 c 257
 775 533 992 661 1165 661 c 256
 1369 661 1482 524 1482 350 c 256
 1482 260 1454 191 1405 140 c 257
 1469 86 1565 60 1696 60 c 258
 1697 60 l 257
 1697 0 l 257
 1696 0 l 258
 1557 0 1441 33 1362 103 c 257
 1253 24 1082 0 900 0 c 256
 603 0 418 71 360 246 c 257
 330 83 191 0 10 0 c 258
 0 0 l 258
 -17 0 -20 13 -20 30 c 256
 -20 47 -17 60 0 60 c 258
 10 60 l 258
 290 60 326 209 326 428 c 258
 326 546 l 257
1165 600 m 256
 1018 600 825 494 567 107 c 257
 655 71 770 60 901 60 c 256
 1154 60 1421 99 1421 349 c 256
 1421 495 1325 600 1165 600 c 256
EndSplineSet
Colour: ffff
EndChar

StartChar: uniE050
Encoding: 57424 57424 1265
Width: 1719
GlyphClass: 2
Flags: HMW
LayerCount: 2
Back
SplineSet
518 60 m 1
 889 60 l 2
 1142 60 1410 99 1410 349 c 0
 1410 495 1314 600 1154 600 c 0
 1003 600 792 495 518 60 c 1
450 60 m 1
 477 103 502 142 528 182 c 1
 528 1298 l 1
 587 1298 l 1
 587 520 l 2
 587 420 586 342 577 250 c 1
 775 521 971 661 1154 661 c 0
 1358 661 1471 524 1471 350 c 0
 1471 276 1450 216 1417 168 c 1
 1482 100 1578 60 1718 60 c 2
 3767 60 l 1
 3767 0 l 1
 1718 0 l 2
 1556 0 1463 56 1383 130 c 1
 1278 31 1090 0 888 0 c 2
 133 0 l 1
 133 60 l 1
 450 60 l 1
EndSplineSet
Fore
SplineSet
518 60 m 257
 889 60 l 258
 1142 60 1410 99 1410 349 c 256
 1410 495 1314 600 1154 600 c 256
 1003 600 792 495 518 60 c 257
450 60 m 257
 477 103 502 142 528 182 c 257
 528 1298 l 257
 587 1298 l 257
 587 520 l 258
 587 420 586 342 577 250 c 257
 775 521 971 661 1154 661 c 256
 1358 661 1471 524 1471 350 c 256
 1471 276 1450 216 1417 168 c 257
 1482 100 1578 60 1718 60 c 258
 1719 60 l 257
 1719 0 l 257
 1718 0 l 258
 1556 0 1463 56 1383 130 c 257
 1278 31 1090 0 888 0 c 258
 133 0 l 257
 133 60 l 257
 450 60 l 257
EndSplineSet
Colour: ffff
EndChar

StartChar: uniE051
Encoding: 57425 57425 1266
Width: 1336
GlyphClass: 2
Flags: HMW
LayerCount: 2
Fore
SplineSet
0 0 m 258
 -17 0 -20 13 -20 30 c 256
 -20 47 -17 60 0 60 c 258
 182 60 l 257
 209 103 234 142 260 182 c 257
 260 1298 l 257
 319 1298 l 257
 319 520 l 258
 319 420 318 342 309 250 c 257
 507 521 703 661 886 661 c 256
 1090 661 1203 524 1203 350 c 256
 1203 168 1091 0 620 0 c 258
 0 0 l 258
250 60 m 257
 621 60 l 258
 874 60 1142 99 1142 349 c 256
 1142 495 1046 600 886 600 c 256
 735 600 524 495 250 60 c 257
EndSplineSet
EndChar

StartChar: uniE052
Encoding: 57426 57426 1267
Width: 1453
GlyphClass: 2
Flags: HMW
LayerCount: 2
Back
SplineSet
0 0 m 2
 -17 0 -20 13 -20 30 c 0
 -20 47 -17 60 0 60 c 2
 184 60 l 1
 211 103 236 142 262 182 c 1
 262 1298 l 1
 321 1298 l 1
 321 520 l 2
 321 420 320 342 311 250 c 1
 509 521 705 661 888 661 c 0
 1092 661 1205 524 1205 350 c 0
 1205 276 1184 216 1151 168 c 1
 1216 100 1312 60 1452 60 c 2
 3501 60 l 1
 3501 0 l 1
 1452 0 l 2
 1290 0 1197 56 1117 130 c 1
 1012 31 824 0 622 0 c 2
 0 0 l 2
252 60 m 1
 623 60 l 2
 876 60 1144 99 1144 349 c 0
 1144 495 1048 600 888 600 c 0
 737 600 526 495 252 60 c 1
EndSplineSet
Fore
SplineSet
0 0 m 258
 -17 0 -20 13 -20 30 c 256
 -20 47 -17 60 0 60 c 258
 184 60 l 257
 211 103 236 142 262 182 c 257
 262 1298 l 257
 321 1298 l 257
 321 520 l 258
 321 420 320 342 311 250 c 257
 509 521 705 661 888 661 c 256
 1092 661 1205 524 1205 350 c 256
 1205 276 1184 216 1151 168 c 257
 1216 100 1312 60 1452 60 c 258
 1453 60 l 257
 1453 0 l 257
 1452 0 l 258
 1290 0 1197 56 1117 130 c 257
 1012 31 824 0 622 0 c 258
 0 0 l 258
252 60 m 257
 623 60 l 258
 876 60 1144 99 1144 349 c 256
 1144 495 1048 600 888 600 c 256
 737 600 526 495 252 60 c 257
EndSplineSet
Colour: ffff
EndChar

StartChar: uniE053
Encoding: 57427 57427 1268
Width: 1183
GlyphClass: 2
Flags: HMW
LayerCount: 2
Back
SplineSet
944 511 m 0
 944 623 819 700 638 700 c 0
 488 700 371 668 257 596 c 1
 257 590 l 1
 650 198 l 1
 846 299 944 403 944 511 c 0
1003 509 m 0
 1003 381 906 267 703 156 c 1
 770 83.2727272727 841 60 999 60 c 2
 3231 60 l 1
 3231 0 l 1
 990 0 l 2
 808 0 729 27.6315789474 637 125 c 1
 311 -51 192 -186 192 -380 c 0
 192 -605 418 -700 716 -700 c 0
 826 -700 947 -687 1069 -663 c 1
 1081 -726 l 1
 948 -751 821 -765 705 -765 c 0
 373 -765 133 -653 133 -380 c 0
 133 -167 261 -11 586 168 c 1
 198 556 l 1
 198 630 l 1
 348 722 477 761 635 761 c 0
 860 761 1003 663 1003 509 c 0
EndSplineSet
Fore
SplineSet
944 511 m 0
 944 623 819 700 638 700 c 0
 488 700 371 668 257 596 c 1
 257 590 l 1
 650 198 l 1
 846 299 944 403 944 511 c 0
1003 509 m 0
 1003 381 906 267 703 156 c 1
 770 83.2727272727 841 60 999 60 c 2
 1183 60 l 1
 1183 0 l 1
 990 0 l 2
 808 0 729 27.6315789474 637 125 c 1
 311 -51 192 -186 192 -380 c 0
 192 -605 418 -700 716 -700 c 0
 826 -700 947 -687 1069 -663 c 1
 1081 -726 l 1
 948 -751 821 -765 705 -765 c 0
 373 -765 133 -653 133 -380 c 0
 133 -167 261 -11 586 168 c 1
 198 556 l 1
 198 630 l 1
 348 722 477 761 635 761 c 0
 860 761 1003 663 1003 509 c 0
EndSplineSet
Colour: ffff
EndChar

StartChar: uniE054
Encoding: 57428 57428 1269
Width: 1090
GlyphClass: 2
Flags: HMW
LayerCount: 2
Fore
SplineSet
220 413 m 256
 220 221 355 114 598 114 c 256
 657 114 746 122 872 141 c 258
 931 150 l 257
 940 90 l 257
 880 80 l 258
 578 32 237 0 44 0 c 258
 0 0 l 258
 -14 0 -20 10 -20 30 c 256
 -20 50 -14 60 0 60 c 258
 44 60 l 258
 177 60 302 66 427 77 c 257
 262 116 160 245 160 413 c 256
 160 641 328 812 552 812 c 256
 656 812 760 776 846 710 c 257
 810 662 l 257
 734 720 642 752 552 752 c 256
 362 752 220 608 220 413 c 256
EndSplineSet
EndChar

StartChar: uniE055
Encoding: 57429 57429 1270
Width: 1188
GlyphClass: 2
Flags: HMW
LayerCount: 2
Back
SplineSet
612 700 m 0
 461 700 347 669 231 596 c 1
 231 590 l 1
 624 198 l 1
 799 288 918 392 918 511 c 0
 918 651 747 700 612 700 c 0
609 761 m 0
 790 761 978 694 978 509 c 0
 978 362 849 250 677 156 c 1
 765 60 865 60 974 60 c 2
 3236 60 l 1
 3236 0 l 1
 963 0 l 2
 823 0 725 6.57894736842 611 125 c 1
 487 51.3157894737 360 0 179 0 c 2
 0 0 l 2
 -16 0 -20 13 -20 30 c 0
 -20 47 -16 60 0 60 c 2
 169 60 l 2
 334 60 450 104.307692308 560 168 c 1
 172 556 l 1
 172 630 l 1
 304 712 430 761 609 761 c 0
EndSplineSet
Fore
SplineSet
612 700 m 256
 461 700 347 669 231 596 c 257
 231 590 l 257
 624 198 l 257
 799 288 918 392 918 511 c 256
 918 651 747 700 612 700 c 256
609 761 m 256
 790 761 978 694 978 509 c 256
 978 362 849 250 677 156 c 257
 765 60 865 60 974 60 c 258
 1188 60 l 257
 1188 0 l 257
 963 0 l 258
 823 0 725 6.57894736842 611 125 c 257
 487 51.3157894737 360 0 179 0 c 258
 0 0 l 258
 -16 0 -20 13 -20 30 c 256
 -20 47 -16 60 0 60 c 258
 169 60 l 258
 334 60 450 104.307692308 560 168 c 257
 172 556 l 257
 172 630 l 257
 304 712 430 761 609 761 c 256
EndSplineSet
Colour: ffff
EndChar

StartChar: uniE056
Encoding: 57430 57430 1271
Width: 1837
GlyphClass: 2
Flags: HMW
LayerCount: 2
Back
SplineSet
1442 522 m 2
 1442 187 1550 60 1836 60 c 2
 3885 60 l 1
 3885 0 l 1
 1836 0 l 2
 1596 0 1440 114 1413 310 c 1
 1360 86 1185 0 756 0 c 0
 302 0 133 96 133 355 c 0
 133 425 145 522 165 603 c 1
 218 590 l 1
 199 516 185 415 185 351 c 0
 185 139 340 60 760 60 c 0
 1248 60 1383 166 1383 522 c 2
 1383 1298 l 1
 1442 1298 l 1
 1442 522 l 2
EndSplineSet
Fore
SplineSet
1442 522 m 258
 1442 187 1550 60 1836 60 c 258
 1837 60 l 257
 1837 0 l 257
 1836 0 l 258
 1596 0 1440 114 1413 310 c 257
 1360 86 1185 0 756 0 c 256
 302 0 133 96 133 355 c 256
 133 425 145 522 165 603 c 257
 218 590 l 257
 199 516 185 415 185 351 c 256
 185 139 340 60 760 60 c 256
 1248 60 1383 166 1383 522 c 258
 1383 1298 l 257
 1442 1298 l 257
 1442 522 l 258
EndSplineSet
Colour: ffff
EndChar

StartChar: uniE057
Encoding: 57431 57431 1272
Width: 795
GlyphClass: 2
Flags: HMW
LayerCount: 2
Fore
SplineSet
821 1264 m 257
 835 1204 l 257
 537 1139 306 1073 95 982 c 257
 94 972 l 257
 440 706 629 521 629 309 c 256
 629 96 455 0 104 0 c 258
 0 0 l 258
 -14 0 -20 9 -20 30 c 256
 -20 51 -14 60 0 60 c 258
 104 60 l 258
 416 60 569 136 569 312 c 256
 569 500 375 686 45 936 c 257
 53 1025 l 257
 298 1127 552 1204 821 1264 c 257
EndSplineSet
EndChar

StartChar: uniE058
Encoding: 57432 57432 1273
Width: 1126
GlyphClass: 2
Flags: HMW
LayerCount: 2
Back
SplineSet
608 369 m 257
 643 114 481 0 104 0 c 258
 0 0 l 258
 -14 0 -20 9 -20 30 c 256
 -20 51 -14 60 0 60 c 258
 104 60 l 258
 416 60 569 136 569 312 c 256
 569 505 367 693 45 936 c 257
 53 1025 l 257
 298 1127 522 1184 791 1244 c 257
 805 1184 l 257
 507 1119 306 1073 95 982 c 257
 94 972 l 257
 383 749 547 613 666 363 c 256
 783 119 882 60 1125 60 c 258
 3174 60 l 257
 3174 0 l 257
 1125 0 l 258
 852 0 719 92 618 369 c 257
 608 369 l 257
EndSplineSet
Fore
SplineSet
608 369 m 257
 643 114 481 0 104 0 c 258
 0 0 l 258
 -14 0 -20 9 -20 30 c 256
 -20 51 -14 60 0 60 c 258
 104 60 l 258
 416 60 569 136 569 312 c 256
 569 505 367 693 45 936 c 257
 53 1025 l 257
 298 1127 522 1184 791 1244 c 257
 805 1184 l 257
 507 1119 306 1073 95 982 c 257
 94 972 l 257
 383 749 547 613 666 363 c 256
 783 119 882 60 1125 60 c 258
 1126 60 l 257
 1126 0 l 257
 1125 0 l 258
 852 0 719 92 618 369 c 257
 608 369 l 257
EndSplineSet
Colour: ffff
EndChar

StartChar: uniE059
Encoding: 57433 57433 1274
Width: 1494
GlyphClass: 2
Flags: HMW
LayerCount: 2
Back
SplineSet
3542 60 m 257
 3542 0 l 257
 1493 0 l 258
 1332 0 1190 66 1139 186 c 257
 1139 -2 l 258
 1139 -385 966 -555 615 -555 c 256
 314 -555 133 -391 133 -107 c 256
 133 19 160 161 219 310 c 257
 274 286 l 257
 219 142 192 2 192 -107 c 256
 192 -361 344 -495 630 -495 c 256
 937 -495 1079 -337 1079 -2 c 258
 1079 1298 l 257
 1139 1298 l 257
 1139 432 l 258
 1139 211 1218 60 1493 60 c 258
 3542 60 l 257
EndSplineSet
Fore
SplineSet
1494 60 m 257
 1494 0 l 257
 1493 0 l 258
 1332 0 1190 66 1139 186 c 257
 1139 -2 l 258
 1139 -385 966 -555 615 -555 c 256
 314 -555 133 -391 133 -107 c 256
 133 19 160 161 219 310 c 257
 274 286 l 257
 219 142 192 2 192 -107 c 256
 192 -361 344 -495 630 -495 c 256
 937 -495 1079 -337 1079 -2 c 258
 1079 1298 l 257
 1139 1298 l 257
 1139 432 l 258
 1139 211 1218 60 1493 60 c 258
 1494 60 l 257
EndSplineSet
Colour: ffff
EndChar

StartChar: uniE05A
Encoding: 57434 57434 1275
Width: 563
GlyphClass: 2
Flags: HMW
LayerCount: 2
Fore
SplineSet
0 60 m 256
 249 60 313 179 313 408 c 258
 313 1298 l 257
 373 1298 l 257
 373 408 l 258
 373 136 273 0 0 0 c 256
 -15 0 -20 15 -20 30 c 256
 -20 45 -15 60 0 60 c 256
EndSplineSet
EndChar

StartChar: uniE05B
Encoding: 57435 57435 1276
Width: 685
GlyphClass: 2
Flags: HMW
LayerCount: 2
Back
SplineSet
337 246 m 257
 317 83 193 0 0 0 c 256
 -15 0 -20 15 -20 30 c 256
 -20 45 -15 60 0 60 c 256
 273 60 313 207 313 426 c 258
 313 1298 l 257
 373 1298 l 257
 373 432 l 258
 373 211 409 60 684 60 c 258
 2733 60 l 257
 2733 0 l 257
 684 0 l 258
 495 0 366 84 347 246 c 257
 337 246 l 257
EndSplineSet
Fore
SplineSet
337 246 m 257
 317 83 193 0 0 0 c 256
 -15 0 -20 15 -20 30 c 256
 -20 45 -15 60 0 60 c 256
 273 60 313 207 313 426 c 258
 313 1298 l 257
 373 1298 l 257
 373 432 l 258
 373 211 409 60 684 60 c 258
 685 60 l 257
 685 0 l 257
 684 0 l 258
 495 0 366 84 347 246 c 257
 337 246 l 257
EndSplineSet
Colour: ffff
EndChar

StartChar: uniE05C
Encoding: 57436 57436 1277
Width: 1460
GlyphClass: 2
Flags: HMW
LayerCount: 2
Back
SplineSet
799 617 m 0
 581 617 515 336 472 136 c 1
 510 127 559 115 598 104 c 0
 721 71 805 49 889 49 c 0
 1011 49 1063 121 1063 282 c 0
 1063 441 991 617 799 617 c 0
799 676 m 0
 970 676 1051 564 1114 407 c 0
 1178 246 1262 60 1459 60 c 2
 3508 60 l 1
 3508 0 l 1
 1459 0 l 2
 1288 0 1181 112 1110 292 c 1
 1123 113 1043 -11 889 -11 c 0
 795 -11 704 13 583 45 c 0
 488 71 403 91 343 91 c 0
 234 91 194 31 194 -110 c 2
 194 -773 l 1
 133 -773 l 1
 133 -110 l 2
 133 78 221 183 412 148 c 1
 458 380 543 676 799 676 c 0
EndSplineSet
Fore
SplineSet
799 617 m 256
 581 617 515 336 472 136 c 257
 510 127 559 115 598 104 c 256
 721 71 805 49 889 49 c 256
 1011 49 1063 121 1063 282 c 256
 1063 441 991 617 799 617 c 256
799 676 m 256
 970 676 1051 564 1114 407 c 256
 1178 246 1262 60 1459 60 c 258
 1460 60 l 257
 1460 0 l 257
 1459 0 l 258
 1288 0 1181 112 1110 292 c 257
 1123 113 1043 -11 889 -11 c 256
 795 -11 704 13 583 45 c 256
 488 71 403 91 343 91 c 256
 234 91 194 31 194 -110 c 258
 194 -773 l 257
 133 -773 l 257
 133 -110 l 258
 133 78 221 183 412 148 c 257
 458 380 543 676 799 676 c 256
EndSplineSet
Colour: ffff
EndChar

StartChar: uniE05D
Encoding: 57437 57437 1278
Width: 1179
GlyphClass: 2
Flags: HMW
LayerCount: 2
Fore
SplineSet
0 60 m 256
 203 60 283 224 359 383 c 256
 433 538 505 683 681 683 c 256
 871 683 996 476 996 292 c 256
 996 112 877 -11 702 -11 c 256
 554 -11 434 69 322 197 c 257
 256 88 164 0 0 0 c 256
 -17 0 -20 13 -20 30 c 256
 -20 47 -17 60 0 60 c 256
352 249 m 257
 457 120 564 48 703 48 c 256
 850 48 943 146 943 293 c 256
 943 438 833 622 679 622 c 256
 530 622 467 491 398 346 c 258
 352 249 l 257
EndSplineSet
EndChar

StartChar: uniE05E
Encoding: 57438 57438 1279
Width: 1336
GlyphClass: 2
Flags: HMW
LayerCount: 2
Back
SplineSet
352 249 m 1
 457 120 564 48 703 48 c 0
 850 48 943 146 943 293 c 0
 943 438 833 622 679 622 c 0
 530 622 467 491 398 346 c 2
 352 249 l 1
0 60 m 0
 203 60 283 224 359 383 c 0
 433 538 505 683 681 683 c 0
 861 683 938 528 1006 370 c 0
 1075 210 1150 60 1335 60 c 2
 3384 60 l 1
 3384 0 l 1
 1335 0 l 2
 1162 0 1044 131 992 288 c 1
 982 101 865 -11 702 -11 c 0
 554 -11 434 69 322 197 c 1
 256 88 164 0 0 0 c 0
 -17 0 -20 13 -20 30 c 0
 -20 47 -17 60 0 60 c 0
EndSplineSet
Fore
SplineSet
352 249 m 257
 457 120 564 48 703 48 c 256
 850 48 943 146 943 293 c 256
 943 438 833 622 679 622 c 256
 530 622 467 491 398 346 c 258
 352 249 l 257
0 60 m 256
 203 60 283 224 359 383 c 256
 433 538 505 683 681 683 c 256
 861 683 938 528 1006 370 c 256
 1075 210 1150 60 1335 60 c 258
 1336 60 l 257
 1336 0 l 257
 1335 0 l 258
 1162 0 1044 131 992 288 c 257
 982 101 865 -11 702 -11 c 256
 554 -11 434 69 322 197 c 257
 256 88 164 0 0 0 c 256
 -17 0 -20 13 -20 30 c 256
 -20 47 -17 60 0 60 c 256
EndSplineSet
Colour: ffff
EndChar

StartChar: uniE05F
Encoding: 57439 57439 1280
Width: 1175
GlyphClass: 2
Flags: HMW
LayerCount: 2
Back
SplineSet
738 780 m 1
 728 938 l 1
 788 941 l 1
 824 365 l 2
 839 129 918 60 1174 60 c 2
 3223 60 l 1
 3223 0 l 1
 1174 0 l 2
 974 0 863 51 805 169 c 1
 723 142 637 128 559 128 c 0
 334 128 200 223 200 382 c 0
 200 581 409 736 738 780 c 1
741 718 m 1
 448 680 265 553 265 388 c 0
 265 262 370 191 556 191 c 0
 625 191 715 203 786 222 c 1
 776 256 768 309 765 357 c 2
 741 718 l 1
EndSplineSet
Fore
SplineSet
738 780 m 1
 728 938 l 1
 788 941 l 1
 824 365 l 2
 839 129 918 60 1174 60 c 2
 1175 60 l 1
 1175 0 l 1
 1174 0 l 2
 974 0 863 51 805 169 c 1
 723 142 637 128 559 128 c 0
 334 128 200 223 200 382 c 0
 200 581 409 736 738 780 c 1
741 718 m 1
 448 680 265 553 265 388 c 0
 265 262 370 191 556 191 c 0
 625 191 715 203 786 222 c 1
 776 256 768 309 765 357 c 2
 741 718 l 1
EndSplineSet
Colour: ffff
EndChar

StartChar: uniE060
Encoding: 57440 57440 1281
Width: 1321
GlyphClass: 2
Flags: HMW
LayerCount: 2
Fore
SplineSet
0 60 m 258
 29 60 l 258
 188 60 283 80 387 118 c 257
 268 185 133 297 133 459 c 256
 133 618 237 775 395 811 c 257
 210 890 l 257
 233 945 l 257
 704 744 l 258
 1038 599 1188 482 1188 276 c 256
 1188 81 1052 -11 855 -11 c 256
 728 -11 582 28 458 83 c 257
 337 30 234 0 45 0 c 258
 0 0 l 258
 -16 0 -20 14 -20 30 c 256
 -20 46 -16 60 0 60 c 258
458 148 m 257
 615 227 694 350 694 465 c 256
 694 637 622 757 464 757 c 256
 310 757 192 612 192 459 c 256
 192 312 334 207 458 148 c 257
527 118 m 257
 634 76 756 49 855 49 c 256
 1017 49 1129 113 1129 276 c 256
 1129 436 1022 538 709 676 c 257
 813 429 723 236 527 118 c 257
EndSplineSet
EndChar

StartChar: uniE061
Encoding: 57441 57441 1282
Width: 969
GlyphClass: 2
Flags: HMW
LayerCount: 2
Back
SplineSet
520 738 m 0
 661 738 769 620 769 452 c 0
 769 200 547 16 223 1 c 1
 246 -160 346 -348 505 -477 c 1
 510 -477 l 1
 691 -38 764 60 910 60 c 2
 3017 60 l 1
 3017 0 l 1
 910 0 l 2
 795 0 731 -95 550 -537 c 1
 484 -537 l 1
 297 -389 188 -186 163 0 c 1
 0 -0 l 2
 -13 -0 -20 11 -20 30 c 0
 -20 48 -13 60 0 60 c 2
 156 60 l 1
 124 500 290 738 520 738 c 0
216 61 m 1
 510 73 709 231 709 454 c 0
 709 588 627 678 520 678 c 0
 328 678 187 462 216 61 c 1
EndSplineSet
Fore
SplineSet
520 738 m 256
 661 738 769 620 769 452 c 256
 769 200 547 16 223 1 c 257
 246 -160 346 -348 505 -477 c 257
 510 -477 l 257
 691 -38 764 60 910 60 c 258
 969 60 l 257
 969 0 l 257
 910 0 l 258
 795 0 731 -95 550 -537 c 257
 484 -537 l 257
 297 -389 188 -186 163 0 c 257
 0 -0 l 258
 -13 -0 -20 11 -20 30 c 256
 -20 48 -13 60 0 60 c 258
 156 60 l 257
 124 500 290 738 520 738 c 256
216 61 m 257
 510 73 709 231 709 454 c 256
 709 588 627 678 520 678 c 256
 328 678 187 462 216 61 c 257
EndSplineSet
Colour: ffff
EndChar

StartChar: uniE062
Encoding: 57442 57442 1283
Width: 946
GlyphClass: 2
Flags: HMW
LayerCount: 2
Back
SplineSet
762 60 m 1
 753 283 690 627 467 627 c 0
 292 627 213 438 213 264 c 0
 213 107 314 60 474 60 c 1
 569 60 665 60 762 60 c 1
762 0 m 1
 664 0 569 0 474 0 c 1
 283 0 153 71 153 264 c 0
 153 473 255 689 467 689 c 0
 732 689 811 323 819 60 c 1
 2994 60 l 1
 2994 0 l 1
 819 0 l 1
 806 -278 540 -460 119 -564 c 1
 104 -505 l 1
 520 -402 749 -233 762 0 c 1
EndSplineSet
Fore
SplineSet
762 60 m 257
 753 283 690 627 467 627 c 256
 292 627 213 438 213 264 c 256
 213 107 314 60 474 60 c 257
 569 60 665 60 762 60 c 257
762 0 m 257
 664 0 569 0 474 0 c 257
 283 0 153 71 153 264 c 256
 153 473 255 689 467 689 c 256
 732 689 811 323 819 60 c 257
 946 60 l 257
 946 0 l 257
 819 0 l 257
 806 -278 540 -460 119 -564 c 257
 104 -505 l 257
 520 -402 749 -233 762 0 c 257
EndSplineSet
Colour: ffff
EndChar

StartChar: uniE063
Encoding: 57443 57443 1284
Width: 1164
GlyphClass: 2
Flags: HMW
LayerCount: 2
Fore
SplineSet
708 605 m 1
 233 236 l 1
 233 118 l 1
 351 79 464 60 571 60 c 0
 798 60 914 144 914 249 c 0
 914 328 853 445 708 605 c 1
714 687 m 1
 855 808 914 940 914 1125 c 2
 914 1298 l 1
 974 1298 l 1
 974 1125 l 2
 974 925 905 774 754 643 c 1
 900 482 974 356 974 249 c 0
 974 88 802 0 571 0 c 0
 444.111328125 0 305.1015625 28.7646484375 173 75 c 1
 173 266 l 1
 667 650 l 1
 130 1237 l 1
 174 1277 l 1
 714 687 l 1
EndSplineSet
EndChar

StartChar: uniE064
Encoding: 57444 57444 1285
Width: 1431
GlyphClass: 2
Flags: HMW
LayerCount: 2
Back
SplineSet
187 1299 m 1
 241 1322 l 1
 385 984 447 684 447 319 c 1
 388 319 l 1
 388 678 328 971 187 1299 c 1
1045 1298 m 1
 1105 1298 l 1
 1105 382 l 2
 1105 146 1192 60 1430 60 c 2
 3479 60 l 1
 3479 0 l 1
 1430 0 l 2
 1169 0 1045 123 1045 382 c 2
 1045 454 l 1
 844 149 538 0 110 0 c 1
 110 60 l 1
 540 60 822 203 1045 536 c 1
 1045 1298 l 1
EndSplineSet
Fore
SplineSet
187 1299 m 257
 241 1322 l 257
 385 983 447 683 447 319 c 257
 388 319 l 257
 388 678 328 971 187 1299 c 257
1045 1298 m 257
 1105 1298 l 257
 1105 382 l 258
 1105 146 1192 60 1430 60 c 258
 1431 60 l 257
 1431 0 l 257
 1430 0 l 258
 1169 0 1045 123 1045 382 c 258
 1045 454 l 257
 844 149 538 0 110 0 c 257
 110 60 l 257
 541 60 822 203 1045 536 c 257
 1045 1298 l 257
EndSplineSet
Colour: ffff
EndChar

StartChar: uniE065
Encoding: 57445 57445 1286
Width: 1938
GlyphClass: 2
Flags: HMW
LayerCount: 2
Back
SplineSet
1643 572 m 257
 1628 489 1616 420 1616 332 c 0
 1616 185 1666 60 1937 60 c 2
 3986 60 l 257
 3986 0 l 257
 1937 0 l 2
 1698 0 1572 109 1559 298 c 257
 1445 79 1165 0 782 0 c 256
 316 0 133 159 133 431 c 256
 133 519 154 621 190 719 c 257
 248 696 l 257
 212 598 192 508 192 426 c 256
 192 185 371 60 796 60 c 256
 1376 60 1537 226 1585 580 c 257
 1643 572 l 257
EndSplineSet
Fore
SplineSet
1643 572 m 257
 1628 489 1616 420 1616 332 c 256
 1616 185 1666 60 1937 60 c 258
 1938 60 l 257
 1938 0 l 257
 1937 0 l 258
 1698 0 1572 109 1559 298 c 257
 1445 79 1165 0 782 0 c 256
 316 0 133 159 133 431 c 256
 133 519 154 621 190 719 c 257
 248 696 l 257
 212 598 192 508 192 426 c 256
 192 185 371 60 796 60 c 256
 1376 60 1537 226 1585 580 c 257
 1643 572 l 257
EndSplineSet
Colour: ffff
EndChar

StartChar: uniE066
Encoding: 57446 57446 1287
Width: 960
GlyphClass: 2
Flags: HMW
LayerCount: 2
Fore
SplineSet
765 474 m 257
 749 799 640 991 474 991 c 256
 327 991 218 835 218 624 c 256
 218 493 295 432 461 432 c 256
 542 432 650 447 765 474 c 257
0 60 m 258
 217 60 l 258
 633 60 766 126 766 411 c 257
 657 385 548 371 463 371 c 256
 259 371 159 454 159 623 c 256
 159 872 292 1051 476 1051 c 256
 691 1051 827 801 827 406 c 256
 827 90 655 0 189 0 c 258
 0 0 l 258
 -17 0 -20 13 -20 30 c 256
 -20 47 -16 60 0 60 c 258
EndSplineSet
EndChar

StartChar: uniE067
Encoding: 57447 57447 1288
Width: 1936
GlyphClass: 2
Flags: HMW
LayerCount: 2
Back
SplineSet
1435 70 m 1
 1284 16 1096 0 913 0 c 0
 466 0 133 47 133 389 c 0
 133 498 164 605 195 696 c 1
 251 676 l 1
 220 585 191 485 191 380 c 0
 191 119 443 60 913 60 c 0
 1063 60 1225 73 1357 109 c 1
 1218 182 1115 301 1115 488 c 0
 1115 707 1249 829 1435 829 c 0
 1618 829 1755 706 1755 487 c 0
 1755 299 1643 178 1504 105 c 1
 1585 75 1682 60 1778 60 c 2
 3984 60 l 1
 3984 0 l 1
 1761 0 l 2
 1638 0 1546 22 1435 70 c 1
1435 134 m 1
 1588 202 1694 311 1694 491 c 0
 1694 665 1586 775 1435 775 c 0
 1282 775 1175 665 1175 491 c 0
 1175 313 1282 203 1435 134 c 1
EndSplineSet
Fore
SplineSet
1435 70 m 257
 1284 16 1096 0 913 0 c 256
 466 0 133 47 133 389 c 256
 133 498 164 605 195 696 c 257
 251 676 l 257
 220 585 191 485 191 380 c 256
 191 119 443 60 913 60 c 256
 1063 60 1225 73 1357 109 c 257
 1218 182 1115 301 1115 488 c 256
 1115 707 1249 829 1435 829 c 256
 1618 829 1755 706 1755 487 c 256
 1755 299 1643 178 1504 105 c 257
 1585 75 1682 60 1778 60 c 258
 1936 60 l 257
 1936 0 l 257
 1761 0 l 258
 1638 0 1546 22 1435 70 c 257
1435 134 m 257
 1588 202 1694 311 1694 491 c 256
 1694 665 1586 775 1435 775 c 256
 1282 775 1175 665 1175 491 c 256
 1175 313 1282 203 1435 134 c 257
EndSplineSet
Colour: ffff
EndChar

StartChar: uniE068
Encoding: 57448 57448 1289
Width: 958
GlyphClass: 2
Flags: HMW
LayerCount: 2
Back
SplineSet
159 488 m 0
 159 707 293 829 479 829 c 0
 662 829 799 706 799 487 c 0
 799 300 687 178 548 105 c 1
 629 75 726 60 822 60 c 2
 3006 60 l 1
 3006 0 l 1
 805 0 l 2
 682 0 590 22 479 70 c 1
 368 22 273 0 146 0 c 2
 0 0 l 2
 -17 0 -20 13 -20 30 c 0
 -20 47 -17 60 0 60 c 2
 137 60 l 2
 235 60 326 75 412 105 c 1
 272 178 159 301 159 488 c 0
479 134 m 1
 631 203 738 312 738 491 c 0
 738 665 630 775 479 775 c 0
 326 775 219 665 219 491 c 0
 219 313 326 203 479 134 c 1
EndSplineSet
Fore
SplineSet
159 488 m 256
 159 707 293 829 479 829 c 256
 662 829 799 706 799 487 c 256
 799 300 687 178 548 105 c 257
 629 75 726 60 822 60 c 258
 958 60 l 257
 958 0 l 257
 805 0 l 258
 682 0 590 22 479 70 c 257
 368 22 273 0 146 0 c 258
 0 0 l 258
 -17 0 -20 13 -20 30 c 256
 -20 47 -17 60 0 60 c 258
 137 60 l 258
 235 60 326 75 412 105 c 257
 272 178 159 301 159 488 c 256
479 134 m 257
 631 203 738 312 738 491 c 256
 738 665 630 775 479 775 c 256
 326 775 219 665 219 491 c 256
 219 313 326 203 479 134 c 257
EndSplineSet
Colour: ffff
EndChar

StartChar: uniE069
Encoding: 57449 57449 1290
Width: 1523
GlyphClass: 2
Flags: HMW
LayerCount: 2
Back
SplineSet
1317 60 m 1
 1308 283 1245 626 1022 626 c 0
 847 626 767 437 767 263 c 0
 767 106 869 60 1029 60 c 0
 1124 60 1220 60 1317 60 c 1
1317 0 m 1
 1219 0 1124 0 1029 0 c 0
 838 0 708 70 708 263 c 0
 708 472 810 687 1022 687 c 0
 1287 687 1366 323 1374 60 c 1
 3571 60 l 1
 3571 0 l 1
 1374 0 l 1
 1374 -360 1151 -559 742 -559 c 0
 340 -559 133 -394 133 -58 c 0
 133 35 149 174 180 351 c 1
 239 339 l 1
 207 155 192 24 192 -64 c 0
 192 -373 380 -497 747 -497 c 0
 1109 -497 1317 -325 1317 0 c 1
EndSplineSet
Fore
SplineSet
1317 60 m 257
 1308 283 1245 626 1022 626 c 256
 847 626 767 437 767 263 c 256
 767 106 869 60 1029 60 c 256
 1124 60 1220 60 1317 60 c 257
1317 0 m 257
 1219 0 1124 0 1029 0 c 256
 838 0 708 70 708 263 c 256
 708 472 810 687 1022 687 c 256
 1287 687 1366 323 1374 60 c 257
 1523 60 l 257
 1523 0 l 257
 1374 0 l 257
 1374 -360 1151 -559 742 -559 c 256
 340 -559 133 -394 133 -58 c 256
 133 35 149 174 180 351 c 257
 239 339 l 257
 207 155 192 24 192 -64 c 256
 192 -373 380 -497 747 -497 c 256
 1109 -497 1317 -325 1317 0 c 257
EndSplineSet
Colour: ffff
EndChar

StartChar: uniE06E
Encoding: 57454 57454 1291
Width: 0
GlyphClass: 2
Flags: HMW
LayerCount: 2
Fore
SplineSet
-123 1175 m 1
 28 1175 l 2
 168 1175 229 1208 229 1283 c 0
 229 1338 192 1374 135 1374 c 0
 59 1374 0 1324 -123 1175 c 1
-158 1175 m 1
 -158 1610 l 1
 -112 1610 l 1
 -112 1247 l 1
 -15 1358 57 1418 135 1418 c 0
 217 1418 274 1362 274 1280 c 0
 274 1181 191 1131 28 1131 c 2
 -304 1131 l 1
 -304 1175 l 1
 -158 1175 l 1
EndSplineSet
EndChar

StartChar: uniE06F
Encoding: 57455 57455 1292
Width: 0
GlyphClass: 2
Flags: HMW
LayerCount: 2
Fore
SplineSet
6 1233 m 1
 62.796912114 1206.09619952 99.8815789474 1195 133 1195 c 0
 203.531914894 1195 251 1232.81355932 251 1289 c 0
 251 1334.08450704 222.118421053 1365 180 1365 c 0
 133.954545455 1365 97.8589420655 1337.61712846 6 1233 c 1
-29 1250 m 1
 68.878256513 1366.97645291 121.91025641 1406 183 1406 c 0
 246.830434783 1406 292 1358.3440367 292 1291 c 0
 292 1209.9202454 223.4 1151 129 1151 c 0
 87.2604166667 1151 42.7464443355 1164.60936734 -28 1199 c 0
 -79.4908256881 1223.71559633 -103.590909091 1232 -124 1232 c 0
 -165.106557377 1232 -202.139618138 1197.77247414 -256 1110 c 1
 -291 1132 l 1
 -231.85138539 1237.26448363 -185.857142857 1279 -129 1279 c 0
 -103.793103448 1279 -75.6173677069 1270.82903664 -29 1250 c 1
EndSplineSet
EndChar

StartChar: uniE070
Encoding: 57456 57456 1293
Width: 0
GlyphClass: 2
Flags: HMW
LayerCount: 2
Fore
SplineSet
230 1381 m 257
 230 1254 161 1151 0 1151 c 256
 -161 1151 -230 1255 -230 1381 c 257
 -185 1381 l 257
 -185 1278 -142 1195 0 1195 c 256
 138 1195 185 1282 185 1381 c 257
 230 1381 l 257
EndSplineSet
EndChar

StartChar: uniE071
Encoding: 57457 57457 1294
Width: 0
GlyphClass: 2
Flags: HMW
LayerCount: 2
Fore
SplineSet
230 1195 m 257
 -230 1195 l 257
 -230 1240 l 257
 230 1240 l 257
 230 1195 l 257
EndSplineSet
EndChar

StartChar: uniE072
Encoding: 57458 57458 1295
Width: 0
GlyphClass: 2
Flags: HMW
LayerCount: 2
Fore
SplineSet
-85 1583 m 256
 -146 1583 -173 1526 -173 1462 c 256
 -173 1413 -155 1369 -121 1327 c 257
 -57 1338 40 1372 40 1451 c 256
 40 1521 -22 1583 -85 1583 c 256
-87 1627 m 256
 11 1627 84 1529 84 1448 c 256
 84 1350 -14 1309 -88 1290 c 257
 -12 1236 114 1183 218 1155 c 257
 203 1113 l 257
 -40 1183 -219 1283 -219 1464 c 256
 -219 1559 -167 1627 -87 1627 c 256
EndSplineSet
EndChar

StartChar: uniE073
Encoding: 57459 57459 1296
Width: 0
GlyphClass: 2
Flags: HMW
LayerCount: 2
Fore
SplineSet
-196 1131 m 257
 -216 1171 l 257
 198 1368 l 257
 218 1328 l 257
 -196 1131 l 257
-178 1420 m 257
 -111 1487 l 257
 -44 1420 l 257
 -111 1354 l 257
 -178 1420 l 257
18 1063 m 257
 85 1130 l 257
 152 1063 l 257
 85 997 l 257
 18 1063 l 257
EndSplineSet
EndChar

StartChar: uniE075
Encoding: 57461 57461 1297
Width: 2087
GlyphClass: 2
Flags: HMW
LayerCount: 2
Fore
SplineSet
919 1080 m 257
 949 1031 l 257
 580 812 425 669 425 544 c 257
 1497 544 l 258
 1844.87791741 544 1954 498 1954 349 c 256
 1954 138 1729.46188341 0 1385 0 c 258
 133 0 l 257
 133 60 l 257
 1393 60 l 258
 1694.76705491 60 1894 178 1894 345 c 256
 1894 459 1804.6374269 484 1481 484 c 258
 413 484 l 257
 370 531 l 257
 370 693 518 841 919 1080 c 257
EndSplineSet
EndChar

StartChar: uniE076
Encoding: 57462 57462 1298
Width: 1785
GlyphClass: 2
Flags: HMW
LayerCount: 2
Fore
SplineSet
560 345 m 257
 545 327 l 257
 451.547368421 298.21641791 267.689473684 237.671641791 159 194 c 257
 137 255 l 257
 337.367521368 329.318181818 431.957264957 364 494 364 c 256
 520 364 540 357 560 345 c 257
EndSplineSet
Refer: 1247 57406 N 1 0 0 1 323 0 2
EndChar

StartChar: uniE077
Encoding: 57463 57463 1299
Width: 1667
GlyphClass: 2
Flags: HMW
LayerCount: 2
Fore
SplineSet
1300 825 m 257
 1271 947 1239 1071 1121 1071 c 256
 1033 1071 985 976 946 896 c 256
 840 678 704 555 518 506 c 256
 343 460 193 387 193 222 c 256
 193 93 303 60 443 60 c 258
 1534 60 l 257
 1534 0 l 257
 443 0 l 258
 277 0 133 52 133 222 c 256
 133 435 331 518 504 564 c 256
 686 613 797 732 887 912 c 256
 934 1007 997 1131 1121 1131 c 256
 1285 1131 1322 985 1357 838 c 257
 1300 825 l 257
EndSplineSet
EndChar

StartChar: uniE078
Encoding: 57464 57464 1300
Width: 0
GlyphClass: 2
Flags: HMW
LayerCount: 2
Fore
SplineSet
298 1341 m 0
 261 1341 210 1312 149 1224 c 1
 172 1218 197 1213 228 1213 c 0
 289 1213 359 1222 359 1283 c 0
 359 1317 337 1341 298 1341 c 0
300 1383 m 0
 359 1383 400 1342 400 1282 c 0
 400 1195 316 1171 228 1171 c 0
 150 1171 100 1187 71 1229 c 1
 49 1190 17 1171 -40 1171 c 0
 -93 1171 -130 1189 -148 1222 c 1
 -166 1190 -196 1171 -247 1171 c 2
 -266 1171 l 2
 -350 1171 -426 1140 -426 1077 c 0
 -426 1047 -400 1041 -368 1041 c 2
 39 1041 l 1
 39 999 l 1
 -368 999 l 2
 -423 999 -469 1019 -469 1075 c 0
 -469 1155 -384 1213 -266 1213 c 2
 -247 1213 l 2
 -180 1213 -169 1241 -169 1302 c 2
 -169 1521 l 1
 -128 1521 l 1
 -128 1304 l 2
 -128 1243 -112 1213 -40 1213 c 0
 28 1213 48 1237 48 1311 c 2
 48 1353 l 1
 90 1353 l 1
 90 1312 l 2
 90 1271 95 1256 114 1240 c 1
 185 1343 247 1383 300 1383 c 0
EndSplineSet
EndChar

StartChar: uniE079
Encoding: 57465 57465 1301
Width: 0
GlyphClass: 2
Flags: HMW
LayerCount: 2
Fore
SplineSet
87 1459 m 0
 44 1459 26 1409 26 1368 c 0
 26 1330 50 1323 89 1323 c 0
 114 1323 136 1326 157 1331 c 1
 153 1382 139 1459 87 1459 c 0
182 1580 m 1
 146 1543 l 1
 110 1580 l 1
 146 1616 l 1
 182 1580 l 1
86 1580 m 1
 50 1543 l 1
 14 1580 l 1
 50 1616 l 1
 86 1580 l 1
88 1500 m 0
 173 1500 200 1386 200 1300 c 0
 200 1193 131 1172 8 1172 c 2
 -40 1172 l 2
 -90 1172 -121 1190 -139 1223 c 1
 -157 1191 -185 1172 -236 1172 c 2
 -256 1172 l 2
 -340 1172 -416 1141 -416 1078 c 0
 -416 1048 -390 1041 -358 1041 c 2
 48 1041 l 1
 48 999 l 1
 -358 999 l 2
 -413 999 -459 1019 -459 1075 c 0
 -459 1155 -374 1214 -256 1214 c 2
 -236 1214 l 2
 -169 1214 -159 1241 -159 1302 c 2
 -159 1522 l 1
 -118 1522 l 1
 -118 1305 l 2
 -118 1244 -106 1214 -40 1214 c 2
 13 1214 l 2
 108 1214 156 1219 160 1290 c 1
 139 1285 115 1281 88 1281 c 0
 28 1281 -11 1307 -11 1366 c 0
 -11 1433 21 1500 88 1500 c 0
EndSplineSet
EndChar

StartChar: uniE07A
Encoding: 57466 57466 1302
Width: 0
GlyphClass: 2
Flags: HMW
LayerCount: 2
Fore
SplineSet
-47 1257 m 1
 -9 1211 31 1185 81 1185 c 0
 134 1185 167 1220 167 1272 c 0
 167 1325 128 1392 72 1392 c 0
 18 1392 -6 1345 -31 1291 c 2
 -47 1257 l 1
-198 1190 m 2
 -122 1190 -93 1248 -61 1314 c 0
 -28 1382 3 1436 73 1436 c 0
 151 1436 205 1353 205 1272 c 0
 205 1193 156 1141 81 1141 c 0
 21 1141 -27 1173 -69 1223 c 1
 -97 1178 -132 1146 -198 1146 c 2
 -245 1146 l 1
 -245 1190 l 1
 -198 1190 l 2
EndSplineSet
EndChar

StartChar: uniE07B
Encoding: 57467 57467 1303
Width: 0
GlyphClass: 2
Flags: HMW
LayerCount: 2
Fore
SplineSet
-97 1282 m 257
 -165 1650 l 257
 -122 1658 l 257
 -55 1291 l 257
 -97 1282 l 257
208 1657 m 257
 208 1326 l 258
 208 1138 60 1131 -24 1131 c 258
 -208 1131 l 257
 -208 1177 l 257
 -26 1177 l 258
 98 1177 162 1200 162 1326 c 258
 162 1657 l 257
 208 1657 l 257
EndSplineSet
EndChar

StartChar: uniE07C
Encoding: 57468 57468 1304
Width: 0
GlyphClass: 2
Flags: HMW
LayerCount: 2
Fore
SplineSet
0 1192 m 1
 51 1141 l 1
 0 1090 l 1
 -51 1141 l 1
 0 1192 l 1
114 1374 m 1
 4 1414 l 2
 -65 1439 -83 1445 -98 1445 c 0
 -135 1445 -148 1428 -166 1357 c 1
 -206 1364 l 1
 -186 1451 -155 1485 -98 1485 c 0
 -76 1485 -55 1479 21 1451 c 2
 170 1397 l 1
 161 1346 l 1
 -58 1305 -185 1221 -185 1116 c 0
 -185 1037 -109 986 8 986 c 0
 58 986 116 998 173 1020 c 1
 189 981 l 1
 126 957 63 944 9 944 c 0
 -133 944 -226 1012 -226 1116 c 0
 -226 1233 -108 1323 114 1374 c 1
EndSplineSet
EndChar

StartChar: uniE07D
Encoding: 57469 57469 1305
Width: 0
GlyphClass: 2
Flags: HMW
LayerCount: 2
Fore
SplineSet
-106 1248 m 257
 -48 1189 l 257
 -106 1131 l 257
 -164 1189 l 257
 -106 1248 l 257
106 1248 m 257
 164 1189 l 257
 106 1131 l 257
 47 1189 l 257
 106 1248 l 257
0 1423 m 257
 59 1365 l 257
 0 1306 l 257
 -58 1365 l 257
 0 1423 l 257
EndSplineSet
EndChar

StartChar: uniE07E
Encoding: 57470 57470 1306
Width: 0
GlyphClass: 2
Flags: HMW
LayerCount: 2
Fore
SplineSet
235 1187 m 257
 214 1147 175 1127 126 1127 c 256
 90 1127 63 1138 43 1156 c 257
 54.292 1018.37 -24.7148 930 -200 930 c 256
 -364 930 -444 1001 -444 1140 c 256
 -444 1184 -433 1256 -417 1341 c 257
 -374 1332 l 257
 -390 1245 -400 1175 -400 1138 c 256
 -400 1027 -346 975 -204 975 c 256
 -59 975 4 1030 4 1134 c 256
 4 1177 -12 1251 -39 1351 c 257
 1 1366 l 257
 21 1292 l 258
 41 1215 62 1171 130 1171 c 256
 182 1171 209 1198 216 1275 c 258
 223 1353 l 257
 267 1348 l 257
 261 1282 l 258
 260 1275 260 1268 260 1261 c 256
 260 1197 290 1171 344 1171 c 256
 395 1171 419 1200 419 1265 c 256
 419 1297 412 1348 406 1375 c 257
 450 1386 l 257
 457 1353 463 1301 463 1265 c 256
 463 1177 421 1127 343 1127 c 256
 292 1127 253 1148 235 1187 c 257
EndSplineSet
EndChar

StartChar: uniE07F
Encoding: 57471 57471 1307
Width: 0
GlyphClass: 2
Flags: HMW
LayerCount: 2
Fore
SplineSet
-82 1413 m 256
 -82 1458 -45 1494 0 1494 c 256
 45 1494 82 1458 82 1413 c 256
 82 1368 45 1331 0 1331 c 256
 -45 1331 -82 1368 -82 1413 c 256
EndSplineSet
EndChar

StartChar: uniE080
Encoding: 57472 57472 1308
Width: 0
GlyphClass: 2
Flags: HMW
LayerCount: 2
Fore
SplineSet
-82 1331 m 257
 -82 1494 l 257
 82 1494 l 257
 82 1331 l 257
 -82 1331 l 257
EndSplineSet
EndChar

StartChar: uniE081
Encoding: 57473 57473 1309
Width: 0
GlyphClass: 2
Flags: HMW
LayerCount: 2
Fore
SplineSet
-128 1437 m 256
 -100 1437 -70 1429 -41 1417 c 258
 152 1341 l 257
 152 1300 l 257
 47 1214 -92 1149 -246 1132 c 257
 -252 1176 l 257
 -121 1194 2 1244 98 1315 c 257
 -60 1375 l 258
 -88 1386 -110 1393 -128 1393 c 256
 -182 1393 -197 1346 -208 1290 c 257
 -252 1301 l 257
 -238 1371 -209 1437 -128 1437 c 256
EndSplineSet
EndChar

StartChar: uniE082
Encoding: 57474 57474 1310
Width: 0
GlyphClass: 2
Flags: HMW
LayerCount: 2
Fore
SplineSet
163 1264 m 256
 163 1334 134 1393 69 1393 c 256
 -11 1393 -35 1290 -49 1219 c 257
 -1 1205 75 1185 105 1185 c 256
 153 1185 163 1217 163 1264 c 256
-114 1181 m 256
 -157 1181 -163 1153 -163 1111 c 258
 -163 941 l 257
 -209 941 l 257
 -209 1111 l 258
 -209 1189 -174 1233 -95 1227 c 257
 -77 1317 -40 1437 69 1437 c 256
 169 1437 209 1351 209 1259 c 256
 209 1188 173 1141 105 1141 c 256
 73 1141 34 1151 -5 1161 c 256
 -44 1171 -83 1181 -114 1181 c 256
EndSplineSet
EndChar

